<svg width="425" height="69" viewBox="0 0 425 69" fill="none" xmlns="http://www.w3.org/2000/svg">
<g filter="url(#filter0_di_7_20844)">
<mask id="path-1-outside-1_7_20844" maskUnits="userSpaceOnUse" x="0" y="0" width="423" height="66" fill="black">
<rect fill="white" width="423" height="66"/>
<path d="M30.1066 60.9198L28.9037 54.7446L27.6205 47.2863C19.8414 47.5269 21.1245 47.4467 20.0018 47.5269L17.9969 55.8674L16.9543 60.3584H16.7939C15.1098 60.3584 6.44847 60.2782 4.20296 60.1178L6.12769 52.5793C7.17025 48.5695 8.13261 44.5596 9.25537 40.6299C11.5009 32.6102 13.6662 24.5103 16.3127 16.5708L19.9216 5.74423L36.4422 5.26304C36.763 6.94718 37.8055 13.3629 38.4471 17.6936C39.0887 21.8638 39.5699 26.1143 40.1312 30.2845C40.9332 35.9785 41.5748 41.7527 42.6173 47.3665L45.1035 60.8396L42.056 60.9198H30.1066ZM22.9691 34.6152H27.3799L25.5354 26.5955L22.9691 34.6152ZM60.8252 61.3208C55.7728 61.3208 49.9184 60.5188 49.5174 60.4386L49.357 39.1864L49.1164 5.26304C49.5174 5.18284 53.2065 4.62147 57.7777 4.62147C75.5815 4.62147 77.025 12.962 77.025 16.9718C77.025 17.7738 76.9448 18.4154 76.9448 18.8163C76.9448 27.1568 73.336 29.242 72.0528 30.6855C74.1379 31.6479 82.2378 33.8934 82.2378 46.1635C82.2378 51.8575 79.4309 61.3208 60.8252 61.3208ZM59.6223 25.0717C64.2737 24.7509 65.3964 21.7836 65.3964 20.0193C65.3964 18.0946 63.4717 15.5283 59.6223 15.8491V25.0717ZM61.3866 48.6497C62.0282 48.7298 62.5895 48.7298 63.1509 48.7298C66.7598 48.7298 68.2835 47.5269 68.2835 46.0833C68.2835 44.319 65.7172 42.2339 61.547 42.2339H61.3866V48.6497ZM103.358 61.802C83.7904 61.802 86.3567 38.1438 86.3567 36.1389C86.3567 22.4252 85.7151 17.453 88.7626 11.358C91.2487 6.3056 97.4239 3.09772 103.198 3.09772C117.152 3.09772 120.601 13.4431 121.323 22.0242C121.483 24.2697 121.483 40.5497 121.082 45.0408C119.959 56.509 115.709 61.802 103.358 61.802ZM99.5892 37.1013C99.5892 38.3042 99.8298 43.9982 102.877 43.9982H103.038C106.085 43.9982 106.727 40.1488 106.887 33.9736L106.967 31.0063C107.288 20.2599 105.363 18.1748 103.278 18.1748C98.9476 18.1748 99.6694 23.6282 99.6694 26.5955C99.6694 41.3517 99.5892 33.4122 99.5892 37.1013ZM165.252 61V20.4203H146.647L147.85 6.78678L192.118 5.50363V9.27289L192.279 20.2599C190.434 20.4203 190.915 20.4203 184.019 20.4203H180.971V61H165.252ZM124.994 30.3647C124.994 14.8867 126.036 7.26797 126.116 7.02738H139.108V13.7639C139.108 20.5005 138.948 27.3172 138.948 34.0538C138.948 39.9884 139.269 44.72 141.835 44.5596C143.76 44.3992 144.882 42.6349 145.684 33.1716C146.005 29.8835 146.085 26.5955 146.326 23.2272H158.596C158.596 24.9113 158.676 26.5153 158.676 28.1994C158.676 29.1618 158.676 30.1241 158.596 31.0865C158.355 36.7805 158.436 42.4745 157.634 48.0883C156.752 53.7823 153.303 58.0327 147.85 60.5188C145.925 61.401 143.76 61.802 141.674 61.802C133.735 61.802 125.715 56.0278 125.314 46.9655C125.074 40.7101 124.994 35.0963 124.994 30.3647ZM217.907 60.7594C216.544 60.7594 215.341 60.6792 214.138 60.6792V55.0654L213.737 33.0914L213.577 5.18284C213.657 5.18284 217.266 5.10265 221.276 5.10265C223.762 5.10265 226.408 5.18284 228.413 5.26304C238.678 5.82442 241.004 12.4006 241.325 13.2827C243.731 18.9767 244.613 28.2796 244.773 30.8459C244.934 33.0112 245.094 35.0963 245.094 37.1013C245.094 48.81 241.566 55.8674 229.135 59.2357C224.804 60.4386 221.115 60.7594 217.907 60.7594ZM224.403 45.6022C229.215 44.5596 230.579 39.6676 230.739 38.7052C231.3 36.1389 231.541 33.5726 231.541 31.0865C231.541 29.242 231.381 27.3974 231.22 25.6331C230.418 19.2173 225.847 18.8163 224.724 18.8163H224.403L224.484 38.3844V38.9458L224.403 45.6022ZM271.002 60.9198L269.799 54.7446L268.516 47.2863C260.736 47.5269 262.02 47.4467 260.897 47.5269L258.892 55.8674L257.849 60.3584H257.689C256.005 60.3584 247.344 60.2782 245.098 60.1178L247.023 52.5793C248.065 48.5695 249.028 44.5596 250.15 40.6299C252.396 32.6102 254.561 24.5103 257.208 16.5708L260.817 5.74423L277.337 5.26304C277.658 6.94718 278.701 13.3629 279.342 17.6936C279.984 21.8638 280.465 26.1143 281.026 30.2845C281.828 35.9785 282.47 41.7527 283.512 47.3665L285.999 60.8396L282.951 60.9198H271.002ZM263.864 34.6152H268.275L266.43 26.5955L263.864 34.6152ZM321.689 63.1653C320.647 60.2782 317.76 50.2536 315.675 42.2339L314.792 38.8656C307.815 56.9901 307.254 57.3109 306.211 61.3208L290.011 61.7218C290.092 50.4942 290.172 38.7854 290.172 27.5578V4.54127C293.139 4.54127 298.192 4.54127 301.239 4.46107C301.8 28.44 301.8 25.0717 301.64 27.1568C302.763 24.9113 307.655 13.9243 309.74 8.47092L311.344 4.22048L318.963 4.06008L319.524 7.02738C322.812 24.4301 322.892 23.7886 324.416 29.7231C325.459 22.1044 327.624 6.14521 328.025 3.89969L341.658 3.97989C341.257 8.87191 340.054 18.9767 339.333 29.4024C339.012 32.8508 338.851 36.3795 338.691 39.828L338.21 47.2061C337.809 52.1783 337.328 57.9525 336.847 62.9247L327.704 63.3257L321.689 63.1653ZM366.781 60.9198L365.578 54.7446L364.295 47.2863C356.516 47.5269 357.799 47.4467 356.676 47.5269L354.671 55.8674L353.628 60.3584H353.468C351.784 60.3584 343.123 60.2782 340.877 60.1178L342.802 52.5793C343.844 48.5695 344.807 44.5596 345.93 40.6299C348.175 32.6102 350.34 24.5103 352.987 16.5708L356.596 5.74423L373.116 5.26304C373.437 6.94718 374.48 13.3629 375.121 17.6936C375.763 21.8638 376.244 26.1143 376.805 30.2845C377.607 35.9785 378.249 41.7527 379.291 47.3665L381.778 60.8396L378.73 60.9198H366.781ZM359.643 34.6152H364.054L362.21 26.5955L359.643 34.6152ZM386.673 60.7594C386.593 59.1555 386.352 48.9704 386.272 44.0784C386.192 40.229 386.272 36.2993 386.192 32.4498C386.111 26.7559 385.951 21.1421 385.871 15.4481L385.791 5.66402C386.994 5.58383 386.272 5.50363 399.264 5.42344C410.491 5.34324 415.223 5.34324 419.313 5.26304V16.9718C415.463 17.2124 402.632 17.2124 399.665 17.453V26.1945C400.868 26.1143 399.344 26.1945 409.689 25.7935V28.44L409.769 34.134V35.0963L402.552 35.4973C402.071 35.5775 401.509 35.6577 400.868 35.6577V43.5972L406.562 43.3566C410.331 43.1963 415.704 43.1161 419.473 43.1161L419.554 44.72C419.714 49.6922 419.794 53.5417 419.794 56.4288V60.5188L415.544 60.7594C414.662 60.8396 413.86 60.7594 412.977 60.7594H386.673Z"/>
</mask>
<path d="M30.1066 60.9198L28.9037 54.7446L27.6205 47.2863C19.8414 47.5269 21.1245 47.4467 20.0018 47.5269L17.9969 55.8674L16.9543 60.3584H16.7939C15.1098 60.3584 6.44847 60.2782 4.20296 60.1178L6.12769 52.5793C7.17025 48.5695 8.13261 44.5596 9.25537 40.6299C11.5009 32.6102 13.6662 24.5103 16.3127 16.5708L19.9216 5.74423L36.4422 5.26304C36.763 6.94718 37.8055 13.3629 38.4471 17.6936C39.0887 21.8638 39.5699 26.1143 40.1312 30.2845C40.9332 35.9785 41.5748 41.7527 42.6173 47.3665L45.1035 60.8396L42.056 60.9198H30.1066ZM22.9691 34.6152H27.3799L25.5354 26.5955L22.9691 34.6152ZM60.8252 61.3208C55.7728 61.3208 49.9184 60.5188 49.5174 60.4386L49.357 39.1864L49.1164 5.26304C49.5174 5.18284 53.2065 4.62147 57.7777 4.62147C75.5815 4.62147 77.025 12.962 77.025 16.9718C77.025 17.7738 76.9448 18.4154 76.9448 18.8163C76.9448 27.1568 73.336 29.242 72.0528 30.6855C74.1379 31.6479 82.2378 33.8934 82.2378 46.1635C82.2378 51.8575 79.4309 61.3208 60.8252 61.3208ZM59.6223 25.0717C64.2737 24.7509 65.3964 21.7836 65.3964 20.0193C65.3964 18.0946 63.4717 15.5283 59.6223 15.8491V25.0717ZM61.3866 48.6497C62.0282 48.7298 62.5895 48.7298 63.1509 48.7298C66.7598 48.7298 68.2835 47.5269 68.2835 46.0833C68.2835 44.319 65.7172 42.2339 61.547 42.2339H61.3866V48.6497ZM103.358 61.802C83.7904 61.802 86.3567 38.1438 86.3567 36.1389C86.3567 22.4252 85.7151 17.453 88.7626 11.358C91.2487 6.3056 97.4239 3.09772 103.198 3.09772C117.152 3.09772 120.601 13.4431 121.323 22.0242C121.483 24.2697 121.483 40.5497 121.082 45.0408C119.959 56.509 115.709 61.802 103.358 61.802ZM99.5892 37.1013C99.5892 38.3042 99.8298 43.9982 102.877 43.9982H103.038C106.085 43.9982 106.727 40.1488 106.887 33.9736L106.967 31.0063C107.288 20.2599 105.363 18.1748 103.278 18.1748C98.9476 18.1748 99.6694 23.6282 99.6694 26.5955C99.6694 41.3517 99.5892 33.4122 99.5892 37.1013ZM165.252 61V20.4203H146.647L147.85 6.78678L192.118 5.50363V9.27289L192.279 20.2599C190.434 20.4203 190.915 20.4203 184.019 20.4203H180.971V61H165.252ZM124.994 30.3647C124.994 14.8867 126.036 7.26797 126.116 7.02738H139.108V13.7639C139.108 20.5005 138.948 27.3172 138.948 34.0538C138.948 39.9884 139.269 44.72 141.835 44.5596C143.76 44.3992 144.882 42.6349 145.684 33.1716C146.005 29.8835 146.085 26.5955 146.326 23.2272H158.596C158.596 24.9113 158.676 26.5153 158.676 28.1994C158.676 29.1618 158.676 30.1241 158.596 31.0865C158.355 36.7805 158.436 42.4745 157.634 48.0883C156.752 53.7823 153.303 58.0327 147.85 60.5188C145.925 61.401 143.76 61.802 141.674 61.802C133.735 61.802 125.715 56.0278 125.314 46.9655C125.074 40.7101 124.994 35.0963 124.994 30.3647ZM217.907 60.7594C216.544 60.7594 215.341 60.6792 214.138 60.6792V55.0654L213.737 33.0914L213.577 5.18284C213.657 5.18284 217.266 5.10265 221.276 5.10265C223.762 5.10265 226.408 5.18284 228.413 5.26304C238.678 5.82442 241.004 12.4006 241.325 13.2827C243.731 18.9767 244.613 28.2796 244.773 30.8459C244.934 33.0112 245.094 35.0963 245.094 37.1013C245.094 48.81 241.566 55.8674 229.135 59.2357C224.804 60.4386 221.115 60.7594 217.907 60.7594ZM224.403 45.6022C229.215 44.5596 230.579 39.6676 230.739 38.7052C231.3 36.1389 231.541 33.5726 231.541 31.0865C231.541 29.242 231.381 27.3974 231.22 25.6331C230.418 19.2173 225.847 18.8163 224.724 18.8163H224.403L224.484 38.3844V38.9458L224.403 45.6022ZM271.002 60.9198L269.799 54.7446L268.516 47.2863C260.736 47.5269 262.02 47.4467 260.897 47.5269L258.892 55.8674L257.849 60.3584H257.689C256.005 60.3584 247.344 60.2782 245.098 60.1178L247.023 52.5793C248.065 48.5695 249.028 44.5596 250.15 40.6299C252.396 32.6102 254.561 24.5103 257.208 16.5708L260.817 5.74423L277.337 5.26304C277.658 6.94718 278.701 13.3629 279.342 17.6936C279.984 21.8638 280.465 26.1143 281.026 30.2845C281.828 35.9785 282.47 41.7527 283.512 47.3665L285.999 60.8396L282.951 60.9198H271.002ZM263.864 34.6152H268.275L266.43 26.5955L263.864 34.6152ZM321.689 63.1653C320.647 60.2782 317.76 50.2536 315.675 42.2339L314.792 38.8656C307.815 56.9901 307.254 57.3109 306.211 61.3208L290.011 61.7218C290.092 50.4942 290.172 38.7854 290.172 27.5578V4.54127C293.139 4.54127 298.192 4.54127 301.239 4.46107C301.8 28.44 301.8 25.0717 301.64 27.1568C302.763 24.9113 307.655 13.9243 309.74 8.47092L311.344 4.22048L318.963 4.06008L319.524 7.02738C322.812 24.4301 322.892 23.7886 324.416 29.7231C325.459 22.1044 327.624 6.14521 328.025 3.89969L341.658 3.97989C341.257 8.87191 340.054 18.9767 339.333 29.4024C339.012 32.8508 338.851 36.3795 338.691 39.828L338.21 47.2061C337.809 52.1783 337.328 57.9525 336.847 62.9247L327.704 63.3257L321.689 63.1653ZM366.781 60.9198L365.578 54.7446L364.295 47.2863C356.516 47.5269 357.799 47.4467 356.676 47.5269L354.671 55.8674L353.628 60.3584H353.468C351.784 60.3584 343.123 60.2782 340.877 60.1178L342.802 52.5793C343.844 48.5695 344.807 44.5596 345.93 40.6299C348.175 32.6102 350.34 24.5103 352.987 16.5708L356.596 5.74423L373.116 5.26304C373.437 6.94718 374.48 13.3629 375.121 17.6936C375.763 21.8638 376.244 26.1143 376.805 30.2845C377.607 35.9785 378.249 41.7527 379.291 47.3665L381.778 60.8396L378.73 60.9198H366.781ZM359.643 34.6152H364.054L362.21 26.5955L359.643 34.6152ZM386.673 60.7594C386.593 59.1555 386.352 48.9704 386.272 44.0784C386.192 40.229 386.272 36.2993 386.192 32.4498C386.111 26.7559 385.951 21.1421 385.871 15.4481L385.791 5.66402C386.994 5.58383 386.272 5.50363 399.264 5.42344C410.491 5.34324 415.223 5.34324 419.313 5.26304V16.9718C415.463 17.2124 402.632 17.2124 399.665 17.453V26.1945C400.868 26.1143 399.344 26.1945 409.689 25.7935V28.44L409.769 34.134V35.0963L402.552 35.4973C402.071 35.5775 401.509 35.6577 400.868 35.6577V43.5972L406.562 43.3566C410.331 43.1963 415.704 43.1161 419.473 43.1161L419.554 44.72C419.714 49.6922 419.794 53.5417 419.794 56.4288V60.5188L415.544 60.7594C414.662 60.8396 413.86 60.7594 412.977 60.7594H386.673Z" fill="white"/>
<path d="M30.1066 60.9198L27.5673 61.4145L27.9749 63.5068H30.1066V60.9198ZM28.9037 54.7446L26.3541 55.1833L26.3589 55.2113L26.3644 55.2393L28.9037 54.7446ZM27.6205 47.2863L30.17 46.8477L29.7887 44.631L27.5405 44.7005L27.6205 47.2863ZM20.0018 47.5269L19.8175 44.9465L17.9289 45.0814L17.4864 46.9222L20.0018 47.5269ZM17.9969 55.8674L15.4815 55.2627L15.4791 55.2726L15.4769 55.2824L17.9969 55.8674ZM16.9543 60.3584V62.9454H19.0095L19.4743 60.9434L16.9543 60.3584ZM4.20296 60.1178L1.69636 59.4779L0.930451 62.4777L4.01864 62.6983L4.20296 60.1178ZM6.12769 52.5793L3.6239 51.9283L3.62109 51.9393L6.12769 52.5793ZM9.25537 40.6299L11.7429 41.3407L11.7466 41.3275L9.25537 40.6299ZM16.3127 16.5708L18.767 17.3889V17.3889L16.3127 16.5708ZM19.9216 5.74423L19.8463 3.15832L18.0391 3.21096L17.4673 4.92614L19.9216 5.74423ZM36.4422 5.26304L38.9835 4.77898L38.5709 2.61294L36.3669 2.67713L36.4422 5.26304ZM38.4471 17.6936L35.888 18.0727L35.8891 18.0798L35.8902 18.087L38.4471 17.6936ZM40.1312 30.2845L37.5674 30.6297L37.5684 30.6375L37.5695 30.6453L40.1312 30.2845ZM42.6173 47.3665L45.1614 46.8971L45.1609 46.8941L42.6173 47.3665ZM45.1035 60.8396L45.1715 63.4257L48.1966 63.3461L47.6475 60.3702L45.1035 60.8396ZM42.056 60.9198V63.5068H42.09L42.124 63.5059L42.056 60.9198ZM22.9691 34.6152L20.5051 33.8267L19.425 37.2022H22.9691V34.6152ZM27.3799 34.6152V37.2022H30.6295L29.9011 34.0353L27.3799 34.6152ZM25.5354 26.5955L28.0566 26.0156L25.944 16.8304L23.0715 25.807L25.5354 26.5955ZM30.1066 60.9198L32.6459 60.4251L31.4429 54.25L28.9037 54.7446L26.3644 55.2393L27.5673 61.4145L30.1066 60.9198ZM28.9037 54.7446L31.4532 54.306L30.17 46.8477L27.6205 47.2863L25.071 47.7249L26.3541 55.1833L28.9037 54.7446ZM27.6205 47.2863L27.5405 44.7005C19.8724 44.9377 21.007 44.8615 19.8175 44.9465L20.0018 47.5269L20.1861 50.1073C21.242 50.0319 19.8104 50.1161 27.7005 49.8721L27.6205 47.2863ZM20.0018 47.5269L17.4864 46.9222L15.4815 55.2627L17.9969 55.8674L20.5122 56.472L22.5171 48.1315L20.0018 47.5269ZM17.9969 55.8674L15.4769 55.2824L14.4343 59.7734L16.9543 60.3584L19.4743 60.9434L20.5168 56.4524L17.9969 55.8674ZM16.9543 60.3584V57.7714H16.7939V60.3584V62.9454H16.9543V60.3584ZM16.7939 60.3584V57.7714C15.0798 57.7714 6.52107 57.6898 4.38727 57.5374L4.20296 60.1178L4.01864 62.6983C6.37588 62.8666 15.1397 62.9454 16.7939 62.9454V60.3584ZM4.20296 60.1178L6.70955 60.7578L8.63428 53.2193L6.12769 52.5793L3.62109 51.9393L1.69636 59.4779L4.20296 60.1178ZM6.12769 52.5793L8.63144 53.2303C9.69089 49.1555 10.6309 45.2323 11.7428 41.3406L9.25537 40.6299L6.76791 39.9192C5.63429 43.8869 4.64961 47.9834 3.62393 51.9283L6.12769 52.5793ZM9.25537 40.6299L11.7466 41.3275C14.0038 33.2658 16.1462 25.2513 18.767 17.3889L16.3127 16.5708L13.8585 15.7527C11.1863 23.7694 8.99796 31.9546 6.76418 39.9324L9.25537 40.6299ZM16.3127 16.5708L18.767 17.3889L22.3758 6.56231L19.9216 5.74423L17.4673 4.92614L13.8585 15.7527L16.3127 16.5708ZM19.9216 5.74423L19.9969 8.33013L36.5175 7.84894L36.4422 5.26304L36.3669 2.67713L19.8463 3.15832L19.9216 5.74423ZM36.4422 5.26304L33.9009 5.7471C34.2111 7.37596 35.2473 13.7477 35.888 18.0727L38.4471 17.6936L41.0062 17.3145C40.3638 12.9782 39.3148 6.5184 38.9835 4.77898L36.4422 5.26304ZM38.4471 17.6936L35.8902 18.087C36.5278 22.2315 36.9953 26.3802 37.5674 30.6297L40.1312 30.2845L42.6951 29.9394C42.1444 25.8484 41.6496 21.4962 41.004 17.3002L38.4471 17.6936ZM40.1312 30.2845L37.5695 30.6453C38.357 36.2367 39.0177 42.1522 40.0738 47.8389L42.6173 47.3665L45.1609 46.8941C44.1318 41.3533 43.5094 35.7204 42.693 29.9237L40.1312 30.2845ZM42.6173 47.3665L40.0733 47.8359L42.5594 61.309L45.1035 60.8396L47.6475 60.3702L45.1614 46.8971L42.6173 47.3665ZM45.1035 60.8396L45.0354 58.2535L41.9879 58.3337L42.056 60.9198L42.124 63.5059L45.1715 63.4257L45.1035 60.8396ZM42.056 60.9198V58.3328H30.1066V60.9198V63.5068H42.056V60.9198ZM22.9691 34.6152V37.2022H27.3799V34.6152V32.0282H22.9691V34.6152ZM27.3799 34.6152L29.9011 34.0353L28.0566 26.0156L25.5354 26.5955L23.0142 27.1753L24.8587 35.195L27.3799 34.6152ZM25.5354 26.5955L23.0715 25.807L20.5051 33.8267L22.9691 34.6152L25.433 35.4036L27.9993 27.3839L25.5354 26.5955ZM49.5174 60.4386L46.9305 60.4581L46.9464 62.5626L49.0101 62.9754L49.5174 60.4386ZM49.357 39.1864L46.7701 39.2047L46.7701 39.2059L49.357 39.1864ZM49.1164 5.26304L48.6091 2.72627L46.5144 3.14522L46.5295 5.28139L49.1164 5.26304ZM72.0528 30.6855L70.1193 28.9668L67.8025 31.5731L70.9687 33.0344L72.0528 30.6855ZM59.6223 25.0717H57.0353V27.8433L59.8003 27.6526L59.6223 25.0717ZM59.6223 15.8491L59.4074 13.271L57.0353 13.4687V15.8491H59.6223ZM61.3866 48.6497H58.7996V50.9334L61.0657 51.2167L61.3866 48.6497ZM61.3866 42.2339V39.6469H58.7996V42.2339H61.3866ZM60.8252 61.3208V58.7338C58.4182 58.7338 55.7848 58.5417 53.6797 58.3351C52.6328 58.2324 51.7295 58.1274 51.0673 58.0437C50.3548 57.9537 50.015 57.8999 50.0248 57.9019L49.5174 60.4386L49.0101 62.9754C49.5811 63.0896 55.6055 63.9078 60.8252 63.9078V61.3208ZM49.5174 60.4386L52.1044 60.4191L51.944 39.1669L49.357 39.1864L46.7701 39.2059L46.9305 60.4581L49.5174 60.4386ZM49.357 39.1864L51.944 39.1681L51.7034 5.24469L49.1164 5.26304L46.5295 5.28139L46.7701 39.2047L49.357 39.1864ZM49.1164 5.26304L49.6238 7.7998C49.6162 7.80133 49.6717 7.7908 49.8135 7.76877C49.9427 7.74869 50.1203 7.72264 50.342 7.69273C50.7852 7.63294 51.395 7.55898 52.134 7.487C53.6147 7.34278 55.5939 7.20847 57.7777 7.20847V4.62147V2.03446C53.0417 2.03446 49.1825 2.61159 48.6091 2.72627L49.1164 5.26304ZM57.7777 4.62147V7.20847C66.3339 7.20847 70.3441 9.21788 72.2485 11.1222C74.1288 13.0026 74.438 15.2601 74.438 16.9718H77.025H79.612C79.612 14.6737 79.1994 10.756 75.9071 7.46366C72.6387 4.1953 67.0253 2.03446 57.7777 2.03446V4.62147ZM77.025 16.9718H74.438C74.438 17.2887 74.4222 17.5841 74.4033 17.8779C74.3878 18.1186 74.3578 18.5068 74.3578 18.8163H76.9448H79.5318C79.5318 18.7249 79.542 18.5918 79.5666 18.211C79.5877 17.8833 79.612 17.4568 79.612 16.9718H77.025ZM76.9448 18.8163H74.3578C74.3578 22.5914 73.5479 24.7155 72.7707 25.9914C71.8452 27.5105 71.2229 27.7252 70.1193 28.9668L72.0528 30.6855L73.9864 32.4042C74.1658 32.2023 75.9895 30.6526 77.1893 28.6832C78.5373 26.4704 79.5318 23.3818 79.5318 18.8163H76.9448ZM72.0528 30.6855L70.9687 33.0344C72.3097 33.6533 74.2511 34.2237 76.1267 36.0417C77.8702 37.7317 79.6508 40.6718 79.6508 46.1635H82.2378H84.8248C84.8248 39.3852 82.5555 35.0674 79.7278 32.3265C77.0322 29.7137 73.881 28.68 73.1369 28.3366L72.0528 30.6855ZM82.2378 46.1635H79.6508C79.6508 48.6214 79.0454 51.6428 76.6644 54.0632C74.2914 56.4756 69.7179 58.7338 60.8252 58.7338V61.3208V63.9078C70.5382 63.9078 76.6711 61.4344 80.3529 57.6916C84.0268 53.9569 84.8248 49.3996 84.8248 46.1635H82.2378ZM59.6223 25.0717L59.8003 27.6526C62.6927 27.4531 64.8272 26.3875 66.2151 24.7737C67.5542 23.2166 67.9835 21.3978 67.9835 20.0193H65.3964H62.8094C62.8094 20.4051 62.6773 20.9522 62.2922 21.4C61.9558 21.7911 61.2032 22.3695 59.4443 22.4908L59.6223 25.0717ZM65.3964 20.0193H67.9835C67.9835 16.4552 64.6368 12.8352 59.4074 13.271L59.6223 15.8491L59.8371 18.4271C62.3066 18.2213 62.8094 19.7339 62.8094 20.0193H65.3964ZM59.6223 15.8491H57.0353V25.0717H59.6223H62.2093V15.8491H59.6223ZM61.3866 48.6497L61.0657 51.2167C61.8876 51.3194 62.5993 51.3169 63.1509 51.3169V48.7299V46.1428C62.5798 46.1428 62.1687 46.1403 61.7075 46.0826L61.3866 48.6497ZM63.1509 48.7299V51.3169C65.1851 51.3169 66.9826 50.9873 68.3657 50.1874C69.856 49.3256 70.8705 47.8811 70.8705 46.0833H68.2835H65.6965C65.6965 45.97 65.7321 45.8349 65.8012 45.7254C65.8632 45.6272 65.895 45.6393 65.7754 45.7085C65.4945 45.8709 64.7257 46.1428 63.1509 46.1428V48.7299ZM68.2835 46.0833H70.8705C70.8705 43.9544 69.409 42.2975 67.8704 41.316C66.2321 40.2708 64.0489 39.6469 61.547 39.6469V42.2339V44.8209C63.2153 44.8209 64.4004 45.2395 65.0878 45.678C65.875 46.1802 65.6965 46.4479 65.6965 46.0833H68.2835ZM61.547 42.2339V39.6469H61.3866V42.2339V44.8209H61.547V42.2339ZM61.3866 42.2339H58.7996V48.6497H61.3866H63.9736V42.2339H61.3866ZM88.7626 11.358L91.0765 12.515L91.0802 12.5076L91.0838 12.5002L88.7626 11.358ZM121.323 22.0242L123.903 21.8399L123.902 21.8236L123.901 21.8074L121.323 22.0242ZM121.082 45.0408L123.657 45.2929L123.658 45.2819L123.659 45.2709L121.082 45.0408ZM106.887 33.9736L104.301 33.9037L104.301 33.9064L106.887 33.9736ZM106.967 31.0063L104.381 30.9291L104.381 30.9364L106.967 31.0063ZM103.358 61.802V59.215C99.0326 59.215 96.1591 57.9263 94.1727 56.147C92.1364 54.3231 90.8206 51.7912 90.0024 48.9956C88.3345 43.297 88.9437 37.464 88.9437 36.1389H86.3567H83.7697C83.7697 36.1382 83.7697 36.1491 83.7689 36.1768C83.7682 36.2033 83.767 36.2379 83.7651 36.2826C83.7614 36.3737 83.7559 36.4864 83.7488 36.6297C83.7349 36.9108 83.7161 37.2823 83.6995 37.7188C83.6662 38.5942 83.6409 39.7408 83.6753 41.062C83.7438 43.6871 84.0491 47.0748 85.0367 50.449C86.0229 53.8185 87.7346 57.3265 90.7206 60.0011C93.7565 62.7204 97.9003 64.389 103.358 64.389V61.802ZM86.3567 36.1389H88.9437C88.9437 29.1437 88.7847 24.6632 88.9993 21.0446C89.205 17.5765 89.748 15.1721 91.0765 12.515L88.7626 11.358L86.4487 10.2011C84.7298 13.639 84.0698 16.7681 83.8344 20.7383C83.6079 24.558 83.7697 29.4204 83.7697 36.1389H86.3567ZM88.7626 11.358L91.0838 12.5002C93.0503 8.50385 98.2029 5.68472 103.198 5.68472V3.09772V0.510716C96.6449 0.510716 89.4472 4.10736 86.4414 10.2158L88.7626 11.358ZM103.198 3.09772V5.68472C109.431 5.68472 112.976 7.94091 115.14 10.8779C117.419 13.9699 118.399 18.136 118.745 22.2411L121.323 22.0242L123.901 21.8074C123.524 17.3314 122.42 12.0342 119.305 7.80826C116.076 3.42723 110.919 0.510716 103.198 0.510716V3.09772ZM121.323 22.0242L118.742 22.2085C118.814 23.2076 118.856 27.7204 118.826 32.6746C118.796 37.6167 118.694 42.6936 118.505 44.8107L121.082 45.0408L123.659 45.2709C123.871 42.8969 123.97 37.5884 124 32.7063C124.03 27.8363 123.992 23.0864 123.903 21.8399L121.323 22.0242ZM121.082 45.0408L118.507 44.7887C117.964 50.3393 116.703 53.7836 114.598 55.896C112.547 57.9544 109.216 59.215 103.358 59.215V61.802V64.389C109.851 64.389 114.821 63.0031 118.263 59.5479C121.652 56.1467 123.077 51.2104 123.657 45.2929L121.082 45.0408ZM99.5892 37.1013H97.0022C97.0022 37.792 97.0645 39.7902 97.5994 41.699C97.8646 42.6452 98.3021 43.7804 99.0738 44.7257C99.9045 45.7433 101.178 46.5852 102.877 46.5852V43.9982V41.4112C103.053 41.4112 103.153 41.5414 103.082 41.4538C102.951 41.2939 102.757 40.9304 102.581 40.3027C102.234 39.0638 102.176 37.6135 102.176 37.1013H99.5892ZM102.877 43.9982V46.5852H103.038V43.9982V41.4112H102.877V43.9982ZM103.038 43.9982V46.5852C104.406 46.5852 105.662 46.128 106.665 45.1936C107.6 44.323 108.152 43.1916 108.506 42.0983C109.197 39.9632 109.394 37.1046 109.473 34.0408L106.887 33.9736L104.301 33.9064C104.22 37.0177 104.015 39.1715 103.584 40.5049C103.376 41.1459 103.187 41.3628 103.139 41.4069C103.127 41.4189 103.135 41.4091 103.155 41.4017C103.171 41.3955 103.142 41.4112 103.038 41.4112V43.9982ZM106.887 33.9736L109.473 34.0435L109.553 31.0762L106.967 31.0063L104.381 30.9364L104.301 33.9037L106.887 33.9736ZM106.967 31.0063L109.553 31.0835C109.715 25.6484 109.336 22.0125 108.446 19.6494C107.987 18.4288 107.327 17.3699 106.365 16.6241C105.362 15.8467 104.263 15.5878 103.278 15.5878V18.1748V20.7618C103.336 20.7618 103.259 20.7634 103.194 20.7129C103.17 20.6938 103.361 20.8278 103.604 21.4718C104.118 22.838 104.54 25.6178 104.381 30.9291L106.967 31.0063ZM103.278 18.1748V15.5878C101.597 15.5878 100.126 16.1438 99.0312 17.2713C98.0119 18.3212 97.5485 19.6336 97.3171 20.7453C96.8839 22.8272 97.0824 25.4669 97.0824 26.5955H99.6694H102.256C102.256 24.7567 102.094 23.186 102.383 21.7994C102.512 21.1769 102.68 20.9405 102.744 20.8752C102.764 20.8544 102.782 20.8398 102.825 20.8231C102.875 20.8035 103.01 20.7618 103.278 20.7618V18.1748ZM99.6694 26.5955H97.0824C97.0824 30.2834 97.0774 32.5483 97.0699 33.9295C97.0662 34.6207 97.0618 35.0852 97.0573 35.3936C97.055 35.5479 97.0528 35.6582 97.0507 35.7355C97.0485 35.8187 97.0469 35.8438 97.0473 35.8372C97.0476 35.8335 97.0482 35.8233 97.0495 35.8082C97.0507 35.7944 97.0531 35.7674 97.0574 35.732C97.061 35.7019 97.0698 35.6341 97.0872 35.5472C97.0948 35.5091 97.1422 35.2563 97.2807 34.9617C97.3395 34.8366 97.532 34.4408 97.9543 34.0852C98.4978 33.6273 99.4317 33.261 100.467 33.6194C101.242 33.888 101.635 34.4309 101.744 34.5872C101.894 34.8031 101.976 34.9935 102.012 35.0794C102.086 35.2602 102.121 35.4081 102.131 35.4488C102.146 35.5102 102.155 35.5585 102.159 35.5813C102.165 35.6143 102.183 35.7312 102.165 35.6135C102.165 35.609 102.15 35.5073 102.122 35.3883C102.116 35.3646 102.067 35.141 101.946 34.8824C101.909 34.8032 101.712 34.3673 101.255 33.9879C100.992 33.7696 100.527 33.4753 99.876 33.406C99.1824 33.3321 98.5869 33.5459 98.1667 33.826C97.4948 34.274 97.251 34.8945 97.2176 34.9738C97.1362 35.1665 97.0967 35.3267 97.0807 35.3954C97.0461 35.544 97.0325 35.6638 97.0282 35.7016C97.0175 35.7968 97.0137 35.8776 97.0123 35.9083C97.0088 35.986 97.007 36.0748 97.0059 36.1615C97.0034 36.3452 97.0022 36.6398 97.0022 37.1013H99.5892H102.176C102.176 36.6405 102.177 36.3763 102.179 36.2304C102.18 36.1522 102.181 36.1336 102.181 36.1444C102.181 36.1494 102.18 36.1624 102.179 36.1808C102.178 36.1968 102.175 36.2324 102.17 36.2791C102.166 36.3093 102.154 36.4235 102.12 36.5683C102.104 36.635 102.065 36.7937 101.985 36.9853C101.952 37.0635 101.708 37.6834 101.037 38.131C100.617 38.411 100.022 38.6247 99.3282 38.5509C98.6771 38.4815 98.2131 38.1874 97.9502 37.9693C97.4936 37.5903 97.297 37.1551 97.2604 37.0769C97.1403 36.8204 97.0919 36.6001 97.0873 36.5807C97.0713 36.5133 97.0619 36.4607 97.0584 36.4407C97.054 36.416 97.0512 36.3975 97.0502 36.3907C97.0366 36.3013 97.0591 36.4536 97.0698 36.5123C97.0752 36.5416 97.0855 36.5957 97.1015 36.662C97.1125 36.7076 97.1494 36.8596 97.2248 37.0434C97.2606 37.1307 97.3439 37.3224 97.4944 37.5391C97.6036 37.6963 97.9972 38.2397 98.7733 38.5085C99.8089 38.8672 100.743 38.5007 101.288 38.0424C101.71 37.6862 101.904 37.2895 101.963 37.1631C102.103 36.8659 102.151 36.6088 102.16 36.5645C102.179 36.4714 102.189 36.3955 102.194 36.3551C102.204 36.2718 102.209 36.1998 102.211 36.1599C102.238 35.7333 102.256 33.9016 102.256 26.5955H99.6694ZM165.252 61H162.665V63.587H165.252V61ZM165.252 20.4203H167.839V17.8333H165.252V20.4203ZM146.647 20.4203L144.07 20.1929L143.821 23.0073H146.647V20.4203ZM147.85 6.78678L147.775 4.20087L145.475 4.26753L145.273 6.5594L147.85 6.78678ZM192.118 5.50363H194.705V2.84056L192.044 2.91772L192.118 5.50363ZM192.118 9.27289H189.531V9.29178L189.532 9.31066L192.118 9.27289ZM192.279 20.2599L192.503 22.8372L194.901 22.6287L194.866 20.2221L192.279 20.2599ZM180.971 20.4203V17.8333H178.384V20.4203H180.971ZM180.971 61V63.587H183.558V61H180.971ZM126.116 7.02738V4.44037H124.252L123.662 6.2093L126.116 7.02738ZM139.108 7.02738H141.695V4.44037H139.108V7.02738ZM141.835 44.5596L141.996 47.1416L142.023 47.1399L142.05 47.1377L141.835 44.5596ZM145.684 33.1716L143.11 32.9204L143.108 32.9368L143.107 32.9532L145.684 33.1716ZM146.326 23.2272V20.6402H143.917L143.745 23.0429L146.326 23.2272ZM158.596 23.2272H161.183V20.6402H158.596V23.2272ZM158.596 31.0865L156.018 30.8717L156.014 30.9244L156.011 30.9773L158.596 31.0865ZM157.634 48.0883L160.19 48.4844L160.193 48.4693L160.195 48.4541L157.634 48.0883ZM147.85 60.5188L146.777 58.1649L146.772 58.1671L147.85 60.5188ZM125.314 46.9655L122.729 47.0649L122.729 47.0724L122.73 47.0799L125.314 46.9655ZM165.252 61H167.839V20.4203H165.252H162.665V61H165.252ZM165.252 20.4203V17.8333H146.647V20.4203V23.0073H165.252V20.4203ZM146.647 20.4203L149.224 20.6477L150.427 7.01416L147.85 6.78678L145.273 6.5594L144.07 20.1929L146.647 20.4203ZM147.85 6.78678L147.925 9.3727L192.193 8.08955L192.118 5.50363L192.044 2.91772L147.775 4.20087L147.85 6.78678ZM192.118 5.50363H189.531V9.27289H192.118H194.705V5.50363H192.118ZM192.118 9.27289L189.532 9.31066L189.692 20.2977L192.279 20.2599L194.866 20.2221L194.705 9.23513L192.118 9.27289ZM192.279 20.2599L192.055 17.6826C190.342 17.8315 190.94 17.8333 184.019 17.8333V20.4203V23.0073C190.891 23.0073 190.526 23.0091 192.503 22.8372L192.279 20.2599ZM184.019 20.4203V17.8333H180.971V20.4203V23.0073H184.019V20.4203ZM180.971 20.4203H178.384V61H180.971H183.558V20.4203H180.971ZM180.971 61V58.413H165.252V61V63.587H180.971V61ZM124.994 30.3647H127.581C127.581 22.6834 127.839 16.9695 128.106 13.1625C128.239 11.2586 128.374 9.83443 128.478 8.88192C128.531 8.40482 128.575 8.05146 128.608 7.81886C128.624 7.70122 128.636 7.62374 128.643 7.58125C128.668 7.42788 128.645 7.6213 128.571 7.84545L126.116 7.02738L123.662 6.2093C123.6 6.39484 123.569 6.56399 123.568 6.57134C123.556 6.629 123.546 6.68655 123.538 6.73688C123.521 6.83999 123.502 6.96598 123.482 7.10992C123.442 7.40048 123.392 7.80272 123.336 8.31555C123.222 9.34291 123.082 10.8359 122.944 12.8015C122.669 16.7336 122.407 22.568 122.407 30.3647H124.994ZM126.116 7.02738V9.61438H139.108V7.02738V4.44037H126.116V7.02738ZM139.108 7.02738H136.521V13.7639H139.108H141.695V7.02738H139.108ZM139.108 13.7639H136.521C136.521 17.1143 136.481 20.4873 136.441 23.8782C136.401 27.264 136.361 30.6676 136.361 34.0538H138.948H141.535C141.535 30.7034 141.575 27.3304 141.615 23.9395C141.655 20.5538 141.695 17.1501 141.695 13.7639H139.108ZM138.948 34.0538H136.361C136.361 36.9914 136.433 39.9186 136.897 42.1253C137.127 43.2136 137.506 44.4197 138.242 45.3869C139.085 46.4937 140.378 47.2427 141.996 47.1416L141.835 44.5596L141.674 41.9776C141.768 41.9718 141.937 41.9881 142.12 42.0781C142.29 42.1622 142.362 42.2568 142.36 42.2537C142.314 42.1934 142.132 41.8757 141.96 41.0594C141.623 39.4567 141.535 37.0508 141.535 34.0538H138.948ZM141.835 44.5596L142.05 47.1377C142.941 47.0634 143.932 46.7741 144.827 46.0004C145.663 45.2781 146.207 44.3105 146.601 43.269C147.364 41.25 147.862 38.1124 148.262 33.3901L145.684 33.1716L143.107 32.9532C142.705 37.6941 142.241 40.1703 141.761 41.4394C141.533 42.0419 141.385 42.1369 141.444 42.0863C141.562 41.9842 141.691 41.9756 141.62 41.9815L141.835 44.5596ZM145.684 33.1716L148.259 33.4228C148.581 30.1276 148.68 26.5819 148.906 23.4115L146.326 23.2272L143.745 23.0429C143.491 26.609 143.43 29.6395 143.11 32.9204L145.684 33.1716ZM146.326 23.2272V25.8142H158.596V23.2272V20.6402H146.326V23.2272ZM158.596 23.2272H156.009C156.009 24.1059 156.03 24.959 156.05 25.7764C156.07 26.6031 156.089 27.3939 156.089 28.1994H158.676H161.263C161.263 27.3207 161.242 26.4675 161.222 25.6502C161.202 24.8235 161.183 24.0326 161.183 23.2272H158.596ZM158.676 28.1994H156.089C156.089 29.1795 156.088 30.0343 156.018 30.8717L158.596 31.0865L161.174 31.3013C161.265 30.214 161.263 29.144 161.263 28.1994H158.676ZM158.596 31.0865L156.011 30.9773C155.763 36.8668 155.85 42.2785 155.073 47.7224L157.634 48.0883L160.195 48.4541C161.021 42.6704 160.948 36.6941 161.181 31.1957L158.596 31.0865ZM157.634 48.0883L155.077 47.6922C154.341 52.4411 151.518 56.0032 146.777 58.1649L147.85 60.5188L148.923 62.8727C155.088 60.0622 159.162 55.1234 160.19 48.4844L157.634 48.0883ZM147.85 60.5188L146.772 58.1671C145.234 58.872 143.445 59.215 141.674 59.215V61.802V64.389C144.074 64.389 146.616 63.9299 148.928 62.8706L147.85 60.5188ZM141.674 61.802V59.215C134.817 59.215 128.226 54.2469 127.899 46.8512L125.314 46.9655L122.73 47.0799C123.205 57.8087 132.653 64.389 141.674 64.389V61.802ZM125.314 46.9655L127.899 46.8661C127.66 40.6478 127.581 35.0674 127.581 30.3647H124.994H122.407C122.407 35.1253 122.487 40.7725 122.729 47.0649L125.314 46.9655ZM214.138 60.6792H211.551V63.2662H214.138V60.6792ZM214.138 55.0654H216.725V55.0418L216.725 55.0182L214.138 55.0654ZM213.737 33.0914L211.15 33.1063L211.15 33.1225L211.151 33.1386L213.737 33.0914ZM213.577 5.18284V2.59584H210.975L210.99 5.19771L213.577 5.18284ZM228.413 5.26304L228.555 2.6799L228.536 2.67886L228.517 2.6781L228.413 5.26304ZM241.325 13.2827L238.894 14.1668L238.916 14.2289L238.942 14.2897L241.325 13.2827ZM244.773 30.8459L242.191 31.0073L242.192 31.0221L242.194 31.037L244.773 30.8459ZM229.135 59.2357L228.458 56.7387L228.451 56.7408L228.443 56.743L229.135 59.2357ZM224.403 45.6022L221.817 45.571L221.777 48.8181L224.951 48.1305L224.403 45.6022ZM230.739 38.7052L228.212 38.1524L228.198 38.2158L228.187 38.2799L230.739 38.7052ZM231.22 25.6331L233.797 25.3989L233.793 25.3555L233.787 25.3122L231.22 25.6331ZM224.403 18.8163V16.2293H221.806L221.816 18.8269L224.403 18.8163ZM224.484 38.3844H227.071L227.071 38.3738L224.484 38.3844ZM224.484 38.9458L227.07 38.977L227.071 38.9614V38.9458H224.484ZM217.907 60.7594V58.1724C217.273 58.1724 216.67 58.1538 216.046 58.1337C215.435 58.1139 214.789 58.0922 214.138 58.0922V60.6792V63.2662C214.69 63.2662 215.248 63.2846 215.879 63.305C216.499 63.3249 217.179 63.3464 217.907 63.3464V60.7594ZM214.138 60.6792H216.725V55.0654H214.138H211.551V60.6792H214.138ZM214.138 55.0654L216.725 55.0182L216.324 33.0442L213.737 33.0914L211.151 33.1386L211.552 55.1126L214.138 55.0654ZM213.737 33.0914L216.324 33.0766L216.164 5.16798L213.577 5.18284L210.99 5.19771L211.15 33.1063L213.737 33.0914ZM213.577 5.18284V7.76985C213.637 7.76985 214.632 7.74874 215.989 7.72949C217.395 7.70955 219.287 7.68965 221.276 7.68965V5.10265V2.51565C219.255 2.51565 217.337 2.53585 215.916 2.556C215.205 2.56609 214.617 2.57617 214.203 2.58374C213.752 2.59196 213.566 2.59584 213.577 2.59584V5.18284ZM221.276 5.10265V7.68965C223.713 7.68965 226.322 7.76845 228.31 7.84797L228.413 5.26304L228.517 2.6781C226.495 2.59724 223.81 2.51565 221.276 2.51565V5.10265ZM228.413 5.26304L228.272 7.84618C232.813 8.09452 235.369 9.64132 236.809 11.0208C238.287 12.4367 238.782 13.8592 238.894 14.1668L241.325 13.2827L243.756 12.3987C243.547 11.8242 242.719 9.51746 240.388 7.2844C238.019 5.01491 234.279 2.99294 228.555 2.6799L228.413 5.26304ZM241.325 13.2827L238.942 14.2897C240.022 16.8447 240.805 20.347 241.337 23.6489C241.863 26.9128 242.116 29.7955 242.191 31.0073L244.773 30.8459L247.355 30.6845C247.271 29.33 247.002 26.2781 246.445 22.8255C245.895 19.4109 245.034 15.4148 243.708 12.2758L241.325 13.2827ZM244.773 30.8459L242.194 31.037C242.356 33.2297 242.507 35.2115 242.507 37.1013H245.094H247.681C247.681 34.9812 247.512 32.7927 247.353 30.6548L244.773 30.8459ZM245.094 37.1013H242.507C242.507 42.75 241.644 46.834 239.624 49.8598C237.646 52.824 234.293 55.1577 228.458 56.7387L229.135 59.2357L229.812 61.7326C236.408 59.9454 241.035 57.0662 243.928 52.7325C246.78 48.4604 247.681 43.1613 247.681 37.1013H245.094ZM229.135 59.2357L228.443 56.743C224.377 57.8723 220.927 58.1724 217.907 58.1724V60.7594V63.3464C221.304 63.3464 225.231 63.0049 229.827 61.7283L229.135 59.2357ZM224.403 45.6022L224.951 48.1305C228.201 47.4264 230.261 45.4071 231.481 43.5382C232.672 41.7147 233.163 39.9001 233.291 39.1305L230.739 38.7052L228.187 38.2799C228.155 38.4727 227.883 39.5853 227.149 40.7091C226.445 41.7874 225.418 42.7354 223.856 43.0738L224.403 45.6022ZM230.739 38.7052L233.266 39.258C233.871 36.4914 234.128 33.7383 234.128 31.0865H231.541H228.954C228.954 33.4069 228.729 35.7864 228.212 38.1524L230.739 38.7052ZM231.541 31.0865H234.128C234.128 29.109 233.956 27.1546 233.797 25.3989L231.22 25.6331L228.644 25.8673C228.805 27.6402 228.954 29.375 228.954 31.0865H231.541ZM231.22 25.6331L233.787 25.3122C233.302 21.4347 231.595 19.0147 229.506 17.6519C227.533 16.3653 225.538 16.2293 224.724 16.2293V18.8163V21.4033C225.033 21.4033 225.885 21.4679 226.679 21.9857C227.356 22.4274 228.336 23.4157 228.653 25.954L231.22 25.6331ZM224.724 18.8163V16.2293H224.403V18.8163V21.4033H224.724V18.8163ZM224.403 18.8163L221.816 18.8269L221.897 38.395L224.484 38.3844L227.071 38.3738L226.99 18.8057L224.403 18.8163ZM224.484 38.3844H221.897V38.9458H224.484H227.071V38.3844H224.484ZM224.484 38.9458L221.897 38.9146L221.817 45.571L224.403 45.6022L226.99 45.6333L227.07 38.977L224.484 38.9458ZM271.002 60.9198L268.462 61.4145L268.87 63.5068H271.002V60.9198ZM269.799 54.7446L267.249 55.1833L267.254 55.2113L267.259 55.2393L269.799 54.7446ZM268.516 47.2863L271.065 46.8477L270.684 44.631L268.436 44.7005L268.516 47.2863ZM260.897 47.5269L260.713 44.9465L258.824 45.0814L258.381 46.9222L260.897 47.5269ZM258.892 55.8674L256.377 55.2627L256.374 55.2726L256.372 55.2824L258.892 55.8674ZM257.849 60.3584V62.9454H259.905L260.369 60.9434L257.849 60.3584ZM245.098 60.1178L242.591 59.4779L241.826 62.4777L244.914 62.6983L245.098 60.1178ZM247.023 52.5793L244.519 51.9283L244.516 51.9393L247.023 52.5793ZM250.15 40.6299L252.638 41.3407L252.642 41.3275L250.15 40.6299ZM257.208 16.5708L259.662 17.3889V17.3889L257.208 16.5708ZM260.817 5.74423L260.741 3.15832L258.934 3.21096L258.362 4.92614L260.817 5.74423ZM277.337 5.26304L279.879 4.77898L279.466 2.61294L277.262 2.67713L277.337 5.26304ZM279.342 17.6936L276.783 18.0727L276.784 18.0798L276.785 18.087L279.342 17.6936ZM281.026 30.2845L278.462 30.6297L278.463 30.6375L278.465 30.6453L281.026 30.2845ZM283.512 47.3665L286.056 46.8971L286.056 46.8941L283.512 47.3665ZM285.999 60.8396L286.067 63.4257L289.092 63.3461L288.543 60.3702L285.999 60.8396ZM282.951 60.9198V63.5068H282.985L283.019 63.5059L282.951 60.9198ZM263.864 34.6152L261.4 33.8267L260.32 37.2022H263.864V34.6152ZM268.275 34.6152V37.2022H271.525L270.796 34.0353L268.275 34.6152ZM266.43 26.5955L268.952 26.0156L266.839 16.8304L263.966 25.807L266.43 26.5955ZM271.002 60.9198L273.541 60.4251L272.338 54.25L269.799 54.7446L267.259 55.2393L268.462 61.4145L271.002 60.9198ZM269.799 54.7446L272.348 54.306L271.065 46.8477L268.516 47.2863L265.966 47.7249L267.249 55.1833L269.799 54.7446ZM268.516 47.2863L268.436 44.7005C260.767 44.9377 261.902 44.8615 260.713 44.9465L260.897 47.5269L261.081 50.1073C262.137 50.0319 260.705 50.1161 268.596 49.8721L268.516 47.2863ZM260.897 47.5269L258.381 46.9222L256.377 55.2627L258.892 55.8674L261.407 56.472L263.412 48.1315L260.897 47.5269ZM258.892 55.8674L256.372 55.2824L255.329 59.7734L257.849 60.3584L260.369 60.9434L261.412 56.4524L258.892 55.8674ZM257.849 60.3584V57.7714H257.689V60.3584V62.9454H257.849V60.3584ZM257.689 60.3584V57.7714C255.975 57.7714 247.416 57.6898 245.282 57.5374L245.098 60.1178L244.914 62.6983C247.271 62.8666 256.035 62.9454 257.689 62.9454V60.3584ZM245.098 60.1178L247.605 60.7578L249.529 53.2193L247.023 52.5793L244.516 51.9393L242.591 59.4779L245.098 60.1178ZM247.023 52.5793L249.526 53.2303C250.586 49.1555 251.526 45.2323 252.638 41.3406L250.15 40.6299L247.663 39.9192C246.529 43.8869 245.545 47.9834 244.519 51.9283L247.023 52.5793ZM250.15 40.6299L252.642 41.3275C254.899 33.2658 257.041 25.2513 259.662 17.3889L257.208 16.5708L254.754 15.7527C252.081 23.7694 249.893 31.9546 247.659 39.9324L250.15 40.6299ZM257.208 16.5708L259.662 17.3889L263.271 6.56231L260.817 5.74423L258.362 4.92614L254.754 15.7527L257.208 16.5708ZM260.817 5.74423L260.892 8.33013L277.413 7.84894L277.337 5.26304L277.262 2.67713L260.741 3.15832L260.817 5.74423ZM277.337 5.26304L274.796 5.7471C275.106 7.37596 276.142 13.7477 276.783 18.0727L279.342 17.6936L281.901 17.3145C281.259 12.9782 280.21 6.5184 279.879 4.77898L277.337 5.26304ZM279.342 17.6936L276.785 18.087C277.423 22.2315 277.89 26.3802 278.462 30.6297L281.026 30.2845L283.59 29.9394C283.039 25.8484 282.545 21.4962 281.899 17.3002L279.342 17.6936ZM281.026 30.2845L278.465 30.6453C279.252 36.2367 279.913 42.1522 280.969 47.8389L283.512 47.3665L286.056 46.8941C285.027 41.3533 284.404 35.7204 283.588 29.9237L281.026 30.2845ZM283.512 47.3665L280.968 47.8359L283.454 61.309L285.999 60.8396L288.543 60.3702L286.056 46.8971L283.512 47.3665ZM285.999 60.8396L285.93 58.2535L282.883 58.3337L282.951 60.9198L283.019 63.5059L286.067 63.4257L285.999 60.8396ZM282.951 60.9198V58.3328H271.002V60.9198V63.5068H282.951V60.9198ZM263.864 34.6152V37.2022H268.275V34.6152V32.0282H263.864V34.6152ZM268.275 34.6152L270.796 34.0353L268.952 26.0156L266.43 26.5955L263.909 27.1753L265.754 35.195L268.275 34.6152ZM266.43 26.5955L263.966 25.807L261.4 33.8267L263.864 34.6152L266.328 35.4036L268.894 27.3839L266.43 26.5955ZM321.689 63.1653L319.256 64.044L319.856 65.7043L321.62 65.7514L321.689 63.1653ZM315.675 42.2339L318.178 41.5829L318.177 41.5784L315.675 42.2339ZM314.792 38.8656L317.295 38.2102L315.262 30.446L312.378 37.9362L314.792 38.8656ZM306.211 61.3208L306.275 63.907L308.224 63.8587L308.715 61.9718L306.211 61.3208ZM290.011 61.7218L287.425 61.7033L287.405 64.3741L290.076 64.308L290.011 61.7218ZM290.172 4.54127V1.95426H287.585V4.54127H290.172ZM301.239 4.46107L303.825 4.40052L303.765 1.80671L301.171 1.87496L301.239 4.46107ZM301.64 27.1568L299.061 26.9584L303.954 28.3138L301.64 27.1568ZM309.74 8.47092L312.156 9.39485L312.16 9.38428L309.74 8.47092ZM311.344 4.22048L311.289 1.63405L309.541 1.67086L308.923 3.30712L311.344 4.22048ZM318.963 4.06008L321.505 3.57918L321.097 1.42756L318.908 1.47366L318.963 4.06008ZM319.524 7.02738L322.066 6.54708L322.066 6.54647L319.524 7.02738ZM324.416 29.7231L321.91 30.3665L326.979 30.0739L324.416 29.7231ZM328.025 3.89969L328.04 1.31274L325.861 1.29992L325.478 3.44492L328.025 3.89969ZM341.658 3.97989L344.237 4.19123L344.465 1.40935L341.674 1.39293L341.658 3.97989ZM339.333 29.4024L341.909 29.642L341.911 29.6115L341.914 29.581L339.333 29.4024ZM338.691 39.828L341.273 39.9963L341.274 39.9723L341.275 39.9482L338.691 39.828ZM338.21 47.2061L340.789 47.4141L340.79 47.3943L340.791 47.3745L338.21 47.2061ZM336.847 62.9247L336.96 65.5092L339.205 65.4108L339.422 63.1739L336.847 62.9247ZM327.704 63.3257L327.635 65.9118L327.726 65.9142L327.817 65.9102L327.704 63.3257ZM321.689 63.1653L324.123 62.2867C323.126 59.526 320.265 49.6091 318.178 41.5829L315.675 42.2339L313.171 42.8849C315.254 50.898 318.168 61.0304 319.256 64.044L321.689 63.1653ZM315.675 42.2339L318.177 41.5784L317.295 38.2102L314.792 38.8656L312.29 39.521L313.172 42.8893L315.675 42.2339ZM314.792 38.8656L312.378 37.9362C308.897 46.9781 307.02 51.5716 305.876 54.4225C304.721 57.2976 304.271 58.5024 303.708 60.6698L306.211 61.3208L308.715 61.9718C309.194 60.1293 309.546 59.1688 310.677 56.3499C311.818 53.5068 313.71 48.8777 317.207 39.795L314.792 38.8656ZM306.211 61.3208L306.147 58.7346L289.947 59.1356L290.011 61.7218L290.076 64.308L306.275 63.907L306.211 61.3208ZM290.011 61.7218L292.598 61.7402C292.679 50.5136 292.759 38.796 292.759 27.5578H290.172H287.585C287.585 38.7748 287.505 50.4747 287.425 61.7033L290.011 61.7218ZM290.172 27.5578H292.759V4.54127H290.172H287.585V27.5578H290.172ZM290.172 4.54127V7.12827C293.125 7.12827 298.218 7.12848 301.307 7.04718L301.239 4.46107L301.171 1.87496C298.166 1.95405 293.153 1.95426 290.172 1.95426V4.54127ZM301.239 4.46107L298.653 4.52162C299.218 28.6553 299.208 25.0455 299.061 26.9584L301.64 27.1568L304.219 27.3553C304.393 25.098 304.383 28.2247 303.825 4.40052L301.239 4.46107ZM301.64 27.1568L303.954 28.3138C305.117 25.9871 310.043 14.9219 312.156 9.39484L309.74 8.47092L307.324 7.54701C305.267 12.9268 300.408 23.8356 299.326 25.9999L301.64 27.1568ZM309.74 8.47092L312.16 9.38428L313.764 5.13384L311.344 4.22048L308.923 3.30712L307.32 7.55756L309.74 8.47092ZM311.344 4.22048L311.398 6.80691L319.017 6.64651L318.963 4.06008L318.908 1.47366L311.289 1.63405L311.344 4.22048ZM318.963 4.06008L316.421 4.54099L316.982 7.50828L319.524 7.02738L322.066 6.54647L321.505 3.57918L318.963 4.06008ZM319.524 7.02738L316.982 7.50767C320.282 24.974 320.375 24.3874 321.91 30.3665L324.416 29.7231L326.922 29.0798C325.409 23.1897 325.342 23.8863 322.066 6.54708L319.524 7.02738ZM324.416 29.7231L326.979 30.0739C328.03 22.3945 330.183 6.531 330.572 4.35446L328.025 3.89969L325.478 3.44492C325.065 5.75942 322.887 21.8143 321.853 29.3724L324.416 29.7231ZM328.025 3.89969L328.01 6.48665L341.643 6.56685L341.658 3.97989L341.674 1.39293L328.04 1.31274L328.025 3.89969ZM341.658 3.97989L339.08 3.76855C338.697 8.44002 337.47 18.8568 336.752 29.2237L339.333 29.4024L341.914 29.581C342.639 19.0967 343.818 9.3038 344.237 4.19123L341.658 3.97989ZM339.333 29.4024L336.757 29.1627C336.429 32.6818 336.267 36.2726 336.107 39.7078L338.691 39.828L341.275 39.9482C341.436 36.4864 341.594 33.0198 341.909 29.642L339.333 29.4024ZM338.691 39.828L336.11 39.6596L335.628 47.0377L338.21 47.2061L340.791 47.3745L341.273 39.9963L338.691 39.828ZM338.21 47.2061L335.631 46.9981C335.23 51.9682 334.751 57.7251 334.272 62.6755L336.847 62.9247L339.422 63.1739C339.905 58.1799 340.387 52.3884 340.789 47.4141L338.21 47.2061ZM336.847 62.9247L336.733 60.3402L327.591 60.7412L327.704 63.3257L327.817 65.9102L336.96 65.5092L336.847 62.9247ZM327.704 63.3257L327.773 60.7396L321.758 60.5792L321.689 63.1653L321.62 65.7514L327.635 65.9118L327.704 63.3257ZM366.781 60.9198L364.241 61.4145L364.649 63.5068H366.781V60.9198ZM365.578 54.7446L363.028 55.1833L363.033 55.2113L363.039 55.2393L365.578 54.7446ZM364.295 47.2863L366.844 46.8477L366.463 44.631L364.215 44.7005L364.295 47.2863ZM356.676 47.5269L356.492 44.9465L354.603 45.0814L354.161 46.9222L356.676 47.5269ZM354.671 55.8674L352.156 55.2627L352.153 55.2726L352.151 55.2824L354.671 55.8674ZM353.628 60.3584V62.9454H355.684L356.148 60.9434L353.628 60.3584ZM340.877 60.1178L338.37 59.4779L337.605 62.4777L340.693 62.6983L340.877 60.1178ZM342.802 52.5793L340.298 51.9283L340.295 51.9393L342.802 52.5793ZM345.93 40.6299L348.417 41.3407L348.421 41.3275L345.93 40.6299ZM352.987 16.5708L355.441 17.3889V17.3889L352.987 16.5708ZM356.596 5.74423L356.52 3.15832L354.713 3.21096L354.141 4.92614L356.596 5.74423ZM373.116 5.26304L375.658 4.77898L375.245 2.61294L373.041 2.67713L373.116 5.26304ZM375.121 17.6936L372.562 18.0727L372.563 18.0798L372.564 18.087L375.121 17.6936ZM376.805 30.2845L374.241 30.6297L374.243 30.6375L374.244 30.6453L376.805 30.2845ZM379.291 47.3665L381.836 46.8971L381.835 46.8941L379.291 47.3665ZM381.778 60.8396L381.846 63.4257L384.871 63.3461L384.322 60.3702L381.778 60.8396ZM378.73 60.9198V63.5068H378.764L378.798 63.5059L378.73 60.9198ZM359.643 34.6152L357.179 33.8267L356.099 37.2022H359.643V34.6152ZM364.054 34.6152V37.2022H367.304L366.575 34.0353L364.054 34.6152ZM362.21 26.5955L364.731 26.0156L362.618 16.8304L359.746 25.807L362.21 26.5955ZM366.781 60.9198L369.32 60.4251L368.117 54.25L365.578 54.7446L363.039 55.2393L364.241 61.4145L366.781 60.9198ZM365.578 54.7446L368.127 54.306L366.844 46.8477L364.295 47.2863L361.745 47.7249L363.028 55.1833L365.578 54.7446ZM364.295 47.2863L364.215 44.7005C356.547 44.9377 357.681 44.8615 356.492 44.9465L356.676 47.5269L356.86 50.1073C357.916 50.0319 356.484 50.1161 364.375 49.8721L364.295 47.2863ZM356.676 47.5269L354.161 46.9222L352.156 55.2627L354.671 55.8674L357.186 56.472L359.191 48.1315L356.676 47.5269ZM354.671 55.8674L352.151 55.2824L351.108 59.7734L353.628 60.3584L356.148 60.9434L357.191 56.4524L354.671 55.8674ZM353.628 60.3584V57.7714H353.468V60.3584V62.9454H353.628V60.3584ZM353.468 60.3584V57.7714C351.754 57.7714 343.195 57.6898 341.061 57.5374L340.877 60.1178L340.693 62.6983C343.05 62.8666 351.814 62.9454 353.468 62.9454V60.3584ZM340.877 60.1178L343.384 60.7578L345.308 53.2193L342.802 52.5793L340.295 51.9393L338.37 59.4779L340.877 60.1178ZM342.802 52.5793L345.306 53.2303C346.365 49.1555 347.305 45.2323 348.417 41.3406L345.93 40.6299L343.442 39.9192C342.308 43.8869 341.324 47.9834 340.298 51.9283L342.802 52.5793ZM345.93 40.6299L348.421 41.3275C350.678 33.2658 352.82 25.2513 355.441 17.3889L352.987 16.5708L350.533 15.7527C347.86 23.7694 345.672 31.9546 343.438 39.9324L345.93 40.6299ZM352.987 16.5708L355.441 17.3889L359.05 6.56231L356.596 5.74423L354.141 4.92614L350.533 15.7527L352.987 16.5708ZM356.596 5.74423L356.671 8.33013L373.192 7.84894L373.116 5.26304L373.041 2.67713L356.52 3.15832L356.596 5.74423ZM373.116 5.26304L370.575 5.7471C370.885 7.37596 371.921 13.7477 372.562 18.0727L375.121 17.6936L377.68 17.3145C377.038 12.9782 375.989 6.5184 375.658 4.77898L373.116 5.26304ZM375.121 17.6936L372.564 18.087C373.202 22.2315 373.669 26.3802 374.241 30.6297L376.805 30.2845L379.369 29.9394C378.819 25.8484 378.324 21.4962 377.678 17.3002L375.121 17.6936ZM376.805 30.2845L374.244 30.6453C375.031 36.2367 375.692 42.1522 376.748 47.8389L379.291 47.3665L381.835 46.8941C380.806 41.3533 380.184 35.7204 379.367 29.9237L376.805 30.2845ZM379.291 47.3665L376.747 47.8359L379.234 61.309L381.778 60.8396L384.322 60.3702L381.836 46.8971L379.291 47.3665ZM381.778 60.8396L381.71 58.2535L378.662 58.3337L378.73 60.9198L378.798 63.5059L381.846 63.4257L381.778 60.8396ZM378.73 60.9198V58.3328H366.781V60.9198V63.5068H378.73V60.9198ZM359.643 34.6152V37.2022H364.054V34.6152V32.0282H359.643V34.6152ZM364.054 34.6152L366.575 34.0353L364.731 26.0156L362.21 26.5955L359.688 27.1753L361.533 35.195L364.054 34.6152ZM362.21 26.5955L359.746 25.807L357.179 33.8267L359.643 34.6152L362.107 35.4036L364.673 27.3839L362.21 26.5955ZM386.673 60.7594L384.089 60.8886L384.212 63.3464H386.673V60.7594ZM386.272 44.0784L388.858 44.036L388.858 44.0245L386.272 44.0784ZM386.192 32.4498L383.605 32.4863L383.605 32.495L383.605 32.5037L386.192 32.4498ZM385.871 15.4481L383.284 15.4693L383.284 15.4769L383.284 15.4845L385.871 15.4481ZM385.791 5.66402L385.618 3.08275L383.184 3.24507L383.204 5.68523L385.791 5.66402ZM399.264 5.42344L399.28 8.01039L399.282 8.01037L399.264 5.42344ZM419.313 5.26304H421.9V2.62481L419.262 2.67653L419.313 5.26304ZM419.313 16.9718L419.474 19.5538L421.9 19.4022V16.9718H419.313ZM399.665 17.453L399.456 14.8745L397.078 15.0673V17.453H399.665ZM399.665 26.1945H397.078V28.9597L399.837 28.7757L399.665 26.1945ZM409.689 25.7935H412.276V23.1043L409.589 23.2084L409.689 25.7935ZM409.689 28.44H407.102V28.4582L407.103 28.4764L409.689 28.44ZM409.77 34.134H412.357V34.1158L412.356 34.0976L409.77 34.134ZM409.77 35.0963L409.913 37.6794L412.357 37.5436V35.0963H409.77ZM402.552 35.4973L402.408 32.9143L402.267 32.9222L402.126 32.9455L402.552 35.4973ZM400.868 35.6577V33.0707H398.281V35.6577H400.868ZM400.868 43.5972H398.281V46.2959L400.977 46.1819L400.868 43.5972ZM406.562 43.3566L406.671 45.9413L406.672 45.9413L406.562 43.3566ZM419.473 43.1161L422.057 42.9869L421.934 40.5291H419.473V43.1161ZM419.554 44.72L422.139 44.6366L422.138 44.6137L422.137 44.5908L419.554 44.72ZM419.794 60.5188L419.94 63.1017L422.381 62.9635V60.5188H419.794ZM415.544 60.7594L415.397 58.1765L415.353 58.179L415.309 58.183L415.544 60.7594ZM386.673 60.7594L389.257 60.6302C389.179 59.0784 388.939 48.9401 388.858 44.036L386.272 44.0784L383.685 44.1208C383.765 49.0008 384.006 59.2326 384.089 60.8886L386.673 60.7594ZM386.272 44.0784L388.858 44.0245C388.819 42.1313 388.819 40.2136 388.819 38.2641C388.819 36.3241 388.819 34.3522 388.778 32.396L386.192 32.4498L383.605 32.5037C383.645 34.397 383.645 36.3147 383.645 38.2641C383.645 40.2042 383.645 42.1761 383.685 44.1323L386.272 44.0784ZM386.192 32.4498L388.778 32.4134C388.738 29.5556 388.678 26.7194 388.618 23.8939C388.557 21.0655 388.497 18.2478 388.458 15.4116L385.871 15.4481L383.284 15.4845C383.324 18.3423 383.385 21.1785 383.445 24.004C383.505 26.8324 383.565 29.6501 383.605 32.4863L386.192 32.4498ZM385.871 15.4481L388.458 15.4269L388.377 5.64282L385.791 5.66402L383.204 5.68523L383.284 15.4693L385.871 15.4481ZM385.791 5.66402L385.963 8.2453C387.082 8.17066 386.294 8.09055 399.28 8.01039L399.264 5.42344L399.248 2.83648C386.25 2.91672 386.905 2.99699 385.618 3.08275L385.791 5.66402ZM399.264 5.42344L399.282 8.01037C410.483 7.93036 415.252 7.93016 419.364 7.84954L419.313 5.26304L419.262 2.67653C415.194 2.75632 410.499 2.75612 399.245 2.8365L399.264 5.42344ZM419.313 5.26304H416.726V16.9718H419.313H421.9V5.26304H419.313ZM419.313 16.9718L419.152 14.3898C417.306 14.5052 413.222 14.5649 409.12 14.6257C405.125 14.6849 401.05 14.7452 399.456 14.8745L399.665 17.453L399.874 20.0315C401.247 19.9202 405.071 19.8602 409.196 19.7991C413.214 19.7396 417.47 19.679 419.474 19.5538L419.313 16.9718ZM399.665 17.453H397.078V26.1945H399.665H402.252V17.453H399.665ZM399.665 26.1945L399.837 28.7757C400.992 28.6987 399.389 28.7817 409.789 28.3786L409.689 25.7935L409.589 23.2084C399.299 23.6073 400.743 23.5298 399.493 23.6132L399.665 26.1945ZM409.689 25.7935H407.102V28.44H409.689H412.276V25.7935H409.689ZM409.689 28.44L407.103 28.4764L407.183 34.1704L409.77 34.134L412.356 34.0976L412.276 28.4036L409.689 28.44ZM409.77 34.134H407.182V35.0963H409.77H412.357V34.134H409.77ZM409.77 35.0963L409.626 32.5133L402.408 32.9143L402.552 35.4973L402.695 38.0804L409.913 37.6794L409.77 35.0963ZM402.552 35.4973L402.126 32.9455C401.691 33.0181 401.295 33.0707 400.868 33.0707V35.6577V38.2447C401.723 38.2447 402.45 38.137 402.977 38.0491L402.552 35.4973ZM400.868 35.6577H398.281V43.5972H400.868H403.455V35.6577H400.868ZM400.868 43.5972L400.977 46.1819L406.671 45.9413L406.562 43.3566L406.452 40.7719L400.758 41.0125L400.868 43.5972ZM406.562 43.3566L406.672 45.9413C410.393 45.783 415.727 45.7031 419.473 45.7031V43.1161V40.5291C415.681 40.5291 410.269 40.6095 406.452 40.772L406.562 43.3566ZM419.473 43.1161L416.89 43.2452L416.97 44.8492L419.554 44.72L422.137 44.5908L422.057 42.9869L419.473 43.1161ZM419.554 44.72L416.968 44.8034C417.128 49.7655 417.207 53.5828 417.207 56.4288H419.794H422.381C422.381 53.5005 422.3 49.619 422.139 44.6366L419.554 44.72ZM419.794 56.4288H417.207V60.5188H419.794H422.381V56.4288H419.794ZM419.794 60.5188L419.648 57.936L415.397 58.1765L415.544 60.7594L415.69 63.3423L419.94 63.1017L419.794 60.5188ZM415.544 60.7594L415.309 58.183C414.562 58.251 414.202 58.1724 412.977 58.1724V60.7594V63.3464C413.517 63.3464 414.761 63.4282 415.778 63.3358L415.544 60.7594ZM412.977 60.7594V58.1724H386.673V60.7594V63.3464H412.977V60.7594Z" fill="black" mask="url(#path-1-outside-1_7_20844)"/>
</g>
<defs>
<filter id="filter0_di_7_20844" x="0.930664" y="0.510742" width="423.922" height="67.875" filterUnits="userSpaceOnUse" color-interpolation-filters="sRGB">
<feFlood flood-opacity="0" result="BackgroundImageFix"/>
<feColorMatrix in="SourceAlpha" type="matrix" values="0 0 0 0 0 0 0 0 0 0 0 0 0 0 0 0 0 0 127 0" result="hardAlpha"/>
<feOffset dx="2.4714" dy="2.4714"/>
<feComposite in2="hardAlpha" operator="out"/>
<feColorMatrix type="matrix" values="0 0 0 0 0 0 0 0 0 0 0 0 0 0 0 0 0 0 1 0"/>
<feBlend mode="normal" in2="BackgroundImageFix" result="effect1_dropShadow_7_20844"/>
<feBlend mode="normal" in="SourceGraphic" in2="effect1_dropShadow_7_20844" result="shape"/>
<feColorMatrix in="SourceAlpha" type="matrix" values="0 0 0 0 0 0 0 0 0 0 0 0 0 0 0 0 0 0 127 0" result="hardAlpha"/>
<feOffset dx="-5" dy="5"/>
<feComposite in2="hardAlpha" operator="arithmetic" k2="-1" k3="1"/>
<feColorMatrix type="matrix" values="0 0 0 0 0 0 0 0 0 0 0 0 0 0 0 0 0 0 0.4 0"/>
<feBlend mode="normal" in2="shape" result="effect2_innerShadow_7_20844"/>
</filter>
</defs>
</svg>
