<svg width="76" height="71" viewBox="0 0 76 71" fill="none" xmlns="http://www.w3.org/2000/svg">
<path fill-rule="evenodd" clip-rule="evenodd" d="M40.9148 7.41141C41.0843 7.4779 41.2672 7.4779 41.45 7.46793C41.6063 7.46128 41.7625 7.44798 41.9188 7.43468C41.8157 6.63347 42.1914 5.82229 42.8031 5.30034C43.8171 4.42931 45.2168 4.5091 46.1177 5.49981C46.5865 6.01843 46.7727 6.69331 46.643 7.37484C46.4967 8.13283 45.9814 8.79774 45.2766 9.10359C45.3099 9.18006 45.3398 9.25984 45.3664 9.33631C45.373 9.35293 45.3797 9.36956 45.383 9.38618C45.3896 9.38285 45.3963 9.37953 45.4029 9.37621C45.7653 9.19003 46.1576 8.55505 46.3704 8.21262C46.7793 7.55104 47.1583 6.85954 47.7068 6.30434C47.8997 6.1082 48.1091 5.92202 48.3319 5.7558C49.0965 5.18398 50.0141 4.86815 50.935 5.27042C51.5268 5.52973 51.9357 6.02176 52.185 6.60687C52.3812 7.06898 52.4477 7.56766 52.3745 8.06634C52.1684 9.40612 51.0946 10.2639 50.1139 11.0718C50.074 11.105 50.0341 11.1383 49.9942 11.1748C50.3067 11.2081 50.6159 11.2613 50.9151 11.3743C51.0879 11.4408 51.2508 11.5339 51.3971 11.6502C51.7894 11.9594 51.9457 12.3018 52.0986 12.7307C52.328 12.7141 52.564 12.6642 52.7801 12.621C53.4218 12.4913 54.1 12.3484 54.7615 12.3883C54.8314 11.873 55.0175 11.3643 55.2768 10.9155C55.6159 10.3404 56.098 9.83504 56.6931 9.52586C57.4611 9.13024 58.2988 9.12027 59.1001 9.43277C60.2072 9.87161 61.138 11.2446 60.9253 12.4548C60.769 13.3258 60.2969 14.0473 59.4724 14.4163C59.2696 14.506 59.0702 14.5659 58.8508 14.6025C58.7012 14.6291 58.5449 14.6457 58.3953 14.6689C58.1991 14.7454 58.0063 14.8651 57.8202 14.9582C57.7038 15.018 57.5841 15.0745 57.4611 15.1178C57.501 15.5499 57.4678 15.9855 57.3979 16.411C57.3447 16.7202 57.2716 17.026 57.2018 17.3286C57.3082 17.2754 57.4112 17.1956 57.4977 17.1291C58.3754 16.4609 59.4924 16.0885 60.5629 16.4077C60.7524 15.899 61.0849 15.4502 61.5403 15.1477C62.5444 14.4828 63.7146 14.7454 64.6156 15.4569C64.9946 15.7561 65.2639 16.155 65.3969 16.6204C65.5697 17.2255 65.4733 17.907 65.2273 18.4789C64.8616 19.3233 64.1103 20.058 63.1428 20.058C62.9766 20.058 62.8104 20.048 62.6475 20.0214C62.4979 20.5101 62.2219 20.9324 61.8596 21.2814C63.083 21.1318 64.8916 20.8393 65.9155 21.677C66.0917 21.82 66.2447 21.9896 66.3643 22.1791C66.8464 22.9271 66.7865 23.7848 66.6502 24.6226C66.6436 24.6857 66.6303 24.7456 66.6203 24.8088C66.8929 24.7489 67.1655 24.6691 67.4249 24.596C67.9036 24.453 68.3724 24.2935 68.8444 24.1372C69.6257 23.8779 70.407 23.6152 71.2148 23.4457C72.1058 23.2562 73.0832 23.2595 73.9144 23.6751C74.5593 24.0009 75.048 24.5494 75.2342 25.2509C75.447 26.0588 75.2109 26.8866 74.6923 27.5249C74.0374 28.3294 73.0301 28.7649 72.0293 28.9611C72.1823 29.3135 72.2554 29.6958 72.2388 30.0815C72.1889 31.4279 71.0818 32.7411 69.6788 32.7378C69.2666 32.7378 68.8577 32.6613 68.4787 32.4984C68.4222 32.648 68.3623 32.7943 68.2992 32.9406C68.2027 33.16 68.0897 33.3828 68.0066 33.6088C68.1496 33.7618 68.2892 33.9147 68.4155 34.0776C68.8909 34.7026 69.0937 35.4174 68.9873 36.1954C68.8743 37.0232 68.5186 37.7546 67.9168 38.333C67.3251 38.9082 66.5737 39.2606 65.7891 39.4933C65.45 39.593 65.1076 39.6662 64.7585 39.7327C65.0278 39.8557 65.3038 39.9753 65.5797 40.0784C66.0252 40.2513 66.4806 40.3976 66.9295 40.5605C67.4414 40.7466 67.9833 40.9561 68.4488 41.242C68.5119 41.2786 68.5718 41.3184 68.6316 41.3617C69.127 41.7041 69.5592 42.1728 69.7719 42.7447C69.9249 43.1569 69.9481 43.5858 69.8451 44.0113C69.7354 44.4701 69.5026 44.8724 69.1569 45.1915C68.6349 45.6802 67.9135 45.9296 67.2054 45.9628C66.7533 45.9861 66.2878 45.9229 65.8623 45.7667C64.6854 45.3311 63.5983 44.7261 62.5377 44.0612C62.2186 43.8584 61.8927 43.6656 61.557 43.4927C61.4306 43.4262 61.2544 43.3364 61.0749 43.26C61.1115 43.3298 61.1447 43.3963 61.178 43.4594C61.3575 43.8185 61.5337 44.1908 61.6434 44.5798C62.3981 44.3138 63.1926 44.5033 63.8609 44.9522C64.8084 45.5871 65.2705 46.6809 65.2572 47.8013C65.2439 48.8519 64.7751 50.0786 63.6381 50.3313C62.9965 50.471 62.3216 50.4444 61.7199 50.1817C61.4273 50.6472 60.9985 51.0262 60.4699 51.1924C59.9113 51.3619 59.3262 51.3619 58.7976 51.1591C59.0736 51.6844 59.2896 52.2296 59.3827 52.8281C59.4891 53.5196 59.4492 54.2277 59.1932 54.8726C59.3329 54.8859 59.4692 54.9092 59.6055 54.9458C60.5995 55.2184 61.3342 56.1326 61.7099 57.0535C62.0989 57.9977 62.2186 59.2178 61.6534 60.1188C61.3509 60.5942 60.902 60.9034 60.3668 61.063C59.8249 61.2225 59.2697 61.2026 58.7444 60.9865C57.89 60.6407 57.265 59.8462 56.9558 58.9984C56.7165 58.3402 56.6533 57.5523 56.8062 56.8441C56.1845 56.9971 55.5296 57.007 54.8979 56.9139C54.5588 56.8641 54.233 56.7577 53.9305 56.5981C53.5648 56.4086 53.249 56.1593 52.9598 55.8767C53.1193 56.0762 53.2623 56.2889 53.382 56.5017C53.9638 57.5257 54.2696 58.9154 53.5316 59.946C53.239 60.3516 52.8268 60.6308 52.348 60.7738C51.9258 60.8968 51.4903 60.9001 51.0681 60.7771C50.0275 60.4779 49.2064 59.4938 48.844 58.5031C48.6545 57.9911 48.5248 57.4127 48.5315 56.8542C48.1359 56.791 47.7702 56.6281 47.3978 56.4851C47.3912 56.4818 47.3812 56.4785 47.3745 56.4752C47.2914 56.6547 47.215 56.8475 47.1418 57.027C47.072 57.2032 47.0022 57.3794 46.9324 57.559C46.8825 57.682 46.836 57.8116 46.7795 57.9346C46.5201 58.5297 46.191 59.1148 45.7489 59.5902C45.9018 59.7598 46.0414 59.9426 46.1644 60.1321C46.5634 60.7538 46.8626 61.4819 47.0654 62.1867C47.205 62.6754 47.3047 63.1841 47.3346 63.6927C47.3945 64.6369 47.2183 65.6243 46.5035 66.2992C46.1711 66.6117 45.7621 66.8145 45.3133 66.9009C44.6883 67.0239 44.0567 66.9408 43.5081 66.6084C42.2548 65.857 41.9689 64.1981 41.9921 62.8516C42.0054 62.0969 42.1085 61.2292 42.3678 60.4945C41.7661 60.2651 41.3472 59.8695 40.8718 59.4373C40.8452 59.414 40.8153 59.3874 40.7887 59.3609C40.6989 59.2744 40.5593 59.1348 40.4363 59.0982C40.3831 59.0816 40.3332 59.0882 40.28 59.1082C40.2235 59.1448 40.1337 59.3143 40.1071 59.3742C39.9143 59.813 39.8811 60.4081 39.8977 60.8835C39.9043 61.0497 39.9143 61.2159 39.9309 61.3822C40.024 62.2731 40.2601 63.1475 40.4762 64.0152C40.7853 65.2419 41.0613 66.4621 40.9183 67.7387C40.8385 68.4668 40.5992 69.1815 40.1271 69.7534C39.7315 70.2321 39.1995 70.5646 38.5911 70.6975C37.9063 70.8471 37.2015 70.7241 36.5898 70.3917C35.8684 69.9994 35.3331 69.3577 34.984 68.623C34.7546 68.141 34.6183 67.629 34.5651 67.1004C34.4953 66.3956 34.5784 65.7141 34.6815 65.0292C34.5319 65.2021 34.359 65.355 34.1529 65.4847C33.7107 65.7606 33.1921 65.8703 32.6735 65.8205C32.1083 65.7639 31.5897 65.5312 31.2007 65.1157C30.2366 64.0817 30.5258 62.6488 30.6289 61.3855C30.6755 60.827 30.8517 60.2086 31.1143 59.6634C30.579 59.916 30.0172 60.1155 29.4321 60.1953C29.5318 60.3948 29.5983 60.6109 29.6349 60.8369C29.8476 62.1568 28.8303 63.9155 27.4972 64.2347C26.5231 64.4674 25.5125 64.2912 24.8475 63.4933C24.2092 62.7286 24.1361 61.6415 24.4419 60.7206C24.7278 59.8462 25.3562 59.1015 26.2272 58.8156C25.8914 58.317 25.6653 57.7451 25.4492 57.1866C25.3562 56.9506 25.2664 56.7179 25.16 56.4851C25.1135 56.3887 24.9539 56.0596 24.8475 55.9698C24.7411 56.023 24.5516 56.2225 24.4951 56.289C24.0995 56.7577 23.8069 57.4094 23.6008 57.9845C22.8927 59.9726 21.0476 62.0405 18.7237 61.5385C18.102 61.4055 17.5368 61.1229 17.1678 60.5876C16.6226 59.7964 16.7655 58.8622 17.1113 58.0244C17.5036 57.0736 18.1219 56.1561 18.7071 55.3116C18.9996 54.8894 19.2423 54.414 19.4418 53.9419C19.5349 53.7225 19.618 53.4898 19.6845 53.2637C19.7144 53.1706 19.7443 53.0642 19.7676 52.9612C19.3321 53.0111 18.7968 53.3668 18.5009 53.5829C18.0754 53.8887 17.6798 54.2445 17.3041 54.6102C15.9344 56.4021 14.0593 58.8756 11.925 59.7233C10.5619 60.2652 8.90958 60.2951 7.93217 59.0285C7.26061 58.1641 7.22404 57.0238 7.59639 56.0231C8.00198 54.9393 8.84309 54.0616 9.81053 53.4532C10.6184 52.9479 11.4096 52.416 12.1876 51.8674C12.9422 51.3322 13.6902 50.777 14.4017 50.1852C12.5001 50.654 10.5286 50.5875 9.43485 48.6858C9.16889 48.2271 9.03923 47.7151 9.07248 47.1865C9.12235 46.4285 9.48472 45.7769 9.96678 45.2217C9.25865 45.2416 8.5605 45.0255 7.98868 44.5767C7.64958 44.3108 7.40689 43.9484 7.30051 43.5262C7.22072 43.2137 7.22072 42.8912 7.29718 42.5754C7.49998 41.7143 8.2347 40.9862 9.02594 40.6338C9.48472 40.4311 9.98672 40.338 10.4821 40.3878C10.5054 40.2914 10.5319 40.195 10.5585 40.0986C10.5984 39.9556 10.6483 39.816 10.6915 39.6731C10.4588 39.6132 10.0831 39.6232 9.91358 39.6298C9.56118 39.6498 9.20214 39.693 8.85306 39.7529C8.29122 39.8459 7.74267 40.0022 7.18747 40.1318C6.57909 40.2781 5.98067 40.3845 5.35234 40.3745C4.83703 40.3646 4.33171 40.2781 3.84965 40.1019C2.89551 39.7528 2.18406 38.9982 1.95135 38.0041C1.77515 37.2428 1.88153 36.4682 2.27383 35.79C2.8257 34.8326 3.83968 34.2275 4.93012 34.1211C5.57175 34.0613 6.21671 34.0746 6.85835 34.0779C7.13761 34.0812 7.41687 34.0845 7.69613 34.0812C7.54985 33.8585 7.42684 33.6257 7.33708 33.3731C7.23069 33.0706 7.18415 32.758 7.20077 32.4356C7.24067 31.6543 7.61966 30.9894 8.05185 30.3577C8.16821 30.1882 8.29122 30.0253 8.40425 29.8524C8.10837 29.7261 7.76594 29.633 7.47671 29.5599C7.25064 29.5033 7.02457 29.4535 6.7985 29.4069C6.79518 29.4501 6.79186 29.4934 6.78853 29.5366C6.6622 30.8198 5.0498 31.4748 3.96596 31.7241C3.68005 31.7906 3.38749 31.8338 3.09493 31.8504C1.79172 31.9269 0.541697 31.4681 0.185973 30.0918C0.0330446 29.5 0.0995351 28.8816 0.451935 28.3697C0.654731 28.0738 0.917369 27.8544 1.22323 27.6948C0.830931 27.359 0.495154 26.9534 0.272411 26.4813C-0.0899626 25.7134 -0.113234 24.8224 0.338902 24.0844C0.545022 23.7519 0.827606 23.4826 1.16671 23.2931C2.58628 22.4886 4.64089 22.9341 6.08373 23.4793C6.20674 23.5258 6.32975 23.5691 6.45275 23.6156C7.46341 23.9813 8.53723 24.3171 9.60113 24.4767C9.86709 24.5165 10.4522 24.5731 10.7913 24.5265C10.798 24.4268 10.798 24.3237 10.8013 24.2273C10.8113 23.7985 10.8079 23.3663 10.8445 22.9341C10.8977 22.2924 11.0406 21.6608 11.3565 21.0956C10.7182 20.6568 10.3525 19.9154 10.3226 19.1408C10.286 18.2365 10.7082 17.3888 11.3931 16.8102C11.5327 16.6906 11.6923 16.5875 11.8585 16.511C11.7853 16.2384 11.7488 15.9558 11.7454 15.6699C11.7421 15.4073 11.772 15.1413 11.8252 14.882C11.7521 14.872 11.679 14.8588 11.6058 14.8455C10.8079 14.6792 10.0599 14.2238 9.61775 13.5323C9.30192 13.0402 9.17559 12.4684 9.23543 11.8899C9.30525 11.225 9.60446 10.6233 10.0965 10.1645C10.5154 9.77223 11.044 9.51291 11.6025 9.39988C12.5932 9.20041 13.6238 9.4165 14.342 10.1545C14.814 10.6433 15.0634 11.2915 15.0933 11.9598C16.1173 11.9298 16.9683 12.4684 17.5635 13.3128C17.753 13.5788 17.9425 13.8481 18.112 14.1274L18.1187 14.1407C18.1187 14.144 18.122 14.144 18.122 14.1473L18.1286 14.1606C18.1353 14.1672 18.1386 14.1772 18.1419 14.1839C18.2683 13.5788 18.491 13.0136 18.9465 12.5648C19.5316 11.993 20.2031 11.7869 20.9944 11.6971C21.3135 11.6639 21.6327 11.6473 21.9485 11.6074C22.2145 11.5741 22.4904 11.5209 22.7331 11.4046C22.8328 11.358 22.9226 11.3015 23.009 11.2317C23.0257 11.2184 23.0489 11.1984 23.0689 11.1785C23.0223 11.0023 22.7896 10.6067 22.7132 10.4903C22.2943 9.83207 22.0449 9.00426 22.2444 8.23624C22.1081 8.203 21.9718 8.15313 21.8388 8.08996C20.243 7.322 20.0236 5.11446 21.1573 3.85114C21.4332 3.54196 21.7923 3.32919 22.1945 3.23611C22.4804 3.16962 22.773 3.16962 23.0589 3.22613C23.7305 3.35912 24.3322 3.79795 24.7278 4.3465C24.7677 4.40634 24.8076 4.46618 24.8475 4.52602C25.1002 4.45621 25.3628 4.44291 25.6254 4.48613C25.8349 4.5227 26.0377 4.59584 26.2239 4.70222C26.6826 4.96154 27.0251 5.39705 27.2245 5.88243C27.5071 6.57393 27.5171 7.42501 27.0616 8.04005C27.1115 8.10321 27.1547 8.1697 27.2013 8.23619C27.5437 7.43166 28.0922 6.8 29.0298 6.62048C29.9307 6.4476 30.8117 6.8 31.6163 7.17235C31.6928 7.20892 31.7692 7.24549 31.849 7.28205C31.6894 7.06264 31.5498 6.8266 31.4401 6.58391C30.8151 5.2275 31.0146 3.71479 32.3477 2.87036C32.7666 2.6044 33.2586 2.48139 33.754 2.54456C34.2826 2.61105 34.7347 2.86703 35.0971 3.22608C35.107 2.79057 35.1735 2.36171 35.3298 1.95279C35.6223 1.20477 36.1642 0.669524 36.8657 0.297177C37.3345 0.051162 37.8564 -0.0552232 38.3784 0.0278899C40.4163 0.347044 41.0015 2.90033 41.058 4.62908C41.0746 5.12444 41.0248 5.61979 40.9782 6.11515C40.9549 6.36116 40.9317 6.60718 40.9184 6.85652C40.9115 6.99917 40.8982 7.23853 40.9148 7.41141ZM52.5142 55.3948C52.3712 55.2286 52.2382 55.0623 52.0919 54.8994C52.0155 54.813 51.939 54.7266 51.8559 54.6435C51.8493 54.6368 51.8393 54.6268 51.8293 54.6169C51.7794 54.67 51.7362 54.7266 51.693 54.7764C51.6797 54.7897 51.6697 54.803 51.6564 54.8196C51.9689 54.9593 52.2548 55.1588 52.5142 55.3948Z" fill="#05B3E2"/>
<path fill-rule="evenodd" clip-rule="evenodd" d="M32.7299 7.86351C31.3403 6.81296 30.5557 4.27962 32.4706 3.06617C32.8463 2.8268 33.2818 2.71709 33.7273 2.77361C34.4154 2.86005 34.9806 3.31551 35.3629 3.93054C35.2067 2.54089 35.5292 1.26755 36.9753 0.499585C37.3975 0.276842 37.8663 0.18043 38.3417 0.25357C40.2533 0.552777 40.7753 3.04622 40.8251 4.63534C40.8418 5.12072 40.7952 5.60943 40.7487 6.09149C40.7254 6.36077 40.629 7.24842 40.7088 7.56425C40.9415 7.70388 41.1842 7.71053 41.4601 7.70056C41.7161 7.68726 41.9555 7.66066 42.1948 7.64404C42.1948 7.64071 42.1948 7.63407 42.1915 7.63074C41.9821 6.83618 42.3478 5.99508 42.9528 5.47312C43.8671 4.68854 45.1237 4.74838 45.9482 5.65597C46.9921 6.80626 46.294 8.57496 44.9675 8.97058C45.034 9.11353 45.0938 9.26313 45.1503 9.41606C45.1736 9.4759 45.2035 9.57231 45.2368 9.65875C45.3299 9.6521 45.4196 9.62883 45.5094 9.58229C45.9249 9.36619 46.3272 8.72124 46.5666 8.33227C46.9622 7.69396 47.3412 7.00246 47.8698 6.46721C48.6344 5.68927 49.7282 4.99777 50.8453 5.48315C51.3805 5.71587 51.7496 6.168 51.9723 6.6966C52.1552 7.12214 52.215 7.57427 52.1452 8.02973C51.9524 9.2997 50.8918 10.1308 49.9643 10.8955C49.8612 10.982 49.6384 11.1748 49.4722 11.361C49.5287 11.3643 49.5786 11.3676 49.6185 11.3709C50.0307 11.4042 50.443 11.4441 50.8353 11.5904C50.9849 11.6502 51.1278 11.73 51.2542 11.8297C51.6598 12.1522 51.7828 12.5212 51.939 12.9667C52.2316 12.9667 52.5773 12.8969 52.8267 12.847C53.5481 12.7041 54.2795 12.5511 54.9643 12.6409C55.104 10.8024 56.8128 8.7844 59.0137 9.64878C60.0243 10.0477 60.892 11.3177 60.6959 12.4148C60.5562 13.2093 60.1307 13.8709 59.3794 14.2034C58.9804 14.3829 58.7244 14.3829 58.3355 14.4427C58.126 14.5192 57.9099 14.6555 57.7138 14.7519C57.5475 14.8384 57.3813 14.9115 57.2084 14.9614C57.2783 15.4268 57.2483 15.9055 57.1685 16.3743C57.1087 16.74 57.0156 17.099 56.9325 17.4614C56.9225 17.5013 56.9126 17.5578 56.8993 17.6177C57.142 17.6443 57.3281 17.5512 57.6406 17.3118C58.5748 16.597 59.7052 16.3012 60.7125 16.7034C60.8621 16.1549 61.188 15.6562 61.6667 15.3404C62.5876 14.7287 63.6548 14.9913 64.4726 15.6396C64.8117 15.9055 65.0544 16.2646 65.1741 16.6835C65.5431 17.9667 64.5756 19.8285 63.1428 19.8285C62.9134 19.8285 62.6906 19.8019 62.4779 19.7554C62.305 20.5632 61.7465 21.1916 61.055 21.6038C61.4007 21.5706 61.7166 21.5307 61.8761 21.5107C63.0164 21.3744 64.8151 21.0752 65.7692 21.8565C65.9255 21.9828 66.0618 22.1324 66.1715 22.3053C66.6169 23.0001 66.5471 23.8113 66.4241 24.5859C66.4075 24.6956 66.3676 24.8984 66.3377 25.0946C67.0924 24.9849 68.502 24.4962 68.9176 24.3565C69.6855 24.1005 70.4701 23.8379 71.2614 23.6717C75.7762 22.7209 76.7004 27.9504 71.7933 28.7715C71.7534 28.7782 71.7169 28.7815 71.677 28.7882C71.9064 29.1638 72.0261 29.6027 72.0094 30.0714C71.9629 31.2949 70.9556 32.5116 69.6823 32.5084C69.1969 32.505 68.7414 32.3953 68.3491 32.1759C68.2727 32.4086 68.1796 32.6314 68.0865 32.8475C68.01 33.027 67.8205 33.416 67.7441 33.6653C67.774 33.6985 67.8039 33.7285 67.8239 33.7517C67.9668 33.9047 68.1064 34.0543 68.2328 34.2172C68.6716 34.7923 68.8578 35.4439 68.7581 36.1654C68.6517 36.94 68.3192 37.6215 67.7574 38.1668C67.1922 38.7153 66.4708 39.0511 65.7261 39.2705C65.1709 39.4334 64.6057 39.5298 64.0372 39.6163C64.5292 39.9121 65.2507 40.2014 65.4967 40.2945C66.3677 40.6302 67.5479 40.9627 68.3292 41.4381C69.2036 41.9733 69.8818 42.8843 69.6225 43.9581C69.2468 45.5273 67.3285 46.0625 65.9422 45.5505C64.7719 45.1183 63.7147 44.5266 62.6608 43.865C62.325 43.6522 61.1947 42.9607 60.6661 42.8942C60.7326 43.107 60.9121 43.4494 60.972 43.5658C61.1914 44.0013 61.3942 44.4401 61.4839 44.8989C62.2353 44.5166 63.0531 44.6895 63.7313 45.1449C64.6156 45.7367 65.0412 46.7573 65.0279 47.798C65.0146 48.7288 64.6156 49.8791 63.5884 50.1052C62.9002 50.2548 62.212 50.1949 61.6269 49.8824C61.3643 50.3811 60.9387 50.8033 60.4001 50.9696C59.712 51.1823 58.9806 51.1092 58.3921 50.677C58.2891 50.6005 58.1927 50.5174 58.1029 50.4243C58.206 50.5906 58.3024 50.7468 58.3822 50.8831C58.7445 51.5115 59.0437 52.1431 59.1568 52.8645C59.2931 53.7522 59.1568 54.5068 58.8276 55.1086C58.9008 55.1019 58.9739 55.0986 59.0471 55.0986C61.5538 55.1285 63.133 60.0057 60.3004 60.8401C58.8576 61.2657 57.6474 60.2218 57.172 58.9185C56.9093 58.1971 56.8628 57.2663 57.1421 56.5016C56.4904 56.7376 55.7291 56.8041 54.9312 56.6844C54.6187 56.6379 54.3195 56.5381 54.0369 56.3952C53.5016 56.1192 53.0861 55.707 52.6971 55.2549C52.5741 55.1119 52.0488 54.4537 51.8161 54.304C51.6599 54.437 51.4238 54.7396 51.2809 54.9224C52.102 55.1684 52.7703 55.8898 53.1825 56.6146C53.7144 57.5554 54.0269 58.8587 53.3454 59.8095C53.0828 60.1752 52.7137 60.4246 52.2849 60.5509C50.8154 60.9831 49.5255 59.6965 49.06 58.4265C48.8606 57.8713 48.7209 57.2363 48.7708 56.6512C48.3253 56.6246 47.8998 56.4318 47.4809 56.2689C47.4277 56.249 47.3446 56.2157 47.2648 56.1858C47.0387 56.598 46.6896 57.5721 46.57 57.8447C46.2741 58.5163 45.9084 59.128 45.423 59.5901C45.6324 59.7862 45.8153 60.0223 45.9682 60.2583C46.3539 60.8534 46.6497 61.5715 46.8426 62.2497C47.1916 63.4765 47.3678 65.1654 46.3472 66.1295C46.0447 66.4154 45.6757 66.5949 45.2701 66.6747C44.6983 66.7844 44.1264 66.7113 43.6244 66.4121C42.4542 65.7073 42.2015 64.1081 42.2215 62.8548C42.2348 62.1965 42.3312 61.1692 42.6703 60.3514C42.6271 60.3414 42.5839 60.3281 42.544 60.3115C41.9223 60.1021 41.5001 59.6965 41.028 59.2676C40.7786 59.0416 40.5492 58.759 40.1935 58.8919C40.0672 58.9418 39.9442 59.1679 39.8943 59.2809C39.6882 59.753 39.6483 60.3813 39.6682 60.89C39.7447 63.1839 40.9515 65.3582 40.6889 67.7153C40.3132 71.1163 36.6063 71.492 35.1934 68.5265C34.974 68.0644 34.8443 67.5823 34.7944 67.077C34.7014 66.1594 34.8809 65.2684 35.0205 64.3674C35.0604 64.1115 35.0936 63.8588 35.1169 63.6094C34.954 64.291 34.6282 64.9127 34.0298 65.2883C33.6275 65.541 33.1654 65.6341 32.6967 65.5875C32.1847 65.541 31.7193 65.3349 31.3669 64.9559C30.4692 63.9918 30.7618 62.5755 30.8582 61.4019C30.918 60.7004 31.2172 59.7629 31.7325 59.0814C31.5331 59.1878 31.3602 59.2842 31.2405 59.344C30.5291 59.7031 29.8077 59.9657 29.0497 59.9956C29.2292 60.2516 29.3522 60.5475 29.4054 60.8733C29.6015 62.0801 28.654 63.7225 27.4439 64.0117C26.5563 64.2245 25.6354 64.0749 25.027 63.3468C24.4385 62.642 24.382 61.638 24.6613 60.7935C24.9937 59.7829 25.7384 59.1047 26.6161 58.9551C26.1806 58.4198 25.9146 57.7483 25.662 57.1033C25.5656 56.8573 25.1832 55.7835 24.8774 55.7303C24.8707 55.7269 24.8674 55.7269 24.8608 55.7269C24.6979 55.7303 24.4119 56.0295 24.3189 56.1392C23.9066 56.6279 23.5974 57.3094 23.3847 57.9045C22.7164 59.7762 20.9743 61.7876 18.7735 61.3122C18.2117 61.1925 17.693 60.9432 17.3572 60.4545C16.8586 59.7331 17.0115 58.872 17.324 58.114C17.703 57.1964 18.3347 56.2522 18.8965 55.441C19.1924 55.0155 19.4517 54.5068 19.6545 54.0314C19.7576 53.7854 20.0069 53.1205 20.0335 52.7349C19.1359 52.5686 17.6864 53.9151 17.1311 54.457C15.788 56.2123 13.9163 58.6825 11.8418 59.507C10.5818 60.009 9.02584 60.0688 8.11492 58.8886C7.49323 58.0841 7.46996 57.0269 7.81238 56.1026C8.19803 55.0654 9.00921 54.2309 9.93343 53.6491C10.7446 53.1405 11.5392 52.6085 12.3204 52.0533C13.2746 51.3785 14.2387 50.657 15.1098 49.8758C15.163 49.8292 15.2361 49.7628 15.3192 49.6863C15.0267 49.7727 14.7341 49.8592 14.4382 49.9356C12.6164 50.4044 10.6914 50.4077 9.63422 48.5692C9.39153 48.1504 9.27185 47.6849 9.3051 47.1995C9.36161 46.282 9.93011 45.5207 10.5983 44.8956C9.74726 45.1184 8.83634 44.9488 8.13154 44.397C7.83233 44.1609 7.61956 43.8418 7.52647 43.4694C7.24057 42.3391 8.14484 41.2786 9.11892 40.8464C9.62758 40.6203 10.1628 40.5505 10.6648 40.6469C10.6947 40.484 10.7346 40.3211 10.7812 40.1615C10.8178 40.0219 10.9208 39.736 10.964 39.5398C10.5485 39.2506 9.15217 39.4667 8.81639 39.5232C7.63619 39.7194 6.59223 40.1615 5.35551 40.1416C4.8668 40.1349 4.38807 40.0518 3.92596 39.8856C3.04829 39.5631 2.39003 38.8716 2.17726 37.9507C1.75172 36.1256 3.1447 34.5264 4.95324 34.3502C5.57825 34.2904 6.22653 34.3037 6.85819 34.3103C7.09091 34.3136 7.65276 34.3203 8.14146 34.297C8.13814 34.2937 8.13481 34.2904 8.13149 34.287C7.70262 33.7518 7.39344 33.1534 7.43001 32.4486C7.46658 31.7139 7.83893 31.0789 8.2412 30.4871C8.33429 30.3508 8.58695 30.0117 8.73655 29.759C8.21128 29.4665 7.24052 29.2537 6.56226 29.124C6.57224 29.2537 6.57223 29.3834 6.55894 29.5163C6.4459 30.6733 4.88338 31.275 3.91594 31.4978C2.55621 31.8103 0.820755 31.6341 0.408514 30.035C0.272208 29.503 0.328725 28.9578 0.641231 28.499C0.903868 28.12 1.26292 27.8907 1.67183 27.7543C1.17648 27.3953 0.744291 26.9398 0.481653 26.3846C0.152525 25.6865 0.122604 24.8753 0.534846 24.2038C0.721019 23.9079 0.973683 23.6652 1.27954 23.4923C2.6293 22.7277 4.63736 23.1798 6.00374 23.6951C6.12675 23.7416 6.24976 23.7882 6.37276 23.8314C7.38674 24.1971 8.50046 24.5462 9.56768 24.7058C9.827 24.7423 10.6515 24.8321 11.0006 24.7191C11.0238 24.5695 11.0305 24.3367 11.0338 24.2337C11.0438 23.8048 11.0371 23.3826 11.0737 22.9537C11.1335 22.2489 11.2998 21.5874 11.6721 21.0189C10.9773 20.6465 10.5817 19.9051 10.5517 19.1305C10.5185 18.2961 10.9075 17.5215 11.5391 16.9862C11.722 16.8333 11.9248 16.7169 12.1442 16.6438C12.0345 16.3379 11.978 16.0121 11.9746 15.6697C11.9746 15.3273 12.0245 14.9948 12.1176 14.679C11.9613 14.669 11.8051 14.6491 11.6522 14.6191C10.3589 14.3532 9.31834 13.2993 9.46462 11.9163C9.53111 11.3045 9.80373 10.7527 10.2525 10.3338C10.6415 9.96808 11.1302 9.73204 11.6488 9.62566C13.484 9.25331 14.9302 10.4734 14.8637 12.2089C15.7447 12.1025 16.6689 12.4449 17.3771 13.4456C17.5633 13.7082 17.7461 13.9675 17.9123 14.2468L17.919 14.2601L17.929 14.2734C18.0088 14.4164 18.1351 14.5925 18.288 14.7422C18.298 14.6457 18.308 14.5593 18.3213 14.4961C18.4276 13.8412 18.6205 13.2095 19.1092 12.7308C20.4024 11.4608 22.1312 12.2421 23.1518 11.411C23.1884 11.3844 23.2915 11.2946 23.3081 11.2481C23.338 11.0719 22.9989 10.5067 22.9092 10.3671C22.4603 9.6656 22.2409 8.80455 22.5468 8.05986C22.344 8.03326 22.1379 7.97674 21.9417 7.88033C20.4889 7.18551 20.2928 5.16087 21.3267 4.00721C21.5727 3.73127 21.8885 3.54178 22.2476 3.45866C23.1385 3.25587 24.0295 3.77117 24.5382 4.47929C24.6146 4.58568 24.6811 4.69539 24.741 4.8051C25.0036 4.70204 25.2895 4.66214 25.5854 4.71533C26.9917 4.95138 27.7064 7.0292 26.7689 8.03326C26.9451 8.26265 27.108 8.50534 27.2576 8.73806C27.2576 8.73806 27.2576 8.74138 27.261 8.74138C27.5469 7.83711 28.0489 7.04255 29.0728 6.8464C29.9206 6.6835 30.765 7.03258 31.5164 7.38165C31.7457 7.48804 32.4406 7.84044 32.6966 7.87368C32.71 7.87021 32.7199 7.86688 32.7299 7.86351ZM14.8803 19.1172C14.9767 19.0673 15.0598 19.0208 15.1164 18.9709C15.0432 18.941 14.9668 18.9077 14.887 18.8778C14.887 18.9576 14.887 19.0374 14.8803 19.1172ZM12.3337 43.5427C12.3803 43.5061 12.4268 43.4729 12.4734 43.4397C12.4468 43.4297 12.4202 43.4164 12.3903 43.4064C12.3736 43.453 12.3537 43.4962 12.3337 43.5427Z" fill="#99F4FF"/>
<path fill-rule="evenodd" clip-rule="evenodd" d="M28.2343 58.7388C30.3421 59.3805 32.0676 56.7973 33.7232 57.4589C35.2857 58.0806 35.8575 59.3339 36.2166 61.5614C36.672 64.364 35.3489 66.1693 36.2365 68.0277C37.1508 69.9526 39.2918 69.8462 39.5411 67.5855C39.7672 65.5542 38.5903 63.2403 38.5139 60.9298C38.454 59.1545 39.0192 58.1039 39.7838 57.8113C41.486 57.1697 42.0279 59.3472 43.3611 59.2841C45.7215 59.171 45.655 55.5805 46.7987 55.0353C47.3539 54.766 48.4709 55.5738 48.9463 55.4907C49.9769 55.3145 50.7117 53.1403 51.739 53.1236C53.0655 53.1003 53.5941 55.3179 55.1001 55.5439C56.8089 55.7999 58.315 55.002 58.0125 53.0406C57.7332 51.2121 55.6953 49.9487 56.5364 48.0304C57.055 46.8536 59.9108 47.1162 60.3297 45.6733C60.6588 44.5396 58.9401 43.2464 59.6582 42.1858C60.3696 41.1386 62.1416 42.1759 63.272 42.8873C64.2959 43.5289 65.2567 44.0642 66.3439 44.4665C67.8964 45.0416 69.5388 43.5289 67.7269 42.4219C66.407 41.6173 61.8358 40.8261 62.4674 38.8779C62.6769 38.2329 67.2215 38.8679 67.6138 36.0088C67.7734 34.8485 66.6398 34.5493 66.5633 33.8345C66.4868 33.0965 67.7468 31.4841 67.2914 30.756C66.8924 30.121 65.9649 30.1176 65.8884 29.6057C65.8053 29.0571 66.3904 28.1828 68.2089 27.7872C69.1365 27.5844 70.6425 27.7905 71.6033 27.6309C74.9445 27.0724 74.4891 24.17 71.4969 24.8017C69.449 25.2305 66.4203 26.7166 65.4429 26.1282C64.6184 25.6328 65.925 23.4718 65.0407 22.7471C64.0666 21.9525 59.9973 23.3588 58.9966 22.5576C58.4215 22.0988 58.5245 21.2976 59.8211 20.8986C61.2207 20.4631 61.9654 19.1998 60.7985 18.1093C60.2267 17.5741 59.3623 17.4477 58.3383 18.229C57.4473 18.9105 56.8223 18.8906 55.9912 18.5415C54.9672 18.1126 56.9852 15.4929 55.569 14.1431C54.5783 13.1989 52.8362 14.3459 51.4764 14.0766C50.7317 13.9303 50.9345 12.8632 50.4259 12.6703C49.7178 12.4044 48.4312 12.6537 48.1918 12.0719C47.8727 11.304 48.5376 10.5759 49.2291 10.0041C50.0469 9.33251 51.4133 8.32851 50.9113 7.14825C50.5589 6.32044 49.8075 6.14424 48.6938 7.27458C47.5502 8.43484 46.9218 11.1411 44.7974 10.782C44.0328 10.6557 44.1757 9.28264 43.4809 8.94687C42.4137 8.43489 41.1603 9.32586 39.9502 8.44486C39.1623 7.87305 39.7142 5.98139 39.671 4.67148C39.5945 2.2612 38.6104 0.937986 37.5167 1.51978C35.7646 2.44732 36.6822 4.47866 36.9814 5.9348C37.1543 6.78588 37.3405 7.40424 36.8318 7.59706C36.3697 7.77326 35.7879 7.25131 35.2759 7.43416C34.4315 7.73004 33.8929 8.84708 32.849 9.01663C31.968 9.15959 30.3456 7.77659 29.2884 7.97938C28.0284 8.22207 28.3941 10.6756 27.5597 10.7587C26.8748 10.8252 26.1501 8.66761 25.2657 8.1855C24.1819 7.59706 22.9684 8.31848 23.8794 9.7447C24.5875 10.8484 24.7238 11.6231 23.8794 12.3079C22.5263 13.4083 20.8141 12.6736 19.9165 13.5546C19.1419 14.3126 19.6638 16.2974 18.7462 16.2109C18.1013 16.1511 17.3832 15.6624 16.9211 14.8346C16.7582 14.5619 16.5953 14.3392 16.4324 14.1098C14.7901 11.7859 11.7846 15.3465 13.8027 17.0787C14.6072 17.7668 16.3393 17.8865 16.3659 18.6445C16.4291 20.5096 14.0786 20.2636 12.9715 21.2576C11.6085 22.4843 12.6624 24.9479 11.7847 25.5961C10.7607 26.3575 8.06781 25.7059 5.59437 24.775C4.15817 24.2331 2.66546 24.0336 1.84757 24.4957C1.07296 24.9346 1.20262 26.2079 2.73855 27.069C4.1149 27.8402 8.40691 27.8369 9.75002 29.067C10.6842 29.9247 8.64628 31.2512 8.58311 32.5046C8.52992 33.5219 10.0293 34.2001 9.73008 34.9116C9.37435 35.7461 6.64819 35.3471 5.06239 35.5001C3.03111 35.6962 2.61549 38.1763 4.32435 38.8014C5.73727 39.3167 7.14359 38.6318 8.62633 38.3858C10.2354 38.1165 11.5287 38.1398 12.054 39.0607C12.403 39.6691 11.5387 40.7296 11.8279 41.5707C12.1038 42.3619 13.8093 42.4683 14.2116 43.0933C14.7801 43.9876 9.41424 45.8727 10.6343 47.9937C12.167 50.6567 16.5421 47.3255 17.3965 48.3528C18.191 49.3069 13.7328 52.6248 10.5479 54.6262C7.70211 56.4148 8.40026 59.6363 11.4123 58.4362C13.0579 57.7812 14.6471 55.8031 16.2628 53.692C17.9051 52.073 19.4976 51.0955 20.7909 51.7937C21.8082 52.3423 20.628 54.9687 19.8467 56.099C17.8287 59.0147 17.7822 59.919 19.0156 60.1849C20.229 60.4475 21.632 59.3804 22.2969 57.5186C22.9785 55.607 24.0224 54.4068 25.0763 54.593C26.8347 54.899 26.602 58.2435 28.2343 58.7388Z" fill="#05B3E2"/>
<path fill-rule="evenodd" clip-rule="evenodd" d="M33.3609 59.3506C32.7126 59.2276 32.0776 60.6538 32.0078 61.4949C31.9247 62.5222 31.5357 64.3175 32.8057 64.4405C34.8968 64.6433 33.9926 59.467 33.3609 59.3506Z" fill="#05B3E2"/>
<path fill-rule="evenodd" clip-rule="evenodd" d="M44.1754 60.2282C43.3044 60.4011 42.6229 66.0096 45.0498 65.5409C47.111 65.1419 45.1662 60.0288 44.1754 60.2282Z" fill="#05B3E2"/>
<path fill-rule="evenodd" clip-rule="evenodd" d="M27.7888 60.3514C28.949 61.1293 27.7655 62.745 27.1737 62.888C24.5672 63.513 25.6677 58.9285 27.7888 60.3514Z" fill="#05B3E2"/>
<path fill-rule="evenodd" clip-rule="evenodd" d="M11.106 42.1459C12.0701 43.1566 10.0953 44.4731 8.84528 43.489C7.95758 42.7909 9.98222 40.9657 11.106 42.1459Z" fill="#05B3E2"/>
<path fill-rule="evenodd" clip-rule="evenodd" d="M5.40821 29.4031C5.47137 28.7448 5.03919 28.7216 4.19143 28.7249C3.16415 28.7315 1.20928 28.5121 1.52844 29.7455C1.92073 31.2748 5.34504 30.0414 5.40821 29.4031Z" fill="#05B3E2"/>
<path fill-rule="evenodd" clip-rule="evenodd" d="M13.1441 19.9182C11.9606 20.6596 11.0696 18.8943 12.2831 17.8703C13.1475 17.1389 14.5238 19.0538 13.1441 19.9182Z" fill="#05B3E2"/>
<path fill-rule="evenodd" clip-rule="evenodd" d="M13.6364 12.6372C13.2374 14.1399 10.4448 13.618 10.611 12.0355C10.8105 10.1837 14.2847 10.197 13.6364 12.6372Z" fill="#05B3E2"/>
<path fill-rule="evenodd" clip-rule="evenodd" d="M23.3607 6.73941C22.1771 7.48078 21.2995 5.76532 22.1871 4.77462C22.9418 3.93351 24.7437 5.87503 23.3607 6.73941Z" fill="#05B3E2"/>
<path fill-rule="evenodd" clip-rule="evenodd" d="M25.8176 7.32101C25.2558 7.61025 24.0191 7.05837 24.9034 6.06766C25.6581 5.22656 26.4294 7.00851 25.8176 7.32101Z" fill="#05B3E2"/>
<path fill-rule="evenodd" clip-rule="evenodd" d="M50.3291 56.0759C49.744 56.3751 49.8537 57.2362 50.1429 58.0307C50.4987 58.9949 51.3065 59.6332 51.9548 59.4437C53.5839 58.965 51.6623 55.3977 50.3291 56.0759Z" fill="#05B3E2"/>
<path fill-rule="evenodd" clip-rule="evenodd" d="M58.6776 56.3354C58.0892 56.6346 57.9662 57.7284 58.2587 58.523C58.6111 59.4904 59.3259 59.9226 59.9742 59.7331C61.6033 59.2544 60.0108 55.6605 58.6776 56.3354Z" fill="#05B3E2"/>
<path fill-rule="evenodd" clip-rule="evenodd" d="M60.1202 47.5915C61.2771 48.3661 60.6388 49.686 60.057 49.8689C57.9858 50.5072 57.9957 46.1686 60.1202 47.5915Z" fill="#05B3E2"/>
<path fill-rule="evenodd" clip-rule="evenodd" d="M63.0891 46.1022C64.2494 46.8801 63.9336 48.845 63.3385 48.978C60.5425 49.593 60.9681 44.6793 63.0891 46.1022Z" fill="#05B3E2"/>
<path fill-rule="evenodd" clip-rule="evenodd" d="M70.3003 28.9873C71.4573 29.7653 70.5862 31.3544 69.6853 31.3511C67.3481 31.3444 68.1759 27.5677 70.3003 28.9873Z" fill="#05B3E2"/>
<path fill-rule="evenodd" clip-rule="evenodd" d="M63.7573 16.5437C64.5885 17.1986 63.7507 18.6747 63.1423 18.6747C60.8052 18.6748 61.7527 14.9612 63.7573 16.5437Z" fill="#05B3E2"/>
<path fill-rule="evenodd" clip-rule="evenodd" d="M58.5905 10.7223C59.0127 10.8885 59.6643 11.61 59.5579 12.2117C59.3485 13.4118 58.3444 13.2223 58.0153 13.3321C57.4136 13.5315 56.895 14.0069 56.5924 13.844C55.3789 13.1958 56.6124 9.94437 58.5905 10.7223Z" fill="#05B3E2"/>
<path fill-rule="evenodd" clip-rule="evenodd" d="M45.0934 6.43372C45.6353 7.02881 45.0269 7.89651 44.4185 7.89651C42.078 7.89656 43.9031 5.12386 45.0934 6.43372Z" fill="#05B3E2"/>
<path fill-rule="evenodd" clip-rule="evenodd" d="M34.2782 7.07527C33.4138 7.68699 31.5188 5.03401 33.088 4.03993C34.3015 3.26869 35.4584 6.24082 34.2782 7.07527Z" fill="#05B3E2"/>
<path fill-rule="evenodd" clip-rule="evenodd" d="M13.1881 53.8451C12.6628 54.3106 12.1808 54.8325 11.9115 55.5805C11.6655 56.2654 11.7054 56.9436 11.21 57.4789C10.6016 58.1338 9.71065 57.8811 9.61424 57.4257C9.34495 56.1457 11.466 54.5034 13.0286 53.619C13.0917 53.5858 13.1682 53.6024 13.2114 53.6589C13.2513 53.7188 13.2413 53.7986 13.1881 53.8451Z" fill="#19E1FE"/>
<path fill-rule="evenodd" clip-rule="evenodd" d="M15.3422 47.4322C14.7404 47.5386 14.1287 47.5752 13.4771 47.3258C12.8853 47.0964 12.4531 46.7407 11.8248 46.7839C11.0502 46.8338 10.7277 47.5486 10.9804 47.891C11.6885 48.8451 13.9559 48.2866 15.4054 47.6816C15.4619 47.6583 15.4918 47.5918 15.4785 47.5286C15.4618 47.4621 15.402 47.4223 15.3422 47.4322Z" fill="#19E1FE"/>
<path fill-rule="evenodd" clip-rule="evenodd" d="M17.0674 47.8311C17.7423 48.1071 17.9484 48.7121 17.7988 49.377C17.7921 49.4169 17.8088 49.4568 17.842 49.4768C17.8786 49.4967 17.9218 49.4934 17.9517 49.4668C18.7762 48.7287 18.4171 47.4322 17.1073 47.5652C17.0441 47.5685 16.9942 47.6184 16.9843 47.6815C16.9743 47.7447 17.0075 47.8045 17.0674 47.8311Z" fill="#19E1FE"/>
<path fill-rule="evenodd" clip-rule="evenodd" d="M14.102 44.2109C14.4943 43.9017 14.9166 43.3864 14.624 43.0406C13.3873 41.5845 15.3122 41.8804 15.1692 43.0839C15.0928 43.7089 14.6074 44.0513 14.102 44.2109Z" fill="#19E1FE"/>
<path fill-rule="evenodd" clip-rule="evenodd" d="M7.63628 36.3582C5.30911 36.8469 5.42879 37.6813 4.7173 37.9074C3.86289 38.1767 3.4972 37.6647 3.64015 37.2226C4.03909 35.9759 6.21338 35.9426 7.60636 36.0856C7.6795 36.0922 7.73934 36.1388 7.74599 36.2086C7.75264 36.2784 7.7061 36.3449 7.63628 36.3582Z" fill="#19E1FE"/>
<path fill-rule="evenodd" clip-rule="evenodd" d="M10.043 34.1573C10.3256 34.5496 10.2624 35.015 9.9931 35.4173C9.97648 35.4439 9.97648 35.4738 9.98978 35.5004C9.99975 35.5237 10.0263 35.5337 10.0496 35.5237C10.7046 35.281 10.8807 34.3036 10.1394 33.9911C10.1061 33.9745 10.0629 33.9911 10.0396 34.031C10.0164 34.0709 10.0197 34.1207 10.043 34.1573Z" fill="#19E1FE"/>
<path fill-rule="evenodd" clip-rule="evenodd" d="M7.78231 27.5315C5.45182 27.0428 4.15521 25.1877 3.44376 24.9617C2.58936 24.6924 2.22366 25.2044 2.36661 25.6465C2.76556 26.8932 6.35609 27.9504 7.75239 27.8075C7.82221 27.7975 7.88205 27.7543 7.8887 27.6811C7.89867 27.6113 7.85213 27.5481 7.78231 27.5315Z" fill="#19E1FE"/>
<path fill-rule="evenodd" clip-rule="evenodd" d="M12.1875 26.1948C12.4535 26.1084 12.6762 25.9122 12.7394 25.5764C12.8358 25.0844 12.7826 24.5724 12.7826 24.0704C12.7726 23.5418 12.8491 23.0797 13.0918 22.7406C13.1151 22.704 13.1117 22.6575 13.0851 22.6243C13.0552 22.591 13.0087 22.5844 12.9721 22.6043C12.623 22.7905 12.4269 23.1462 12.4335 23.7213C12.4335 24.2666 12.4734 24.8151 12.3903 25.3537C12.3371 25.6795 12.254 25.879 12.0911 26.0419C12.0612 26.0751 12.0579 26.1183 12.0778 26.1582C12.1011 26.1948 12.1443 26.2081 12.1875 26.1948Z" fill="#19E1FE"/>
<path fill-rule="evenodd" clip-rule="evenodd" d="M15.9608 17.5843C15.665 17.1189 15.1896 16.7931 15.2826 16.1548C15.3691 15.5697 15.6018 15.1042 15.3159 14.5956C14.9568 13.9573 14.2354 14.3396 13.9794 14.6355C13.0519 15.7126 15.3691 17.9434 15.9043 17.724C15.9608 17.7007 15.9908 17.6309 15.9608 17.5843Z" fill="#19E1FE"/>
<path fill-rule="evenodd" clip-rule="evenodd" d="M12.8889 12.3317C12.6296 13.3124 10.8077 12.97 10.9175 11.9394C11.0471 10.7326 13.1382 11.3842 12.8889 12.3317Z" fill="#19E1FE"/>
<path fill-rule="evenodd" clip-rule="evenodd" d="M18.3483 16.6634C18.8636 16.6535 19.3091 16.5039 19.5285 15.6262C19.6183 15.2738 19.9574 15.2771 19.9009 15.6262C19.7612 16.4806 19.1462 16.8529 18.3416 16.7565C18.3184 16.7532 18.3018 16.7299 18.3018 16.7066C18.3018 16.6834 18.3217 16.6634 18.3483 16.6634Z" fill="#19E1FE"/>
<path fill-rule="evenodd" clip-rule="evenodd" d="M23.4672 13.2027C24.3149 12.9135 25.3688 12.0824 24.8801 10.7791C24.8701 10.7558 24.8502 10.7459 24.8269 10.7492C24.8036 10.7525 24.787 10.7758 24.7903 10.799C24.8535 11.7831 24.3249 12.5012 23.4273 13.1196C23.4073 13.1329 23.4007 13.1561 23.4106 13.1794C23.4206 13.1994 23.4439 13.2094 23.4672 13.2027Z" fill="#19E1FE"/>
<path fill-rule="evenodd" clip-rule="evenodd" d="M33.1788 6.11796C33.3683 6.42714 33.6176 6.64324 34.2293 6.46039C34.472 6.38725 34.595 6.59669 34.3623 6.68645C33.7938 6.9092 33.3483 6.66983 33.1222 6.14788C33.1156 6.13126 33.1222 6.11464 33.1355 6.10466C33.1522 6.09801 33.1688 6.10466 33.1788 6.11796Z" fill="#19E1FE"/>
<path fill-rule="evenodd" clip-rule="evenodd" d="M37.8098 6.24442C37.5438 4.40928 38.7307 3.01625 38.7307 2.43779C38.7274 1.74296 38.0591 1.59336 37.6369 1.8028C36.4501 2.39124 36.8856 5.29028 37.5106 6.28764C37.5405 6.3375 37.6103 6.37075 37.6901 6.36078C37.7666 6.34748 37.8198 6.29761 37.8098 6.24442Z" fill="#19E1FE"/>
<path fill-rule="evenodd" clip-rule="evenodd" d="M39.0763 7.2052C38.8403 8.11945 39.2525 9.23316 40.7552 9.38277C40.7751 9.38277 40.7984 9.36947 40.8051 9.34952C40.8117 9.32625 40.8017 9.29965 40.7785 9.293C39.7811 8.96055 39.1794 8.37543 39.1661 7.20853C39.1661 7.18525 39.1461 7.16863 39.1228 7.16531C39.0996 7.16531 39.0796 7.18193 39.0763 7.2052Z" fill="#19E1FE"/>
<path fill-rule="evenodd" clip-rule="evenodd" d="M48.1195 9.46936C48.8442 8.14952 50.1707 8.27585 50.4932 7.70071C50.7492 7.24525 50.4965 6.88952 50.1474 6.81306C49.17 6.60029 48.0264 8.47532 47.9233 9.35637C47.9166 9.39959 47.9432 9.45278 47.9931 9.4827C48.0463 9.51257 48.0995 9.50925 48.1195 9.46936Z" fill="#19E1FE"/>
<path fill-rule="evenodd" clip-rule="evenodd" d="M56.8262 12.418C56.8162 12.7504 57.3382 12.1853 57.6141 12.1321C58.0563 12.0456 58.8076 12.4279 58.9638 12.0024C59.1268 11.5602 58.525 10.8222 58.0629 10.912C57.4246 11.035 56.8461 11.7697 56.8262 12.418Z" fill="#19E1FE"/>
<path fill-rule="evenodd" clip-rule="evenodd" d="M63.7344 16.9659C64.2763 17.325 63.5283 18.6747 62.9897 18.5151C61.61 18.103 62.8401 16.3741 63.7344 16.9659Z" fill="#19E1FE"/>
<path fill-rule="evenodd" clip-rule="evenodd" d="M47.8464 11.3608C47.7168 11.8595 47.7434 12.3283 48.5313 12.7738C48.8504 12.9533 48.7573 13.2824 48.4349 13.1328C47.647 12.7738 47.4508 12.0823 47.7567 11.3343C47.7666 11.311 47.7932 11.2977 47.8132 11.3077C47.8365 11.3143 47.8497 11.3376 47.8464 11.3608Z" fill="#19E1FE"/>
<path fill-rule="evenodd" clip-rule="evenodd" d="M55.1075 17.448C54.7617 18.3988 54.9778 19.3363 56.2179 19.3829C56.2345 19.3829 56.2511 19.3729 56.2544 19.3563C56.2578 19.3363 56.2511 19.3164 56.2345 19.313C55.4167 19.1069 55.1075 18.3988 55.1773 17.448C55.1806 17.428 55.1607 17.4147 55.1407 17.4147C55.1242 17.4181 55.1142 17.4314 55.1075 17.448Z" fill="#19E1FE"/>
<path fill-rule="evenodd" clip-rule="evenodd" d="M59.9977 18.0929C61.0582 18.1927 61.7165 20.5564 59.7583 20.0511C58.3654 19.6887 58.6247 17.9632 59.9977 18.0929Z" fill="#19E1FE"/>
<path fill-rule="evenodd" clip-rule="evenodd" d="M64.5761 24.7521C64.0741 25.6331 64.1339 26.5906 65.3441 26.8466C65.364 26.8499 65.3806 26.8399 65.3873 26.8233C65.3939 26.8067 65.3906 26.7867 65.374 26.7801C64.6027 26.4377 64.4132 25.6896 64.6459 24.7621C64.6492 24.7455 64.6326 24.7288 64.616 24.7255C64.596 24.7255 64.5827 24.7355 64.5761 24.7521Z" fill="#19E1FE"/>
<path fill-rule="evenodd" clip-rule="evenodd" d="M69.5193 26.7935C71.1283 26.7802 72.0559 25.467 72.5513 25.3938C73.1464 25.3041 73.3791 25.8393 73.2129 26.2117C72.8372 27.0495 70.4601 27.4617 69.5226 27.0561C69.4761 27.0362 69.4362 26.9796 69.4362 26.9132C69.4362 26.8467 69.4727 26.7935 69.5193 26.7935Z" fill="#19E1FE"/>
<path fill-rule="evenodd" clip-rule="evenodd" d="M69.5261 29.1009C70.4304 28.7685 70.7096 30.3443 70.2442 30.6601C69.054 31.4647 68.7714 29.3769 69.5261 29.1009Z" fill="#19E1FE"/>
<path fill-rule="evenodd" clip-rule="evenodd" d="M64.3565 42.8276C65.7894 43.5623 67.219 42.8276 67.6944 42.9905C68.2596 43.1867 68.2197 43.7685 67.8972 44.0244C67.1791 44.5929 64.8818 43.8549 64.2368 43.0603C64.2036 43.0204 64.1969 42.9539 64.2302 42.8941C64.2601 42.8342 64.3166 42.8043 64.3565 42.8276Z" fill="#19E1FE"/>
<path fill-rule="evenodd" clip-rule="evenodd" d="M37.9959 63.4835C38.1056 64.1784 38.1455 64.8865 37.8762 65.6345C37.6302 66.3227 37.1681 66.818 37.2113 67.5461C37.2645 68.4371 38.1123 68.8128 38.4746 68.5202C39.4953 67.7024 38.9035 65.0859 38.2619 63.4103C38.2353 63.3439 38.1655 63.3106 38.0956 63.3272C38.0258 63.3472 37.9826 63.4137 37.9959 63.4835Z" fill="#19E1FE"/>
<path fill-rule="evenodd" clip-rule="evenodd" d="M44.5151 62.8948C43.9034 63.0178 43.6208 65.1156 44.934 64.8696C46.1342 64.6402 45.2067 62.7551 44.5151 62.8948Z" fill="#19E1FE"/>
<path fill-rule="evenodd" clip-rule="evenodd" d="M53.495 53.0573C53.9339 53.0107 54.7251 53.802 55.3368 53.5992C55.8953 53.413 56.4472 52.8578 56.9958 53.0506C57.6873 53.2933 57.5742 54.5899 56.5569 54.8525C54.9778 55.2614 53.2423 53.7022 53.3653 53.1371C53.3787 53.0772 53.4385 53.0639 53.495 53.0573Z" fill="#19E1FE"/>
<path fill-rule="evenodd" clip-rule="evenodd" d="M25.2662 54.3177C25.9179 54.5969 26.3999 55.202 26.6559 55.8735C26.6692 55.9134 26.7058 55.9533 26.7423 55.9733C26.7789 55.9932 26.8088 55.9899 26.8155 55.9633C27.0183 55.2219 26.0442 53.922 25.1499 54.0517C25.1067 54.0583 25.0967 54.1049 25.1233 54.1714C25.1499 54.2345 25.2097 54.2944 25.2662 54.3177Z" fill="#19E1FE"/>
<path fill-rule="evenodd" clip-rule="evenodd" d="M45.9146 55.3114C46.2803 54.6797 46.9053 54.5567 47.5436 54.7894C47.5835 54.8027 47.6234 54.7927 47.65 54.7595C47.6733 54.7263 47.6766 54.6864 47.6533 54.6498C47.0316 53.7355 45.6985 53.9217 45.6553 55.2382C45.6553 55.3014 45.6952 55.3579 45.755 55.3745C45.8182 55.3945 45.8814 55.3679 45.9146 55.3114Z" fill="#19E1FE"/>
<path fill-rule="evenodd" clip-rule="evenodd" d="M42.4539 58.3201C42.0616 57.3659 41.1074 56.2555 39.874 57.0169C39.854 57.0302 39.8441 57.0567 39.8507 57.0833C39.8607 57.1066 39.8806 57.1232 39.9039 57.1166C40.8747 56.9005 41.6526 57.4158 42.3773 58.3799C42.3906 58.3999 42.4172 58.4032 42.4372 58.3866C42.4572 58.3733 42.4638 58.3433 42.4539 58.3201Z" fill="#19E1FE"/>
<path fill-rule="evenodd" clip-rule="evenodd" d="M62.1188 39.7889C61.9293 39.3302 61.9027 38.5722 62.2451 38.3095C63.1228 37.6247 62.2019 37.2025 61.7464 38.2863C61.5037 38.868 61.7597 39.4033 62.1188 39.7889Z" fill="#19E1FE"/>
<path fill-rule="evenodd" clip-rule="evenodd" d="M9.9803 56.9568C9.97365 57.2992 10.2097 57.3657 10.3959 57.1662C10.735 56.8072 10.2862 56.365 11.5096 55.3909C11.6825 55.2513 11.7257 55.0252 11.4963 55.125C10.8513 55.4009 9.99687 56.0957 9.9803 56.9568Z" fill="#99F4FF"/>
<path fill-rule="evenodd" clip-rule="evenodd" d="M13.5612 47.7978C13.5745 47.6449 12.73 47.7712 12.3776 47.5518C12.1748 47.4255 11.5997 47.329 11.593 47.6249C11.5864 48.2233 13.5479 47.944 13.5612 47.7978Z" fill="#99F4FF"/>
<path fill-rule="evenodd" clip-rule="evenodd" d="M4.02564 37.1458C3.87936 37.3918 4.14865 37.5481 4.36142 37.4683C4.82685 37.2954 4.96316 36.7735 5.67793 36.6937C5.8641 36.6704 5.91065 36.451 5.70453 36.431C5.12606 36.3645 4.39134 36.5274 4.02564 37.1458Z" fill="#99F4FF"/>
<path fill-rule="evenodd" clip-rule="evenodd" d="M2.8657 25.7993C2.71942 25.5566 2.99535 25.3072 3.2048 25.4003C3.48073 25.52 4.0459 26.5706 4.76067 26.6504C4.94685 26.6736 4.99672 26.8764 4.78727 26.8797C4.24205 26.8864 3.23139 26.421 2.8657 25.7993Z" fill="#99F4FF"/>
<path fill-rule="evenodd" clip-rule="evenodd" d="M14.1661 14.8415C14.3456 14.5822 14.7313 14.7185 14.718 15.0077C14.6947 15.503 14.5784 15.8222 14.9308 16.4472C15.0205 16.6101 14.8709 16.7763 14.7313 16.6234C14.3423 16.1912 13.7605 15.4366 14.1661 14.8415Z" fill="#99F4FF"/>
<path fill-rule="evenodd" clip-rule="evenodd" d="M12.1277 12.2385C11.9981 12.8103 11.0872 12.6108 11.1437 12.0091C11.2068 11.301 12.2541 11.68 12.1277 12.2385Z" fill="#99F4FF"/>
<path fill-rule="evenodd" clip-rule="evenodd" d="M37.6673 2.15849C37.8601 1.94905 38.0496 2.14519 38.0197 2.37126C37.9798 2.66714 37.3847 3.50825 37.511 4.21637C37.5409 4.39922 37.3581 4.5056 37.2982 4.30613C37.1387 3.78423 37.1786 2.68382 37.6673 2.15849Z" fill="#99F4FF"/>
<path fill-rule="evenodd" clip-rule="evenodd" d="M49.9812 7.09198C50.2206 7.06538 50.317 7.2981 50.1874 7.44438C49.9513 7.70369 49.5723 7.41114 48.9573 8.33535C48.8675 8.46833 48.7113 8.51155 48.7678 8.342C48.924 7.86997 49.3695 7.15515 49.9812 7.09198Z" fill="#99F4FF"/>
<path fill-rule="evenodd" clip-rule="evenodd" d="M57.2881 12.0123C57.2815 12.2184 57.7369 11.6533 57.9098 11.62C58.1824 11.5635 58.5647 11.9691 58.6611 11.7065C58.7642 11.4338 58.3752 11.128 57.9996 11.1346C57.5973 11.1413 57.3014 11.61 57.2881 12.0123Z" fill="#99F4FF"/>
<path fill-rule="evenodd" clip-rule="evenodd" d="M63.522 17.1122C63.8677 17.4114 63.4921 17.8835 63.266 17.817C62.6875 17.6441 63.1829 16.8163 63.522 17.1122Z" fill="#99F4FF"/>
<path fill-rule="evenodd" clip-rule="evenodd" d="M59.9251 18.3989C60.59 18.3889 60.6199 19.1436 60.3108 19.2898C59.5195 19.6655 59.2702 18.4088 59.9251 18.3989Z" fill="#99F4FF"/>
<path fill-rule="evenodd" clip-rule="evenodd" d="M72.9571 26.2879C73.09 26.0884 73.1333 25.869 72.9471 25.9156C72.608 26.002 72.4717 26.5505 71.4311 26.6669C71.2715 26.6835 71.1618 26.8032 71.338 26.8331C71.83 26.9129 72.618 26.7999 72.9571 26.2879Z" fill="#99F4FF"/>
<path fill-rule="evenodd" clip-rule="evenodd" d="M69.8955 29.4696C70.361 29.5295 70.1515 30.108 69.9155 30.1113C69.5664 30.1179 69.4501 29.4098 69.8955 29.4696Z" fill="#99F4FF"/>
<path fill-rule="evenodd" clip-rule="evenodd" d="M67.5412 43.3829C67.2752 43.1734 66.8131 43.7752 66.1482 43.4992C65.9786 43.4294 65.8656 43.6256 66.0551 43.712C67.1954 44.2406 67.867 43.6356 67.5412 43.3829Z" fill="#99F4FF"/>
<path fill-rule="evenodd" clip-rule="evenodd" d="M38.5217 68.1278C38.3289 68.4104 38.1095 68.3207 38.0696 68.0514C38.0031 67.5627 38.4752 66.9975 38.3754 65.8672C38.3555 65.6444 38.412 65.4449 38.5417 65.6577C38.9074 66.2561 39.0071 67.4163 38.5217 68.1278Z" fill="#99F4FF"/>
<path fill-rule="evenodd" clip-rule="evenodd" d="M44.7589 63.573C44.3334 63.6462 44.3799 64.5471 44.8387 64.5737C45.5136 64.6136 45.2443 63.4866 44.7589 63.573Z" fill="#99F4FF"/>
<path fill-rule="evenodd" clip-rule="evenodd" d="M57.0588 54.0977C57.2483 53.8883 57.1553 53.5957 56.9292 53.5891C56.763 53.5825 56.4505 53.9216 56.0415 54.0712C55.7058 54.1908 55.2869 54.1443 54.981 54.0346C54.8081 53.9747 54.6951 54.1011 54.858 54.2307C55.3766 54.643 56.497 54.7194 57.0588 54.0977Z" fill="#99F4FF"/>
<path fill-rule="evenodd" clip-rule="evenodd" d="M37.1046 11.0419C49.0564 11.0419 58.7442 20.7297 58.7442 32.6814C58.7442 44.6332 49.0564 54.3243 37.1046 54.3243C25.1529 54.3243 15.4618 44.6332 15.4618 32.6814C15.4618 20.7297 25.1529 11.0419 37.1046 11.0419Z" fill="#19E1FE"/>
<path fill-rule="evenodd" clip-rule="evenodd" d="M37.1046 51.5517C26.6822 51.5517 18.2344 43.1039 18.2344 32.6814C18.2344 22.2623 26.6822 13.8112 37.1046 13.8112C47.5238 13.8112 55.9749 22.2623 55.9749 32.6814C55.9749 43.104 47.5238 51.5517 37.1046 51.5517ZM37.1046 53.4001C48.5444 53.4001 57.82 44.1246 57.82 32.6815C57.82 21.2417 48.5444 11.9662 37.1046 11.9662C25.6615 11.9662 16.386 21.2417 16.386 32.6815C16.386 44.1246 25.6615 53.4001 37.1046 53.4001Z" fill="#99F4FF"/>
<path fill-rule="evenodd" clip-rule="evenodd" d="M19.5618 32.6173C19.5618 42.5311 27.5939 50.5632 37.5078 50.5632C47.4183 50.5632 55.4538 42.5311 55.4538 32.6173C55.4538 22.7068 47.4183 14.6713 37.5078 14.6713C27.5939 14.6713 19.5618 22.7068 19.5618 32.6173Z" fill="white"/>
</svg>
