<svg width="2052" height="88" viewBox="0 0 2052 88" fill="none" xmlns="http://www.w3.org/2000/svg">
<path fill-rule="evenodd" clip-rule="evenodd" d="M0 33.8645C53.4032 22.281 103.38 0.135803 103.38 0.135803C103.38 0.135803 154.177 50.9925 236.421 50.9925C318.663 50.9925 371.879 15.6818 371.879 15.6818C371.879 15.6818 440.82 56.9905 508.55 53.0999C576.278 49.2154 628.284 11.7953 628.284 11.7953C663.548 26.8425 710.22 54.1033 767.779 52.002C806.346 50.5964 859.48 31.8556 897.994 5.96553C897.994 5.96553 924.344 34.4534 1026 34.6832V87.083H0V33.8645Z" fill="#24B9FF"/>
<path fill-rule="evenodd" clip-rule="evenodd" d="M1026 87.0829H0V66.2388C53.1877 57.8994 102.807 42.1134 102.807 42.1134C102.807 42.1134 153.606 78.6266 235.85 78.6266C318.092 78.6266 371.309 53.2742 371.309 53.2742C371.309 53.2742 440.25 82.9338 507.98 80.1431C575.71 77.3544 627.718 50.4856 627.718 50.4856C662.981 61.2914 709.654 80.8633 767.212 79.353C805.778 78.3435 858.912 64.8885 897.426 46.3016C897.426 46.3016 923.878 66.8277 1026 66.92V87.0829H1026Z" fill="#00FFFF"/>
<path fill-rule="evenodd" clip-rule="evenodd" d="M101.467 11.6476C118.076 41.4036 171.781 47.5513 174.403 51.959C170.316 57.0418 137.207 51.2285 131.262 49.7367C119.198 45.8995 108.017 43.3284 97.7161 41.6416C74.6414 47.3913 32.0338 46.8557 32.0338 46.8557C32.0338 46.8557 44.672 44.026 58.285 38.7277C35.436 39.0027 20.3333 42.2264 13.0385 38.6723C70.5231 29.5061 98.4446 11.2474 101.467 11.6476Z" fill="white"/>
<path fill-rule="evenodd" clip-rule="evenodd" d="M371.784 23.4713C403.508 48.4277 460.841 56.9763 463.467 61.384C409.416 64.5605 380.68 40.2217 366.147 45.5179C346.091 52.8251 297.067 58.5646 287.888 54.0933C350.513 42.2307 368.758 23.0691 371.784 23.4713Z" fill="white"/>
<path fill-rule="evenodd" clip-rule="evenodd" d="M630.607 24.0806C662.331 47.9946 719.666 54.6636 722.29 58.9851C668.241 63.9365 639.501 40.5397 624.97 46.3099C604.914 54.2737 555.89 61.6177 546.713 57.4501C609.338 43.5335 627.585 23.7748 630.607 24.0806Z" fill="white"/>
<path fill-rule="evenodd" clip-rule="evenodd" d="M899.109 21.0743C930.835 46.0286 988.165 54.5772 990.792 58.9849C936.74 62.1635 908.002 37.8227 893.472 43.1189C873.416 50.4261 824.391 56.1634 815.215 51.6942C877.84 39.8316 896.084 20.6721 899.109 21.0743Z" fill="white"/>
<path fill-rule="evenodd" clip-rule="evenodd" d="M1026 33.8645C1079.4 22.281 1129.38 0.135803 1129.38 0.135803C1129.38 0.135803 1180.18 50.9925 1262.42 50.9925C1344.66 50.9925 1397.88 15.6818 1397.88 15.6818C1397.88 15.6818 1466.82 56.9905 1534.55 53.0999C1602.28 49.2154 1654.28 11.7953 1654.28 11.7953C1689.55 26.8425 1736.22 54.1033 1793.78 52.002C1832.35 50.5964 1885.48 31.8556 1923.99 5.96553C1923.99 5.96553 1950.34 34.4534 2052 34.6832V87.083H1026V33.8645Z" fill="#24B9FF"/>
<path fill-rule="evenodd" clip-rule="evenodd" d="M2052 87.0829H1026V66.2388C1079.19 57.8994 1128.81 42.1134 1128.81 42.1134C1128.81 42.1134 1179.61 78.6266 1261.85 78.6266C1344.09 78.6266 1397.31 53.2742 1397.31 53.2742C1397.31 53.2742 1466.25 82.9338 1533.98 80.1431C1601.71 77.3544 1653.72 50.4856 1653.72 50.4856C1688.98 61.2914 1735.65 80.8633 1793.21 79.353C1831.78 78.3435 1884.91 64.8885 1923.43 46.3016C1923.43 46.3016 1949.88 66.8277 2052 66.92V87.0829H2052Z" fill="#00FFFF"/>
<path fill-rule="evenodd" clip-rule="evenodd" d="M1127.47 11.6476C1144.08 41.4036 1197.78 47.5513 1200.4 51.959C1196.32 57.0418 1163.21 51.2285 1157.26 49.7367C1145.2 45.8995 1134.02 43.3284 1123.72 41.6416C1100.64 47.3913 1058.03 46.8557 1058.03 46.8557C1058.03 46.8557 1070.67 44.026 1084.29 38.7277C1061.44 39.0027 1046.33 42.2264 1039.04 38.6723C1096.52 29.5061 1124.44 11.2474 1127.47 11.6476Z" fill="white"/>
<path fill-rule="evenodd" clip-rule="evenodd" d="M1397.78 23.4713C1429.51 48.4277 1486.84 56.9763 1489.47 61.384C1435.42 64.5605 1406.68 40.2217 1392.15 45.5179C1372.09 52.8251 1323.07 58.5646 1313.89 54.0933C1376.51 42.2307 1394.76 23.0691 1397.78 23.4713Z" fill="white"/>
<path fill-rule="evenodd" clip-rule="evenodd" d="M1656.61 24.0806C1688.33 47.9946 1745.67 54.6636 1748.29 58.9851C1694.24 63.9365 1665.5 40.5397 1650.97 46.3099C1630.91 54.2737 1581.89 61.6177 1572.71 57.4501C1635.34 43.5335 1653.58 23.7748 1656.61 24.0806Z" fill="white"/>
<path fill-rule="evenodd" clip-rule="evenodd" d="M1925.11 21.0743C1956.83 46.0286 2014.17 54.5772 2016.79 58.9849C1962.74 62.1635 1934 37.8227 1919.47 43.1189C1899.42 50.4261 1850.39 56.1634 1841.21 51.6942C1903.84 39.8316 1922.08 20.6721 1925.11 21.0743Z" fill="white"/>
</svg>
