<svg width="174" height="164" viewBox="0 0 174 164" fill="none" xmlns="http://www.w3.org/2000/svg">
<path d="M76.4681 27.3847C70.02 22.7673 63.1428 22.1255 55.9347 24.6115C53.3068 25.5167 51.297 27.4488 49.7331 29.766C47.3045 33.3565 45.5751 37.2747 44.653 41.5003C44.2781 43.2128 44.3455 45.02 44.1902 47.0095C45.2846 47.1851 46.0986 47.3235 46.9194 47.4519C52.3813 48.2997 57.5053 50.0629 62.116 53.1637C65.666 55.5484 68.6452 58.4972 70.5537 62.3647C71.1617 63.5942 71.55 64.996 71.7088 66.3607C71.7899 67.0666 71.3339 68.0562 70.7934 68.5629C70.0841 69.2249 69.1485 68.7689 68.4595 68.2015C67.6184 67.509 66.828 66.7524 66.041 65.9992C62.0687 62.1992 57.7216 58.9363 52.6482 56.7374C48.3145 54.8594 43.8187 53.7041 39.0459 53.8156C32.9085 53.9608 27.5952 56.1631 23.2987 60.4833C17.1444 66.6713 12.7062 73.9437 10.4701 82.4354C8.77106 88.8903 9.22359 95.2642 11.6657 101.479C14.2261 107.992 18.7861 112.589 25.2613 115.179C30.0611 117.098 35.0601 118.371 40.2618 118.402C45.9432 118.432 51.6314 118.284 57.3128 118.115C58.8564 118.071 60.3967 117.696 61.9302 117.426C62.8962 117.257 63.7305 116.946 63.6765 115.659C63.663 115.308 64.0987 114.659 64.3622 114.639C64.8182 114.605 65.4397 114.831 65.7538 115.173C66.9428 116.446 66.6996 118.581 65.085 119.658C63.9467 120.418 62.5956 121.074 61.2614 121.28C57.4952 121.861 53.6918 122.202 49.8986 122.604C48.7501 122.725 47.5916 122.739 46.4263 122.8C45.4636 127.647 44.9941 132.349 45.8149 137.091C46.0514 138.462 46.4297 139.837 46.9532 141.124C48.8786 145.873 51.6011 150.136 55.3571 153.645C59.1943 157.226 63.6462 159.408 69.0708 159.127C71.2225 159.016 73.3031 158.546 75.0629 157.371C78.2313 155.257 81.3321 153.031 84.3282 150.676C86.3278 149.106 87.4019 146.792 88.3949 144.478C88.7732 143.593 88.7598 142.84 88.1586 142.087C85.1996 138.388 83.6358 133.936 81.5348 129.775C81.1869 129.086 80.8423 128.336 80.7579 127.586C80.6869 126.944 80.8423 126.174 81.17 125.62C81.6395 124.823 82.5683 124.941 83.0108 125.769C86.1893 131.707 90.5837 136.787 94.7586 141.985C98.5992 146.761 103.622 150.278 108.986 153.24C113.846 155.925 119.177 156.439 124.601 156.543C137.906 156.8 147.996 150.585 155.092 139.992C167.188 121.938 158.183 101.422 143.608 93.3658C142.382 92.6869 141.061 92.1836 139.828 91.5182C139.014 91.0825 138.149 90.6231 137.525 89.9678C135.315 87.6506 136.369 83.9013 139.517 83.4453C145.949 82.5164 151.008 78.8381 156.197 75.4535C159.227 73.4776 161.476 70.62 163.327 67.5023C165.448 63.9286 166.141 60.105 165.171 56.028C163.554 49.2083 159.828 43.9796 153.501 40.7707C146.128 37.0315 138.335 35.6365 130.137 36.7984C126.435 37.3254 122.757 38.0212 119.062 38.609C118.065 38.7677 117.048 38.9096 116.045 38.8825C114.927 38.8521 114.41 38.1259 114.92 37.1667C115.454 36.1601 116.191 35.1805 117.059 34.4509C120.376 31.6642 124.071 29.4586 128.317 28.4892C130.36 28.0231 131.33 26.9523 131.921 25.081C133.92 18.7579 134.13 13.8027 126.175 8.42188C122.612 6.01016 118.585 4.83809 114.316 4.50707C111.039 4.25374 107.959 5.0137 105.061 6.49653C100.977 8.58399 97.4947 11.4179 94.7046 15.0727C93.1238 17.1432 92.4517 18.7004 91.9078 21.5884C92.455 21.7438 93.0326 21.8756 93.5899 22.0715C96.005 22.9294 98.5283 23.5779 100.795 24.7263C104.453 26.5841 106.442 29.8098 106.871 33.8699C106.986 34.9576 106.719 36.2175 106.233 37.2072C105.571 38.5549 104.365 38.5414 103.446 37.349C103.021 36.7984 102.7 36.1601 102.379 35.5386C99.7747 30.4956 95.387 28.908 90.0771 29.3471C85.1118 29.7558 81.4436 32.2149 79.2615 36.7613C77.8125 39.7811 76.3769 42.8108 74.9076 45.8204C74.6036 46.4453 74.2422 47.0702 73.7862 47.587C72.908 48.5767 71.702 48.8402 70.6043 48.4045C69.5268 47.9755 68.7668 46.9047 68.831 45.6347C68.8715 44.7902 69.091 43.9458 69.3072 43.1182C69.8544 41.0071 70.4624 38.913 71.013 36.8019C71.7764 33.8835 73.1241 31.2826 75.0968 28.9992C75.5359 28.4892 75.9682 27.969 76.4681 27.3847Z" fill="#89F7FF"/>
<path d="M79.3642 23.2628C76.3782 19.1724 72.0682 17.7504 67.3664 17.3282C64.1203 17.0377 60.8169 16.7877 57.5844 17.0512C49.6939 17.693 43.6478 23.0028 41.513 30.6027C40.1754 35.3586 40.145 40.1314 40.9692 44.9548C41.0198 45.2453 41.0334 45.5426 41.0773 45.9851C38.8817 46.0628 36.801 46.0831 34.7271 46.2182C28.4309 46.6303 22.6516 48.5217 17.6525 52.467C6.31338 61.4214 0.223261 73.176 0.00370609 87.572C-0.286781 106.467 14.4842 121.431 33.3152 121.883C35.0851 121.927 36.8518 121.964 38.5947 122.005C38.696 124.535 38.7771 126.845 38.8818 129.159C39.054 132.939 39.939 136.543 41.4894 140.002C43.7694 145.078 46.4209 149.915 50.2817 153.982C54.7167 158.654 60.0063 162.079 66.5186 162.373C75.7028 162.781 83.1878 159.164 88.376 151.337C88.805 150.689 89.1462 149.983 89.5077 149.294C89.8657 148.612 90.2 147.916 90.6459 147.027C91.2775 147.689 91.8045 148.227 92.3112 148.784C96.1247 152.955 100.394 156.532 105.353 159.312C112.544 163.339 120.198 164.007 128.23 163.122C145.991 161.167 167.605 143.383 166.308 118.627C165.653 106.109 160.086 95.9692 150.621 87.8828C149.993 87.3458 149.328 86.8492 148.456 86.1567C149.622 85.5622 150.53 85.1536 151.385 84.6571C154.411 82.9007 157.499 81.2286 160.407 79.2898C162.14 78.1346 163.66 76.6214 165.129 75.1284C179.312 60.7222 172.411 40.5773 160.116 32.7713C153.567 28.6132 146.338 26.6845 138.657 26.2454C137.901 26.2015 137.144 26.1475 136.347 26.0969C136.759 24.6275 137.218 23.3777 137.458 22.0874C138.536 16.2304 136.921 11.1164 132.314 7.40764C125.916 2.25318 118.442 -0.313888 110.176 0.030644C103.718 0.300865 98.4587 3.52666 93.7164 7.6205C89.9333 10.8834 87.0824 14.8557 85.5185 19.6487C85.1706 20.7127 84.6639 21.3342 83.5324 21.6416C82.1981 21.9996 80.9281 22.638 79.3642 23.2628ZM74.8482 26.5191C74.3517 27.1034 73.9159 27.6236 73.4734 28.137C71.5008 30.417 70.153 33.0213 69.3896 35.9397C68.8391 38.0508 68.2312 40.145 67.684 42.2561C67.4678 43.0836 67.2482 43.928 67.2076 44.7725C67.1468 46.0425 67.9034 47.1133 68.9809 47.5423C70.0787 47.978 71.2846 47.7145 72.1628 46.7248C72.6188 46.208 72.9802 45.5831 73.2842 44.9582C74.7536 41.9486 76.1891 38.9188 77.6382 35.899C79.8202 31.3526 83.4885 28.8936 88.4538 28.4849C93.767 28.0458 98.1513 29.6333 100.756 34.6763C101.076 35.2978 101.397 35.9362 101.823 36.4868C102.742 37.6758 103.948 37.6893 104.61 36.345C105.096 35.3587 105.363 34.0954 105.248 33.0077C104.816 28.951 102.83 25.7219 99.1714 23.8641C96.9049 22.7123 94.3818 22.0637 91.9667 21.2092C91.4127 21.0133 90.8351 20.8816 90.2845 20.7262C90.8317 17.8382 91.5005 16.281 93.0813 14.2105C95.8713 10.5557 99.3572 7.72179 103.438 5.63434C106.336 4.1515 109.42 3.39154 112.693 3.64487C116.962 3.97589 120.988 5.14796 124.552 7.55969C132.503 12.9438 132.294 17.8957 130.297 24.2188C129.706 26.0901 128.737 27.1609 126.693 27.627C122.448 28.593 118.752 30.802 115.435 33.5887C114.567 34.3183 113.831 35.3013 113.297 36.3045C112.787 37.2637 113.304 37.9899 114.422 38.0203C115.425 38.0474 116.442 37.9055 117.438 37.7468C121.134 37.159 124.809 36.4598 128.514 35.9363C136.712 34.7743 144.504 36.1693 151.878 39.9085C158.208 43.1174 161.93 48.3427 163.548 55.1658C164.514 59.2394 163.822 63.0664 161.704 66.6401C159.853 69.7578 157.603 72.6154 154.573 74.5913C149.385 77.9725 144.325 81.6542 137.894 82.5831C134.749 83.0357 133.692 86.785 135.901 89.1056C136.526 89.7609 137.391 90.2168 138.205 90.6559C139.438 91.3179 140.758 91.8247 141.984 92.5036C156.556 100.56 165.561 121.079 153.469 139.13C146.372 149.723 136.286 155.938 122.978 155.681C117.553 155.576 112.223 155.063 107.362 152.378C101.999 149.415 96.9758 145.899 93.1353 141.123C88.957 135.928 84.5659 130.845 81.3875 124.906C80.945 124.079 80.0161 123.961 79.5466 124.758C79.219 125.312 79.0636 126.082 79.1345 126.724C79.219 127.474 79.5635 128.223 79.9114 128.912C82.0124 133.074 83.5763 137.526 86.5352 141.224C87.1365 141.978 87.15 142.728 86.7717 143.616C85.7786 145.93 84.7078 148.24 82.7048 149.814C79.7088 152.165 76.6079 154.394 73.4396 156.509C71.6764 157.684 69.5991 158.154 67.4475 158.265C62.0228 158.546 57.5709 156.367 53.7338 152.783C49.9777 149.274 47.2552 145.014 45.3299 140.262C44.8063 138.975 44.428 137.6 44.1916 136.229C43.3742 131.486 43.8437 126.784 44.803 121.937C45.9683 121.873 47.1269 121.863 48.2753 121.741C52.0686 121.339 55.8719 120.998 59.6381 120.417C60.9723 120.211 62.3235 119.556 63.4618 118.796C65.0763 117.719 65.3195 115.58 64.1306 114.31C63.813 113.973 63.1949 113.743 62.7389 113.777C62.472 113.797 62.0363 114.445 62.0532 114.797C62.1072 116.087 61.2729 116.394 60.3069 116.563C58.7734 116.834 57.2365 117.209 55.6894 117.252C50.0081 117.421 44.3234 117.567 38.6386 117.54C33.4368 117.513 28.4377 116.239 23.6379 114.317C17.1628 111.726 12.6028 107.129 10.0425 100.617C7.60034 94.4052 7.14771 88.0314 8.84672 81.5731C11.0828 73.0814 15.5246 65.8091 21.6755 59.6211C25.972 55.2976 31.2852 53.0953 37.4226 52.9534C42.1953 52.8419 46.6912 53.9971 51.0248 55.8751C56.0982 58.074 60.4454 61.337 64.4176 65.137C65.2046 65.8902 65.9951 66.6468 66.8361 67.3393C67.5252 67.9067 68.4607 68.3627 69.1701 67.7007C69.7139 67.194 70.17 66.2077 70.0855 65.4984C69.9268 64.1371 69.5383 62.7354 68.9303 61.5025C67.0219 57.635 64.0427 54.6862 60.4927 52.3015C55.8821 49.2007 50.7579 47.4409 45.2961 46.5897C44.4787 46.4613 43.6613 46.3263 42.5669 46.1473C42.7189 44.1578 42.6547 42.3506 43.0296 40.6381C43.9518 36.4125 45.6812 32.4977 48.1098 28.9038C49.6737 26.5866 51.6835 24.6579 54.3114 23.7493C61.5229 21.2599 68.3967 21.8983 74.8482 26.5191Z" fill="#3D3838"/>
</svg>
