<svg width="226" height="242" viewBox="0 0 226 242" fill="none" xmlns="http://www.w3.org/2000/svg">
<path d="M165.429 185.666C162.034 183.217 158.639 180.766 155.244 178.317C156.971 191.197 150.42 204.812 139.277 211.5C126.76 202.209 123.003 193.219 121.799 187.159C121.484 185.574 121.349 184.217 121.048 179.899C120.367 170.152 119.939 161.108 119.681 152.867C117.975 158.712 114.782 167.148 108.594 175.987C103.011 183.961 96.9423 189.475 92.3775 193.02C86.8265 175.882 95.1541 157.65 103.276 141.569C100.86 138.393 95.8923 138.305 92.3627 140.169C88.8338 142.032 86.3317 145.324 83.6997 148.324C75.1464 158.074 64.0797 165.599 51.8691 169.97C55.8999 156.578 61.0891 141.757 73.6165 135.539C80.8289 131.959 90.0128 131.547 95.2406 125.423C74.436 122.895 56.4398 105.181 53.5842 84.4184C62.0089 90.7865 70.1975 97.4681 78.1265 104.443C75.3182 98.626 72.4356 91.0386 70.815 81.8947C70.1501 78.144 69.7843 74.6204 69.6166 71.3855C77.9359 69.9088 86.2553 68.4322 94.5752 66.9556C94.4087 64.9838 94.3832 62.8654 94.5725 60.6262C95.6601 47.7646 103.186 38.5859 107.458 34.1856C109.185 38.1985 111.113 44.15 111.312 51.4944C111.394 54.5356 111.166 57.284 110.804 59.6662C111.937 56.7445 113.389 53.6563 115.259 50.5111C123.77 36.2025 136.28 28.5831 144.032 24.8226C142.229 29.4833 140.966 39.2577 132.72 42.7032C128.906 44.2967 123.537 45.9644 123.946 50.0768C121.055 50.5073 118.519 52.767 117.759 55.5902C120.154 56.2761 122.549 56.9627 124.944 57.6492C120.986 58.9919 117.173 60.7653 113.596 62.9281C121.65 66.8468 126.857 75.962 126.142 84.8904C122.663 86.5473 116.633 90.0195 111.628 96.6872C108.853 100.384 107.201 103.987 106.197 106.779C109.292 103.851 112.735 100.839 116.55 97.8324C123.646 92.2399 130.549 87.8296 136.813 84.351C133.217 93.7152 129.621 103.079 126.025 112.444C128.316 112.578 131.918 113.091 135.823 115.02C141.956 118.05 145.197 122.774 146.489 124.929C144.043 114.131 143.262 102.957 144.182 91.9231C148.551 98.7584 151.354 106.57 152.434 114.604C152.963 118.536 153.082 122.526 152.766 126.48C152.539 129.328 152.107 129.464 154.148 131.193C155.855 132.638 158.485 133.578 160.451 134.66C162.79 135.946 165.667 137.243 167.992 135.931C167.295 137.781 165.739 139.205 163.997 140.141C162.255 141.076 160.321 141.581 158.407 142.077C153.55 143.337 149.994 143.588 153.398 148.805C155.197 151.563 157.794 153.912 159.34 156.823C161.673 161.221 163.399 165.951 164.438 170.82C164.817 172.605 164.776 185.196 165.429 185.666Z" fill="url(#paint0_linear_1025_1954)"/>
<path d="M76.2259 171.467C75.2968 174.586 73.1302 177.16 71.0179 179.637C68.0915 183.068 65.1643 186.5 62.2379 189.931C56.8643 196.231 51.4462 202.575 44.9657 207.731C43.0763 200.821 44.5646 193.406 47.1055 186.709C49.6464 180.012 53.215 173.738 55.6957 167.018C56.9073 163.735 57.9023 160.269 60.1062 157.549C68.7058 146.939 78.8425 162.682 76.2259 171.467Z" fill="url(#paint1_linear_1025_1954)"/>
<path d="M77.0398 147.359C73.7732 150.461 75.0888 156.366 78.6072 159.179C82.1254 161.993 86.9493 162.449 91.4538 162.382C95.9443 162.317 100.418 161.848 104.884 161.381C113.636 160.464 122.388 159.547 131.14 158.631C125.68 157.11 122.234 151.885 117.743 148.428C113.086 144.842 107.175 143.145 101.306 142.82C94.853 142.464 82.1626 142.494 77.0398 147.359Z" fill="url(#paint2_linear_1025_1954)"/>
<path d="M98.0757 205.597C94.2234 204.771 90.2771 203.908 86.96 201.782C82.4669 198.903 79.6669 194.07 77.1218 189.38C73.2463 182.238 69.4509 174.354 70.733 166.33C71.182 163.521 72.3127 160.733 74.3938 158.794C76.4749 156.855 79.61 155.918 82.2757 156.91C84.8307 157.861 86.5229 160.337 87.4798 162.889C88.4367 165.442 88.8257 168.177 89.73 170.748C92.2127 177.807 98.3013 182.991 101.669 189.674C103.492 193.29 104.478 197.273 106.191 200.943C107.608 203.98 109.615 206.656 112.405 208.553C107.63 207.839 102.826 206.615 98.0757 205.597Z" fill="url(#paint3_linear_1025_1954)"/>
<path d="M66.0869 147.003C68.2747 148.048 69.7147 150.21 70.7063 152.423C72.4137 156.231 73.0451 160.857 70.9675 164.477C69.108 167.717 65.5208 169.489 62.1391 171.076C56.6551 173.651 51.1711 176.225 45.6871 178.799C35.5173 183.574 25.1836 188.4 14.0969 190.217C21.0708 184.917 27.7187 179.149 33.5707 172.632C40.124 165.331 52.2293 140.386 66.0869 147.003Z" fill="url(#paint4_linear_1025_1954)"/>
<path d="M61.5061 133.528C63.3343 133.911 65.4055 134.676 65.9581 136.46C66.4213 137.955 65.5419 139.603 64.271 140.515C63.0007 141.427 61.4182 141.765 59.8844 142.072C52.691 143.507 45.3564 144.706 38.0464 144.097C36.1667 143.94 34.2992 143.664 32.4336 143.389C26.5106 142.515 20.5882 141.641 14.6653 140.766C17.8195 141.232 23.4669 138.677 26.6895 138.015C31.143 137.102 35.7636 136.625 40.1588 135.478C47.5619 133.548 53.6467 131.879 61.5061 133.528Z" fill="url(#paint5_linear_1025_1954)"/>
<path d="M72.8899 126.4C76.6989 128.452 80.4 131.183 82.177 135.128C84.301 139.843 83.287 145.333 81.9098 150.318C81.398 152.171 80.7908 154.098 79.4107 155.437C77.78 157.02 75.3502 157.487 73.0793 157.412C66.6533 157.202 60.8636 153.286 56.5591 148.51C52.2546 143.734 49.093 138.059 45.2924 132.873C39.959 125.596 33.0006 118.368 32.9922 109.346C32.9952 112.454 50.9715 118.327 53.6695 119.201C60.1401 121.299 66.8597 123.152 72.8899 126.4Z" fill="url(#paint6_linear_1025_1954)"/>
<path d="M96.5292 124.636C96.6413 122.657 96.7502 120.641 96.2635 118.719C95.1582 114.357 91.1049 111.242 86.7924 109.959C82.48 108.676 77.8836 108.899 73.3885 109.095C67.5907 109.348 61.7891 109.534 55.9869 109.654C55.2039 115.678 59.7956 121.067 64.7008 124.65C71.8059 129.839 80.273 133.147 89.0149 134.149C96.8692 135.05 96.1506 131.313 96.5292 124.636Z" fill="url(#paint7_linear_1025_1954)"/>
<path d="M116.663 113.456C115.15 114.11 113.724 114.824 112.3 115.595C111.592 115.982 110.89 116.38 110.199 116.799C109.484 117.245 108.786 117.748 108.175 118.287C106.92 119.354 105.803 120.519 104.717 121.707C103.634 122.9 102.605 124.12 101.605 125.392L102.634 126.209C103.632 125.008 104.687 123.823 105.772 122.692C106.861 121.563 107.983 120.46 109.179 119.499C109.775 119.002 110.385 118.592 111.027 118.213C111.706 117.826 112.398 117.459 113.095 117.103C114.485 116.396 115.926 115.726 117.349 115.158L116.663 113.456Z" fill="url(#paint8_linear_1025_1954)"/>
<path d="M179.69 61.407C172.987 68.7667 165.974 75.8437 158.677 82.6116C155.478 85.5785 152.198 88.5046 148.705 91.1198L148.702 91.1202C145.923 93.1977 143.012 95.078 139.9 96.6274C138.618 97.267 137.308 97.8443 135.983 98.3899C130.963 100.459 125.74 102.086 121.06 104.838C116.748 107.375 110.297 112.963 110.488 118.606C110.666 123.784 117.724 121.759 122.456 122.215C134.602 123.388 147.097 119.254 156.639 111.696C157.66 110.889 158.647 110.042 159.595 109.161C164.901 104.218 169.108 98.2843 172.278 91.7839C176.853 82.4119 179.262 71.8609 179.69 61.407Z" fill="url(#paint9_linear_1025_1954)"/>
<path d="M179.689 61.4076C172.986 68.7673 165.973 75.8442 158.676 82.6122C155.477 85.5791 152.198 88.5052 148.705 91.1203C153.71 91.1933 163.799 89.7588 164.3 89.7886C164.958 89.8263 165.965 89.555 166.351 89.5009C166.536 89.4751 169.351 90.5856 172.278 91.7841C176.852 82.4125 179.262 71.8615 179.689 61.4076Z" fill="#CAE6C1"/>
<path d="M135.982 98.3895C130.962 100.459 125.74 102.085 121.06 104.837C116.747 107.374 110.297 112.963 110.488 118.606C110.666 123.784 117.723 121.759 122.456 122.215C134.602 123.388 147.097 119.254 156.639 111.696C153.384 108.615 149.582 105.144 148.406 104.318C146.708 103.125 139.186 99.7905 135.982 98.3895Z" fill="#CAE6C1"/>
<path d="M85.6623 124.53C74.2228 127.643 68.1652 135.776 66.5537 138.099C68.3775 138.271 69.8165 138.149 70.778 138.01C72.2784 137.792 73.4942 137.41 73.6409 137.723C73.6701 137.785 73.7112 137.993 72.8185 138.754C71.7551 139.658 71.2235 140.108 69.8087 140.61C67.8847 141.291 61.9511 145.584 55.5273 150.481C48.4194 155.902 40.7097 162.065 37.1604 164.907C35.8827 165.927 33.7799 167.616 31.1578 169.737C31.3161 169.813 31.4769 169.886 31.6364 169.955C36.4855 172.09 42.0682 171.731 47.3753 171.323C56.7888 170.601 66.4239 169.823 75.029 165.935C82.5056 162.555 88.7796 157.005 94.5772 151.198C99.5238 146.246 101.288 143.327 102.038 141.969C105.608 135.509 106.23 129.22 106.278 125.418C103.387 124.368 95.3631 121.89 85.6623 124.53Z" fill="url(#paint10_linear_1025_1954)"/>
<path d="M106.277 125.417C106.277 125.417 102.662 129.216 97.615 133.898C92.5658 138.577 80.8158 149.986 73.0962 156.163C65.3766 162.337 51.2099 165.675 47.0824 165.988C44.8299 166.158 37.7218 168.173 31.6359 169.954C36.4849 172.09 42.0675 171.731 47.3747 171.322C56.7882 170.6 66.4233 169.822 75.0284 165.934C82.505 162.554 88.779 157.004 94.5766 151.198C99.5232 146.245 101.287 143.326 102.038 141.968C105.608 135.508 106.229 129.219 106.277 125.417Z" fill="#CAE6C1"/>
<path d="M95.2888 131.016C95.0432 131.024 87.1405 131.348 82.6721 133.281C78.1309 135.243 73.642 137.724 73.642 137.724C73.6712 137.787 73.7123 137.995 72.8196 138.755C71.7562 139.659 71.2246 140.11 69.8097 140.611C67.8858 141.293 61.9521 145.585 55.5283 150.483C61.3398 149.246 67.7477 147.556 70.7428 145.654C76.9179 141.73 82.8937 136.949 85.7948 135.498C88.6523 134.065 95.0886 131.11 95.2888 131.016Z" fill="#CAE6C1"/>
<path d="M105.402 97.1267C104.45 95.662 103.157 94.4669 101.847 93.3032C101.618 93.1006 101.389 92.8984 101.161 92.6957C97.7186 89.6379 94.4487 86.3869 91.3716 82.9618C89.4076 80.7734 87.439 78.3314 87.1016 75.4102C86.4862 79.269 86.0729 83.2015 86.057 87.1132C86.0369 91.4858 86.5105 95.8337 87.742 100.025C89.1775 104.906 91.7372 109.551 95.3409 113.171C95.3839 113.214 95.4269 113.257 95.4713 113.3C95.8184 113.645 96.1741 113.979 96.541 114.304C96.8865 114.611 97.2715 114.967 97.6832 115.328C99.4325 116.859 101.654 118.476 103.252 116.709C103.329 116.624 103.405 116.535 103.478 116.442C103.594 116.302 103.705 116.152 103.815 115.995C104.366 115.199 104.845 114.217 105.258 113.178C105.988 111.339 106.507 109.319 106.841 107.815C107.643 104.212 107.412 100.223 105.402 97.1267Z" fill="url(#paint11_linear_1025_1954)"/>
<path d="M105.947 109.249C105.947 109.249 105.492 109.219 104.973 109.364C104.454 109.509 103.403 109.761 103.325 109.915C103.248 110.07 101.14 111.992 101.14 111.992L100.514 110.181C100.514 110.181 99.8534 107.306 99.3729 106.442C98.8904 105.579 97.8198 102.437 97.8297 102.254C97.8374 102.069 96.996 100.14 96.996 100.14C96.996 100.14 97.6764 102.416 97.8128 102.998C97.9492 103.58 98.0036 104.085 98.0036 104.085C98.0036 104.085 92.7801 98.3168 91.6847 97.7221C90.6478 97.1573 89.0966 95.8261 88.9355 95.6875C89.11 95.8578 90.9972 97.6803 91.739 98.0245C92.5166 98.3845 97.205 103.495 97.4239 103.847C97.6441 104.198 98.2861 105.521 98.2861 105.521C98.2861 105.521 97.0396 104.97 96.4589 104.736C95.8784 104.503 94.5203 104.207 94.0778 104.044C93.6349 103.88 91.1106 102.823 90.5267 102.443C89.9973 102.098 89.3485 101.479 89.2304 101.365C89.363 101.502 90.2306 102.4 90.4191 102.586C90.6233 102.788 93.6482 104.042 93.9554 104.21C94.2613 104.379 96.2284 104.875 96.7306 105.146C97.2306 105.415 98.7184 106.347 98.7184 106.347C98.7184 106.347 99.5538 107.599 99.6479 108.645C99.7406 109.69 100.35 111.304 100.35 111.304C100.35 111.304 99.8388 110.862 99.5747 110.649C99.3107 110.439 97.5087 109.782 97.0715 109.595C96.6344 109.409 95.5489 108.267 95.1238 107.982C94.7125 107.708 92.6497 106.344 92.5084 106.251C92.637 106.347 94.7119 107.887 94.9715 108.175C95.242 108.472 96.7359 109.725 96.8427 109.759C96.9473 109.791 99.2715 110.666 99.5138 110.904C99.7547 111.143 100.714 112.021 100.707 112.075C100.699 112.129 101.733 115.764 101.733 115.764C101.733 115.764 100.029 114.852 99.8486 114.733C99.6699 114.614 98.1945 113.864 97.8242 113.754C97.649 113.702 96.4978 113.436 95.3437 113.171C95.3866 113.214 95.4295 113.258 95.4739 113.3C96.4641 113.57 97.4123 113.835 97.6691 113.935C98.2615 114.168 102.006 116.549 102.006 116.549L102.271 116.587L102.967 116.481C102.967 116.481 103.164 116.467 103.481 116.443C103.597 116.303 103.708 116.153 103.818 115.996C102.91 116.041 102.222 116.076 102.222 116.076C102.222 116.076 101.644 114.002 101.509 113.525C101.373 113.048 101.186 112.407 101.186 112.407C101.186 112.407 101.834 111.558 102.101 111.248C102.367 110.937 103.372 110.236 103.781 109.965C104.188 109.692 105.947 109.249 105.947 109.249Z" fill="#B3C897"/>
<path d="M101.847 93.3032C101.618 93.1006 101.389 92.8984 101.161 92.6957C97.7186 89.6379 94.4487 86.3869 91.3716 82.9618C89.4076 80.7734 87.439 78.3314 87.1016 75.4102C86.4862 79.269 86.0729 83.2015 86.057 87.1132C86.5164 87.1326 87.0916 87.1095 87.7746 86.9917C89.7562 86.6519 90.3159 86.3524 90.3159 86.3524C90.3159 86.3524 90.8799 88.2777 92.3601 90.6869C93.8409 93.0962 96.6525 97.2378 96.6992 97.9407C96.7462 98.645 98.507 104.345 98.507 104.345C98.507 104.345 99.5571 103.819 101.2 101.499C102.84 99.1781 103.058 98.0103 102.779 96.6501C102.668 96.108 102.284 94.7757 101.847 93.3032Z" fill="#CAE6C1"/>
<path d="M105.258 113.179C104.46 113.916 103.692 114.569 103.311 114.72C102.337 115.109 101.505 114.974 101.505 114.974C101.505 114.974 100.586 115.659 99.2277 115.547C98.9656 115.524 98.4094 115.443 97.6836 115.328C99.4329 116.859 101.654 118.476 103.253 116.709C103.329 116.625 103.405 116.536 103.478 116.443C103.594 116.303 103.705 116.153 103.815 115.996C104.366 115.2 104.846 114.218 105.258 113.179Z" fill="#CAE6C1"/>
<path d="M172.527 135.453C166.561 132.2 159.888 130.225 153.107 129.754C150.235 129.556 145.701 129.038 143 130.238C142.035 130.666 141.635 131.267 141.595 131.964C141.482 133.959 144.344 136.739 145.488 138.473C147.714 141.847 149.972 145.261 152.978 147.959C158.492 152.908 165.99 154.989 173.313 156.113C180.634 157.236 188.122 157.572 195.209 159.728C195.212 159.729 195.212 159.729 195.212 159.729C190.306 149.6 182.409 140.842 172.527 135.453Z" fill="url(#paint12_linear_1025_1954)"/>
<path d="M172.527 135.453C166.561 132.2 159.888 130.225 153.107 129.754C150.235 129.556 145.701 129.038 143 130.238C142.035 130.666 141.635 131.267 141.595 131.964C145.048 133.628 154.796 139.209 158.862 140.731C163.285 142.387 171.676 144.476 176.987 148.096C182.256 151.686 195.012 159.604 195.21 159.729C195.213 159.73 195.213 159.73 195.213 159.73C190.306 149.6 182.409 140.842 172.527 135.453Z" fill="#CAE6C1"/>
<path opacity="0.85" d="M177.649 151.442C177.381 151.361 174.611 150.556 174.331 150.468C174.037 150.376 169.832 147.994 169.491 147.75C169.148 147.505 167.326 145.543 167.077 145.26C166.828 144.977 165.441 144.049 165.441 144.049C165.441 144.049 166.856 143.581 167.239 143.525C167.622 143.469 171.934 144.808 172.294 145.078C172.647 145.342 175.633 145.187 175.763 145.179L172.26 144.754C172.26 144.754 167.534 143.126 167.057 143.189C166.579 143.251 165.112 143.758 165.112 143.758L162.931 142.763L160.063 141.135L157.827 139.967C157.827 139.967 160.557 136.081 160.775 135.789C160.993 135.495 162.525 134.443 162.525 134.443L165.181 132.55C165.039 132.639 162.75 134.053 162.315 134.29C161.867 134.534 161.186 135.135 160.614 135.617C160.043 136.1 157.434 139.844 157.434 139.844C157.434 139.844 155.629 138.977 154.761 138.453C153.892 137.93 151.066 136.653 151.066 136.653C151.066 136.653 151.151 135.948 151.22 135.564C151.287 135.178 151.213 132.961 151.389 132.298C151.563 131.646 153.199 129.46 153.25 129.392C153.201 129.443 151.601 131.097 151.143 132.102C150.675 133.122 150.845 135.022 150.874 135.512C150.903 136.002 150.708 136.575 150.708 136.575L142.515 132.117C142.409 132.056 142.061 131.994 141.739 131.945C141.868 132.049 141.997 132.154 142.124 132.263C142.062 132.356 141.993 132.441 141.916 132.522C142.341 132.728 150.375 137.018 150.65 137.134C151.061 137.308 154.793 139.057 154.793 139.057C154.793 139.057 155.153 139.403 155.321 139.802C155.489 140.203 156.127 143.256 156.3 143.674C156.475 144.089 156.727 146.364 156.783 146.516C156.836 146.658 157.211 148.527 157.257 148.758C157.209 148.398 156.653 144.247 156.511 143.721C156.363 143.17 155.983 140.96 155.906 140.548C155.828 140.133 155.522 139.28 155.522 139.28C155.522 139.28 157.401 140.256 157.564 140.342C157.726 140.429 162.388 142.905 162.388 142.905C162.388 142.905 163.061 144.908 163.164 145.186C163.266 145.462 165.267 148.735 165.267 148.735C165.267 148.735 166.337 150.097 166.394 150.249C166.451 150.401 166.995 150.623 166.995 150.623C166.995 150.623 165.59 148.971 165.469 148.747C165.346 148.523 163.694 145.846 163.329 145.124C162.963 144.402 162.895 143.083 162.895 143.083C162.895 143.083 166.697 145.381 166.82 145.452C166.943 145.522 169.145 147.819 169.373 147.966C169.601 148.112 174.204 150.652 174.286 150.688C174.366 150.719 177.368 151.381 177.649 151.442Z" fill="#B8C8A4"/>
<defs>
<linearGradient id="paint0_linear_1025_1954" x1="186.364" y1="151.374" x2="59.858" y2="74.141" gradientUnits="userSpaceOnUse">
<stop stop-color="#0B190B"/>
<stop offset="1" stop-color="#426A26"/>
</linearGradient>
<linearGradient id="paint1_linear_1025_1954" x1="55.5416" y1="209.71" x2="65.9939" y2="153.845" gradientUnits="userSpaceOnUse">
<stop stop-color="#47722B"/>
<stop offset="1" stop-color="#9AB33B"/>
</linearGradient>
<linearGradient id="paint2_linear_1025_1954" x1="101.282" y1="164.975" x2="105.344" y2="143.263" gradientUnits="userSpaceOnUse">
<stop stop-color="#2D4120"/>
<stop offset="1" stop-color="#76863A"/>
</linearGradient>
<linearGradient id="paint3_linear_1025_1954" x1="88.4447" y1="204.123" x2="96.7876" y2="159.532" gradientUnits="userSpaceOnUse">
<stop stop-color="#2D4120"/>
<stop offset="1" stop-color="#76863A"/>
</linearGradient>
<linearGradient id="paint4_linear_1025_1954" x1="39.5045" y1="194.97" x2="49.1474" y2="143.43" gradientUnits="userSpaceOnUse">
<stop stop-color="#2D4120"/>
<stop offset="1" stop-color="#76863A"/>
</linearGradient>
<linearGradient id="paint5_linear_1025_1954" x1="39.2174" y1="145.361" x2="42.1117" y2="129.892" gradientUnits="userSpaceOnUse">
<stop stop-color="#47722B"/>
<stop offset="1" stop-color="#9AB33B"/>
</linearGradient>
<linearGradient id="paint6_linear_1025_1954" x1="53.0599" y1="153.866" x2="60.4291" y2="114.479" gradientUnits="userSpaceOnUse">
<stop stop-color="#47722B"/>
<stop offset="1" stop-color="#9AB33B"/>
</linearGradient>
<linearGradient id="paint7_linear_1025_1954" x1="78.8714" y1="108.067" x2="73.5314" y2="130.871" gradientUnits="userSpaceOnUse">
<stop stop-color="#47722B"/>
<stop offset="1" stop-color="#9AB33B"/>
</linearGradient>
<linearGradient id="paint8_linear_1025_1954" x1="113.001" y1="116.52" x2="96.9731" y2="129.764" gradientUnits="userSpaceOnUse">
<stop stop-color="#2D4120"/>
<stop offset="1" stop-color="#76863A"/>
</linearGradient>
<linearGradient id="paint9_linear_1025_1954" x1="149.239" y1="119.667" x2="141.807" y2="66.7255" gradientUnits="userSpaceOnUse">
<stop stop-color="#2D4120"/>
<stop offset="1" stop-color="#76863A"/>
</linearGradient>
<linearGradient id="paint10_linear_1025_1954" x1="116.568" y1="142.746" x2="74.8122" y2="146.92" gradientUnits="userSpaceOnUse">
<stop stop-color="#47722B"/>
<stop offset="1" stop-color="#9AB33B"/>
</linearGradient>
<linearGradient id="paint11_linear_1025_1954" x1="82.0537" y1="71.5553" x2="94.8736" y2="95.9899" gradientUnits="userSpaceOnUse">
<stop stop-color="#47722B"/>
<stop offset="1" stop-color="#9AB33B"/>
</linearGradient>
<linearGradient id="paint12_linear_1025_1954" x1="176.725" y1="130.747" x2="166.666" y2="148.779" gradientUnits="userSpaceOnUse">
<stop stop-color="#47722B"/>
<stop offset="1" stop-color="#9AB33B"/>
</linearGradient>
</defs>
</svg>
