<svg width="163" height="54" viewBox="0 0 163 54" fill="none" xmlns="http://www.w3.org/2000/svg">
<g filter="url(#filter0_di_15_967)">
<mask id="path-1-outside-1_15_967" maskUnits="userSpaceOnUse" x="0" y="0.380127" width="161" height="51" fill="black">
<rect fill="white" y="0.380127" width="161" height="51"/>
<path d="M6.30694 47.1929C5.24581 47.1929 4.30952 47.1304 3.37323 47.1304V42.7611L3.06113 25.6582L2.93629 3.93623C2.99871 3.93623 5.80758 3.87381 8.92855 3.87381C10.8636 3.87381 12.9234 3.93623 14.4839 3.99865C22.4736 4.43559 24.2837 9.55398 24.5334 10.2406C26.406 14.6724 27.0926 21.913 27.2174 23.9104C27.3423 25.5958 27.4671 27.2187 27.4671 28.7791C27.4671 37.8924 24.7207 43.3853 15.0457 46.0069C11.675 46.9432 8.80371 47.1929 6.30694 47.1929ZM11.3629 35.3956C15.1081 34.5842 16.1692 30.7766 16.294 30.0275C16.731 28.0301 16.9182 26.0327 16.9182 24.0977C16.9182 22.662 16.7934 21.2264 16.6686 19.8532C16.0444 14.8596 12.4865 14.5475 11.6126 14.5475H11.3629L11.4253 29.7779V30.2148L11.3629 35.3956ZM46.3831 47.3177L45.4468 42.5114L44.4481 36.7064C38.3934 36.8937 39.3921 36.8312 38.5183 36.8937L36.9578 43.3853L36.1463 46.8808H36.0215C34.7107 46.8808 27.9694 46.8184 26.2216 46.6935L27.7197 40.8261C28.5312 37.7051 29.2802 34.5842 30.1541 31.5256C31.9018 25.2837 33.5871 18.9793 35.647 12.7998L38.4558 4.37317L51.3142 3.99865C51.5639 5.30946 52.3754 10.303 52.8747 13.6737C53.3741 16.9195 53.7486 20.2277 54.1855 23.4735C54.8097 27.9053 55.3091 32.3995 56.1205 36.7688L58.0555 47.2553L55.6836 47.3177H46.3831ZM40.8278 26.8441H44.2609L42.8252 20.6022L40.8278 26.8441ZM84.5862 49.0655C83.7748 46.8184 81.5277 39.0159 79.9048 32.774L79.2181 30.1524C73.7877 44.2592 73.3507 44.5088 72.5393 47.6298L59.9306 47.9419C59.993 39.2032 60.0554 30.09 60.0554 21.3512V3.43687C62.3649 3.43687 66.2973 3.43687 68.6693 3.37446C69.1062 22.0379 69.1062 19.4162 68.9814 21.0391C69.8552 19.2914 73.6628 10.7399 75.2857 6.49543L76.5341 3.1872L82.464 3.06236L82.9009 5.37188C85.4601 18.9169 85.5225 18.4175 86.7085 23.0366C87.5199 17.1067 89.2053 4.68526 89.5173 2.93752L100.129 2.99994C99.8165 6.80752 98.8803 14.6724 98.3185 22.7869C98.0688 25.4709 97.944 28.2174 97.8191 30.9014L97.4446 36.644C97.1325 40.514 96.758 45.0082 96.3835 48.8782L89.2677 49.1903L84.5862 49.0655ZM118.434 47.3177L117.497 42.5114L116.499 36.7064C110.444 36.8937 111.443 36.8312 110.569 36.8937L109.008 43.3853L108.197 46.8808H108.072C106.761 46.8808 100.02 46.8184 98.2722 46.6935L99.7702 40.8261C100.582 37.7051 101.331 34.5842 102.205 31.5256C103.952 25.2837 105.638 18.9793 107.697 12.7998L110.506 4.37317L123.365 3.99865C123.614 5.30946 124.426 10.303 124.925 13.6737C125.425 16.9195 125.799 20.2277 126.236 23.4735C126.86 27.9053 127.36 32.3995 128.171 36.7688L130.106 47.2553L127.734 47.3177H118.434ZM112.878 26.8441H116.311L114.876 20.6022L112.878 26.8441ZM132.668 47.1929C132.605 45.9445 132.418 38.0172 132.356 34.2096C132.293 31.2135 132.356 28.155 132.293 25.1588C132.231 20.727 132.106 16.3577 132.043 11.9259L131.981 4.31075C132.917 4.24833 132.356 4.18591 142.468 4.12349C151.206 4.06107 154.889 4.06107 158.072 3.99865V13.1119C155.076 13.2991 145.089 13.2991 142.78 13.4864V20.2901C143.716 20.2277 142.53 20.2901 150.582 19.978V22.0379L150.644 26.4696V27.2187L145.027 27.5308C144.652 27.5932 144.215 27.6556 143.716 27.6556V33.8351L148.148 33.6479C151.081 33.523 155.263 33.4606 158.197 33.4606L158.26 34.709C158.384 38.579 158.447 41.5751 158.447 43.8222V47.0056L155.139 47.1929C154.452 47.2553 153.828 47.1929 153.141 47.1929H132.668Z"/>
</mask>
<path d="M6.30694 47.1929C5.24581 47.1929 4.30952 47.1304 3.37323 47.1304V42.7611L3.06113 25.6582L2.93629 3.93623C2.99871 3.93623 5.80758 3.87381 8.92855 3.87381C10.8636 3.87381 12.9234 3.93623 14.4839 3.99865C22.4736 4.43559 24.2837 9.55398 24.5334 10.2406C26.406 14.6724 27.0926 21.913 27.2174 23.9104C27.3423 25.5958 27.4671 27.2187 27.4671 28.7791C27.4671 37.8924 24.7207 43.3853 15.0457 46.0069C11.675 46.9432 8.80371 47.1929 6.30694 47.1929ZM11.3629 35.3956C15.1081 34.5842 16.1692 30.7766 16.294 30.0275C16.731 28.0301 16.9182 26.0327 16.9182 24.0977C16.9182 22.662 16.7934 21.2264 16.6686 19.8532C16.0444 14.8596 12.4865 14.5475 11.6126 14.5475H11.3629L11.4253 29.7779V30.2148L11.3629 35.3956ZM46.3831 47.3177L45.4468 42.5114L44.4481 36.7064C38.3934 36.8937 39.3921 36.8312 38.5183 36.8937L36.9578 43.3853L36.1463 46.8808H36.0215C34.7107 46.8808 27.9694 46.8184 26.2216 46.6935L27.7197 40.8261C28.5312 37.7051 29.2802 34.5842 30.1541 31.5256C31.9018 25.2837 33.5871 18.9793 35.647 12.7998L38.4558 4.37317L51.3142 3.99865C51.5639 5.30946 52.3754 10.303 52.8747 13.6737C53.3741 16.9195 53.7486 20.2277 54.1855 23.4735C54.8097 27.9053 55.3091 32.3995 56.1205 36.7688L58.0555 47.2553L55.6836 47.3177H46.3831ZM40.8278 26.8441H44.2609L42.8252 20.6022L40.8278 26.8441ZM84.5862 49.0655C83.7748 46.8184 81.5277 39.0159 79.9048 32.774L79.2181 30.1524C73.7877 44.2592 73.3507 44.5088 72.5393 47.6298L59.9306 47.9419C59.993 39.2032 60.0554 30.09 60.0554 21.3512V3.43687C62.3649 3.43687 66.2973 3.43687 68.6693 3.37446C69.1062 22.0379 69.1062 19.4162 68.9814 21.0391C69.8552 19.2914 73.6628 10.7399 75.2857 6.49543L76.5341 3.1872L82.464 3.06236L82.9009 5.37188C85.4601 18.9169 85.5225 18.4175 86.7085 23.0366C87.5199 17.1067 89.2053 4.68526 89.5173 2.93752L100.129 2.99994C99.8165 6.80752 98.8803 14.6724 98.3185 22.7869C98.0688 25.4709 97.944 28.2174 97.8191 30.9014L97.4446 36.644C97.1325 40.514 96.758 45.0082 96.3835 48.8782L89.2677 49.1903L84.5862 49.0655ZM118.434 47.3177L117.497 42.5114L116.499 36.7064C110.444 36.8937 111.443 36.8312 110.569 36.8937L109.008 43.3853L108.197 46.8808H108.072C106.761 46.8808 100.02 46.8184 98.2722 46.6935L99.7702 40.8261C100.582 37.7051 101.331 34.5842 102.205 31.5256C103.952 25.2837 105.638 18.9793 107.697 12.7998L110.506 4.37317L123.365 3.99865C123.614 5.30946 124.426 10.303 124.925 13.6737C125.425 16.9195 125.799 20.2277 126.236 23.4735C126.86 27.9053 127.36 32.3995 128.171 36.7688L130.106 47.2553L127.734 47.3177H118.434ZM112.878 26.8441H116.311L114.876 20.6022L112.878 26.8441ZM132.668 47.1929C132.605 45.9445 132.418 38.0172 132.356 34.2096C132.293 31.2135 132.356 28.155 132.293 25.1588C132.231 20.727 132.106 16.3577 132.043 11.9259L131.981 4.31075C132.917 4.24833 132.356 4.18591 142.468 4.12349C151.206 4.06107 154.889 4.06107 158.072 3.99865V13.1119C155.076 13.2991 145.089 13.2991 142.78 13.4864V20.2901C143.716 20.2277 142.53 20.2901 150.582 19.978V22.0379L150.644 26.4696V27.2187L145.027 27.5308C144.652 27.5932 144.215 27.6556 143.716 27.6556V33.8351L148.148 33.6479C151.081 33.523 155.263 33.4606 158.197 33.4606L158.26 34.709C158.384 38.579 158.447 41.5751 158.447 43.8222V47.0056L155.139 47.1929C154.452 47.2553 153.828 47.1929 153.141 47.1929H132.668Z" fill="#FE1C23"/>
<path d="M3.37323 47.1305H1.3597L1.3597 49.144H3.37323V47.1305ZM3.37323 42.7611H5.38676V42.7427L5.38642 42.7244L3.37323 42.7611ZM3.06113 25.6582L1.04763 25.6698L1.04771 25.6823L1.04794 25.6949L3.06113 25.6582ZM2.93629 3.93623V1.9227H0.911157L0.922795 3.9478L2.93629 3.93623ZM14.4839 3.99865L14.5938 1.98812L14.5791 1.98732L14.5644 1.98673L14.4839 3.99865ZM24.5334 10.2406L22.6411 10.9287L22.6587 10.977L22.6786 11.0243L24.5334 10.2406ZM27.2174 23.9104L25.2078 24.036L25.2085 24.0476L25.2094 24.0592L27.2174 23.9104ZM15.0457 46.0069L14.519 44.0634L14.5067 44.0668L15.0457 46.0069ZM11.3629 35.3956L9.34953 35.3713L9.31908 37.8987L11.7893 37.3635L11.3629 35.3956ZM16.294 30.0275L14.327 29.5973L14.3162 29.6466L14.3079 29.6965L16.294 30.0275ZM16.6686 19.8532L18.6738 19.6709L18.6707 19.6371L18.6665 19.6034L16.6686 19.8532ZM11.3629 14.5475V12.534H9.34111L9.3494 14.5558L11.3629 14.5475ZM11.4253 29.7779H13.4389L13.4388 29.7696L11.4253 29.7779ZM11.4253 30.2148L13.4387 30.2391L13.4389 30.2269V30.2148H11.4253ZM6.30694 47.1929V45.1793C5.81293 45.1793 5.34366 45.1648 4.85819 45.1492C4.3823 45.1338 3.88003 45.1169 3.37323 45.1169V47.1305V49.144C3.80271 49.144 4.23673 49.1583 4.72835 49.1741C5.21037 49.1897 5.73982 49.2064 6.30694 49.2064V47.1929ZM3.37323 47.1305H5.38676L5.38676 42.7611H3.37323H1.3597V47.1305H3.37323ZM3.37323 42.7611L5.38642 42.7244L5.07432 25.6214L3.06113 25.6582L1.04794 25.6949L1.36003 42.7978L3.37323 42.7611ZM3.06113 25.6582L5.07463 25.6466L4.94979 3.92466L2.93629 3.93623L0.922795 3.9478L1.04763 25.6698L3.06113 25.6582ZM2.93629 3.93623V5.94976C2.98343 5.94976 3.75778 5.93333 4.81402 5.91835C5.90823 5.90283 7.3806 5.88734 8.92855 5.88734V3.87381V1.86028C7.35553 1.86028 5.86298 1.87601 4.75691 1.8917C4.20354 1.89954 3.74626 1.90739 3.42331 1.91328C3.07264 1.91968 2.92756 1.9227 2.93629 1.9227V3.93623ZM8.92855 3.87381V5.88734C10.8258 5.88734 12.856 5.94867 14.4034 6.01057L14.4839 3.99865L14.5644 1.98673C12.9908 1.92379 10.9013 1.86028 8.92855 1.86028V3.87381ZM14.4839 3.99865L14.3739 6.00917C17.9083 6.20246 19.8974 7.40637 21.0183 8.48005C22.1688 9.5821 22.554 10.6892 22.6411 10.9287L24.5334 10.2406L26.4257 9.55248C26.2631 9.10535 25.6184 7.30997 23.804 5.57193C21.9599 3.80553 19.0491 2.23177 14.5938 1.98812L14.4839 3.99865ZM24.5334 10.2406L22.6786 11.0243C23.5189 13.0129 24.1287 15.7389 24.543 18.3088C24.9524 20.8492 25.1489 23.0929 25.2078 24.036L27.2174 23.9104L29.227 23.7848C29.1611 22.7305 28.9519 20.3552 28.5187 17.668C28.0903 15.0103 27.4205 11.9 26.3882 9.45689L24.5334 10.2406ZM27.2174 23.9104L25.2094 24.0592C25.3358 25.7658 25.4536 27.3083 25.4536 28.7791H27.4671H29.4806C29.4806 27.129 29.3487 25.4257 29.2255 23.7617L27.2174 23.9104ZM27.4671 28.7791H25.4536C25.4536 33.1757 24.7821 36.3543 23.2099 38.7094C21.6697 41.0165 19.0603 42.8329 14.519 44.0635L15.0457 46.0069L15.5723 47.9503C20.706 46.5593 24.3074 44.3184 26.5592 40.9453C28.7789 37.6203 29.4806 33.4958 29.4806 28.7791H27.4671ZM15.0457 46.0069L14.5067 44.0668C11.3426 44.9458 8.65683 45.1793 6.30694 45.1793V47.1929V49.2064C8.9506 49.2064 12.0074 48.9406 15.5846 47.947L15.0457 46.0069ZM11.3629 35.3956L11.7893 37.3635C14.3187 36.8154 15.922 35.2438 16.872 33.7891C17.7988 32.3699 18.1803 30.9575 18.2802 30.3586L16.294 30.0275L14.3079 29.6965C14.2829 29.8466 14.0715 30.7125 13.5002 31.5872C12.9521 32.4265 12.1523 33.1643 10.9365 33.4277L11.3629 35.3956ZM16.294 30.0275L18.2611 30.4578C18.7321 28.3045 18.9318 26.1617 18.9318 24.0977H16.9182H14.9047C14.9047 25.9037 14.7299 27.7557 14.327 29.5973L16.294 30.0275ZM16.9182 24.0977H18.9318C18.9318 22.5585 18.798 21.0374 18.6738 19.6709L16.6686 19.8532L14.6633 20.0355C14.7887 21.4154 14.9047 22.7656 14.9047 24.0977H16.9182ZM16.6686 19.8532L18.6665 19.6034C18.2893 16.5855 16.9605 14.7019 15.3341 13.6412C13.7986 12.6398 12.2459 12.534 11.6126 12.534V14.5475V16.5611C11.8532 16.5611 12.5163 16.6113 13.1343 17.0143C13.6614 17.3581 14.4236 18.1273 14.6706 20.1029L16.6686 19.8532ZM11.6126 14.5475V12.534H11.3629V14.5475V16.5611H11.6126V14.5475ZM11.3629 14.5475L9.3494 14.5558L9.41182 29.7861L11.4253 29.7779L13.4388 29.7696L13.3764 14.5393L11.3629 14.5475ZM11.4253 29.7779H9.4118V30.2148H11.4253H13.4389V29.7779H11.4253ZM11.4253 30.2148L9.41195 30.1905L9.34953 35.3713L11.3629 35.3956L13.3763 35.4199L13.4387 30.2391L11.4253 30.2148ZM46.3831 47.3177L44.4067 47.7027L44.724 49.3312H46.3831V47.3177ZM45.4468 42.5114L43.4624 42.8528L43.4662 42.8747L43.4704 42.8964L45.4468 42.5114ZM44.4481 36.7064L46.4325 36.365L46.1357 34.6397L44.3859 34.6938L44.4481 36.7064ZM38.5183 36.8937L38.3748 34.8853L36.9049 34.9902L36.5605 36.4231L38.5183 36.8937ZM36.9578 43.3853L35 42.9147L34.9982 42.9223L34.9964 42.93L36.9578 43.3853ZM36.1463 46.8808V48.8943H37.746L38.1077 47.3361L36.1463 46.8808ZM26.2216 46.6935L24.2707 46.1954L23.6746 48.5302L26.0782 48.7019L26.2216 46.6935ZM27.7197 40.8261L25.771 40.3194L25.7688 40.328L27.7197 40.8261ZM30.1541 31.5256L32.0902 32.0788L32.093 32.0685L30.1541 31.5256ZM35.647 12.7998L37.5572 13.4365L35.647 12.7998ZM38.4558 4.37317L38.3972 2.36049L36.9906 2.40146L36.5457 3.73643L38.4558 4.37317ZM51.3142 3.99865L53.2922 3.62189L52.9711 1.93601L51.2556 1.98597L51.3142 3.99865ZM52.8747 13.6737L50.8829 13.9687L50.8846 13.9798L52.8747 13.6737ZM54.1855 23.4735L52.19 23.7421L52.1917 23.7543L54.1855 23.4735ZM56.1205 36.7688L58.1006 36.4035L58.1002 36.4012L56.1205 36.7688ZM58.0555 47.2553L58.1085 49.2681L60.463 49.2062L60.0356 46.8899L58.0555 47.2553ZM55.6836 47.3177V49.3312H55.7101L55.7366 49.3305L55.6836 47.3177ZM40.8278 26.8441L38.9101 26.2305L38.0693 28.8577H40.8278V26.8441ZM44.2609 26.8441V28.8577H46.7901L46.2231 26.3928L44.2609 26.8441ZM42.8252 20.6022L44.7875 20.1509L43.1432 13.0018L40.9075 19.9885L42.8252 20.6022ZM46.3831 47.3177L48.3595 46.9327L47.4232 42.1264L45.4468 42.5114L43.4704 42.8964L44.4067 47.7027L46.3831 47.3177ZM45.4468 42.5114L47.4312 42.17L46.4325 36.365L44.4481 36.7064L42.4637 37.0478L43.4624 42.8528L45.4468 42.5114ZM44.4481 36.7064L44.3859 34.6938C38.4176 34.8784 39.3007 34.8191 38.3748 34.8853L38.5183 36.8937L38.6617 38.9021C39.4836 38.8434 38.3693 38.9089 44.5104 38.719L44.4481 36.7064ZM38.5183 36.8937L36.5605 36.4231L35 42.9147L36.9578 43.3853L38.9155 43.8559L40.476 37.3643L38.5183 36.8937ZM36.9578 43.3853L34.9964 42.93L34.185 46.4255L36.1463 46.8808L38.1077 47.3361L38.9192 43.8406L36.9578 43.3853ZM36.1463 46.8808V44.8672H36.0215V46.8808V48.8943H36.1463V46.8808ZM36.0215 46.8808V44.8672C34.6874 44.8672 28.0259 44.8037 26.3651 44.6851L26.2216 46.6935L26.0782 48.7019C27.9129 48.833 34.734 48.8943 36.0215 48.8943V46.8808ZM26.2216 46.6935L28.1726 47.1916L29.6707 41.3242L27.7197 40.8261L25.7688 40.328L24.2707 46.1954L26.2216 46.6935ZM27.7197 40.8261L29.6685 41.3328C30.493 38.1613 31.2247 35.1077 32.0901 32.0788L30.1541 31.5256L28.218 30.9724C27.3357 34.0606 26.5693 37.249 25.771 40.3194L27.7197 40.8261ZM30.1541 31.5256L32.093 32.0685C33.8499 25.7939 35.5173 19.556 37.5572 13.4365L35.647 12.7998L33.7368 12.1631C31.6569 18.4026 29.9537 24.7734 28.2151 30.9827L30.1541 31.5256ZM35.647 12.7998L37.5572 13.4365L40.3661 5.0099L38.4558 4.37317L36.5457 3.73643L33.7368 12.1631L35.647 12.7998ZM38.4558 4.37317L38.5145 6.38584L51.3729 6.01132L51.3142 3.99865L51.2556 1.98597L38.3972 2.36049L38.4558 4.37317ZM51.3142 3.99865L49.3363 4.3754C49.5778 5.64319 50.3842 10.6024 50.8829 13.9687L52.8747 13.6737L54.8665 13.3786C54.3665 10.0036 53.5501 4.97573 53.2922 3.62189L51.3142 3.99865ZM52.8747 13.6737L50.8846 13.9798C51.3809 17.2056 51.7448 20.4347 52.19 23.7421L54.1855 23.4735L56.1811 23.2049C55.7524 20.0207 55.3673 16.6333 54.8648 13.3675L52.8747 13.6737ZM54.1855 23.4735L52.1917 23.7543C52.8046 28.1062 53.3189 32.7104 54.1409 37.1365L56.1205 36.7688L58.1002 36.4012C57.2993 32.0886 56.8148 27.7044 56.1794 23.1927L54.1855 23.4735ZM56.1205 36.7688L54.1404 37.1342L56.0754 47.6207L58.0555 47.2553L60.0356 46.8899L58.1006 36.4035L56.1205 36.7688ZM58.0555 47.2553L58.0026 45.2425L55.6306 45.3049L55.6836 47.3177L55.7366 49.3305L58.1085 49.2681L58.0555 47.2553ZM55.6836 47.3177V45.3042H46.3831V47.3177V49.3312H55.6836V47.3177ZM40.8278 26.8441V28.8577H44.2609V26.8441V24.8306H40.8278V26.8441ZM44.2609 26.8441L46.2231 26.3928L44.7875 20.1509L42.8252 20.6022L40.8629 21.0535L42.2986 27.2955L44.2609 26.8441ZM42.8252 20.6022L40.9075 19.9885L38.9101 26.2305L40.8278 26.8441L42.7455 27.4578L44.7429 21.2159L42.8252 20.6022ZM84.5862 49.0654L82.6924 49.7493L83.159 51.0416L84.5325 51.0783L84.5862 49.0654ZM79.9048 32.774L81.8535 32.2673L81.8526 32.2638L79.9048 32.774ZM79.2181 30.1524L81.166 29.6422L79.5833 23.5992L77.339 29.429L79.2181 30.1524ZM72.5393 47.6298L72.5891 49.6427L74.1062 49.6052L74.488 48.1365L72.5393 47.6298ZM59.9306 47.9419L57.9171 47.9275L57.9022 50.0063L59.9804 49.9548L59.9306 47.9419ZM60.0554 3.43687V1.42335H58.0419V3.43687H60.0554ZM68.6693 3.37446L70.6823 3.32733L70.635 1.3085L68.6163 1.36162L68.6693 3.37446ZM68.9814 21.0391L66.9738 20.8847L70.7823 21.9396L68.9814 21.0391ZM75.2857 6.49543L77.1665 7.21454L77.1696 7.20632L75.2857 6.49543ZM76.5341 3.1872L76.4917 1.17412L75.1308 1.20277L74.6503 2.47631L76.5341 3.1872ZM82.464 3.06236L84.4424 2.68806L84.1256 1.0134L82.4216 1.04928L82.464 3.06236ZM82.9009 5.37188L84.8794 4.99805L84.8793 4.99758L82.9009 5.37188ZM86.7085 23.0366L84.7582 23.5373L88.7034 23.3096L86.7085 23.0366ZM89.5173 2.93752L89.5292 0.924028L87.8333 0.914052L87.5352 2.58356L89.5173 2.93752ZM100.129 2.99994L102.135 3.16443L102.313 0.999226L100.14 0.986447L100.129 2.99994ZM98.3185 22.7869L100.323 22.9734L100.326 22.9497L100.327 22.926L98.3185 22.7869ZM97.8191 30.9014L99.8284 31.0324L99.8296 31.0137L99.8305 30.995L97.8191 30.9014ZM97.4446 36.644L99.4516 36.8059L99.4529 36.7904L99.4539 36.775L97.4446 36.644ZM96.3835 48.8782L96.4717 50.8898L98.2192 50.8131L98.3876 49.0721L96.3835 48.8782ZM89.2677 49.1903L89.214 51.2031L89.285 51.205L89.3559 51.2019L89.2677 49.1903ZM84.5862 49.0654L86.48 48.3816C85.7041 46.2329 83.4777 38.5143 81.8535 32.2673L79.9048 32.774L77.956 33.2807C79.5776 39.5175 81.8454 47.4038 82.6924 49.7493L84.5862 49.0654ZM79.9048 32.774L81.8526 32.2638L81.166 29.6422L79.2181 30.1524L77.2703 30.6625L77.9569 33.2841L79.9048 32.774ZM79.2181 30.1524L77.339 29.429C74.6299 36.4665 73.1687 40.0418 72.278 42.2607C71.3797 44.4985 71.0291 45.4362 70.5905 47.1231L72.5393 47.6298L74.488 48.1365C74.8609 46.7025 75.1345 45.9548 76.0152 43.7608C76.9034 41.548 78.3759 37.945 81.0973 30.8757L79.2181 30.1524ZM72.5393 47.6298L72.4894 45.6169L59.8807 45.929L59.9306 47.9419L59.9804 49.9548L72.5891 49.6427L72.5393 47.6298ZM59.9306 47.9419L61.944 47.9563C62.0065 39.2183 62.0689 30.0982 62.0689 21.3512H60.0554H58.0419C58.0419 30.0817 57.9795 39.1881 57.9171 47.9275L59.9306 47.9419ZM60.0554 21.3512H62.0689V3.43687H60.0554H58.0419V21.3512H60.0554ZM60.0554 3.43687V5.4504C62.3538 5.4504 66.3175 5.45057 68.7222 5.38729L68.6693 3.37446L68.6163 1.36162C66.2771 1.42318 62.376 1.42335 60.0554 1.42335V3.43687ZM68.6693 3.37446L66.6563 3.42158C67.096 22.2054 67.0883 19.3958 66.9738 20.8847L68.9814 21.0391L70.989 21.1936C71.1241 19.4367 71.1164 21.8703 70.6823 3.32733L68.6693 3.37446ZM68.9814 21.0391L70.7823 21.9396C71.6878 20.1287 75.5217 11.5164 77.1665 7.21453L75.2857 6.49543L73.405 5.77632C71.804 9.96353 68.0227 18.4541 67.1804 20.1387L68.9814 21.0391ZM75.2857 6.49543L77.1696 7.20632L78.418 3.89809L76.5341 3.1872L74.6503 2.47631L73.4019 5.78453L75.2857 6.49543ZM76.5341 3.1872L76.5765 5.20028L82.5063 5.07544L82.464 3.06236L82.4216 1.04928L76.4917 1.17412L76.5341 3.1872ZM82.464 3.06236L80.4855 3.43666L80.9225 5.74617L82.9009 5.37188L84.8793 4.99758L84.4424 2.68806L82.464 3.06236ZM82.9009 5.37188L80.9224 5.7457C83.4909 19.3402 83.5633 18.8836 84.7582 23.5373L86.7085 23.0366L88.6587 22.5358C87.4817 17.9514 87.4293 18.4936 84.8794 4.99805L82.9009 5.37188ZM86.7085 23.0366L88.7034 23.3096C89.5213 17.3325 91.197 4.98553 91.4995 3.29148L89.5173 2.93752L87.5352 2.58356C87.2135 4.385 85.5185 16.8809 84.7135 22.7636L86.7085 23.0366ZM89.5173 2.93752L89.5055 4.95102L100.117 5.01343L100.129 2.99994L100.14 0.986447L89.5292 0.924028L89.5173 2.93752ZM100.129 2.99994L98.1218 2.83545C97.8238 6.47137 96.8684 14.579 96.3098 22.6478L98.3185 22.7869L100.327 22.926C100.892 14.7657 101.809 7.14367 102.135 3.16443L100.129 2.99994ZM98.3185 22.7869L96.3136 22.6004C96.0588 25.3394 95.9321 28.1342 95.8078 30.8079L97.8191 30.9014L99.8305 30.995C99.9558 28.3006 100.079 25.6025 100.323 22.9734L98.3185 22.7869ZM97.8191 30.9014L95.8099 30.7704L95.4354 36.513L97.4446 36.644L99.4539 36.775L99.8284 31.0324L97.8191 30.9014ZM97.4446 36.644L95.4376 36.4821C95.1256 40.3505 94.7522 44.8312 94.3793 48.6842L96.3835 48.8782L98.3876 49.0721C98.7638 45.1852 99.1394 40.6775 99.4516 36.8059L97.4446 36.644ZM96.3835 48.8782L96.2953 46.8666L89.1794 47.1787L89.2677 49.1903L89.3559 51.2019L96.4717 50.8898L96.3835 48.8782ZM89.2677 49.1903L89.3213 47.1775L84.6399 47.0526L84.5862 49.0654L84.5325 51.0783L89.214 51.2031L89.2677 49.1903ZM118.434 47.3177L116.457 47.7027L116.774 49.3312H118.434V47.3177ZM117.497 42.5114L115.513 42.8528L115.517 42.8747L115.521 42.8964L117.497 42.5114ZM116.499 36.7064L118.483 36.365L118.186 34.6397L116.436 34.6938L116.499 36.7064ZM110.569 36.8937L110.425 34.8853L108.955 34.9902L108.611 36.4231L110.569 36.8937ZM109.008 43.3853L107.051 42.9147L107.049 42.9223L107.047 42.93L109.008 43.3853ZM108.197 46.8808V48.8943H109.796L110.158 47.3361L108.197 46.8808ZM98.2722 46.6935L96.3212 46.1954L95.7251 48.5302L98.1287 48.7019L98.2722 46.6935ZM99.7702 40.8261L97.8215 40.3194L97.8193 40.328L99.7702 40.8261ZM102.205 31.5256L104.141 32.0788L104.144 32.0685L102.205 31.5256ZM107.697 12.7998L109.608 13.4365L107.697 12.7998ZM110.506 4.37317L110.448 2.36049L109.041 2.40146L108.596 3.73643L110.506 4.37317ZM123.365 3.99865L125.343 3.62189L125.022 1.93601L123.306 1.98597L123.365 3.99865ZM124.925 13.6737L122.933 13.9687L122.935 13.9798L124.925 13.6737ZM126.236 23.4735L124.24 23.7421L124.242 23.7543L126.236 23.4735ZM128.171 36.7688L130.151 36.4035L130.151 36.4012L128.171 36.7688ZM130.106 47.2553L130.159 49.2681L132.514 49.2062L132.086 46.8899L130.106 47.2553ZM127.734 47.3177V49.3312H127.761L127.787 49.3305L127.734 47.3177ZM112.878 26.8441L110.961 26.2305L110.12 28.8577H112.878V26.8441ZM116.311 26.8441V28.8577H118.841L118.274 26.3928L116.311 26.8441ZM114.876 20.6022L116.838 20.1509L115.194 13.0018L112.958 19.9885L114.876 20.6022ZM118.434 47.3177L120.41 46.9327L119.474 42.1264L117.497 42.5114L115.521 42.8964L116.457 47.7027L118.434 47.3177ZM117.497 42.5114L119.482 42.17L118.483 36.365L116.499 36.7064L114.514 37.0478L115.513 42.8528L117.497 42.5114ZM116.499 36.7064L116.436 34.6938C110.468 34.8784 111.351 34.8191 110.425 34.8853L110.569 36.8937L110.712 38.9021C111.534 38.8434 110.42 38.9089 116.561 38.719L116.499 36.7064ZM110.569 36.8937L108.611 36.4231L107.051 42.9147L109.008 43.3853L110.966 43.8559L112.527 37.3643L110.569 36.8937ZM109.008 43.3853L107.047 42.93L106.235 46.4255L108.197 46.8808L110.158 47.3361L110.97 43.8406L109.008 43.3853ZM108.197 46.8808V44.8672H108.072V46.8808V48.8943H108.197V46.8808ZM108.072 46.8808V44.8672C106.738 44.8672 100.076 44.8037 98.4156 44.6851L98.2722 46.6935L98.1287 48.7019C99.9634 48.833 106.784 48.8943 108.072 48.8943V46.8808ZM98.2722 46.6935L100.223 47.1916L101.721 41.3242L99.7702 40.8261L97.8193 40.328L96.3212 46.1954L98.2722 46.6935ZM99.7702 40.8261L101.719 41.3328C102.544 38.1613 103.275 35.1077 104.141 32.0788L102.205 31.5256L100.269 30.9724C99.3862 34.0606 98.6198 37.249 97.8215 40.3194L99.7702 40.8261ZM102.205 31.5256L104.144 32.0685C105.9 25.7939 107.568 19.556 109.608 13.4365L107.697 12.7998L105.787 12.1631C103.707 18.4026 102.004 24.7734 100.266 30.9827L102.205 31.5256ZM107.697 12.7998L109.608 13.4365L112.417 5.0099L110.506 4.37317L108.596 3.73643L105.787 12.1631L107.697 12.7998ZM110.506 4.37317L110.565 6.38584L123.423 6.01132L123.365 3.99865L123.306 1.98597L110.448 2.36049L110.506 4.37317ZM123.365 3.99865L121.387 4.3754C121.628 5.64319 122.435 10.6024 122.933 13.9687L124.925 13.6737L126.917 13.3786C126.417 10.0036 125.601 4.97573 125.343 3.62189L123.365 3.99865ZM124.925 13.6737L122.935 13.9798C123.431 17.2056 123.795 20.4347 124.241 23.7421L126.236 23.4735L128.232 23.2049C127.803 20.0207 127.418 16.6333 126.915 13.3675L124.925 13.6737ZM126.236 23.4735L124.242 23.7543C124.855 28.1062 125.369 32.7104 126.191 37.1365L128.171 36.7688L130.151 36.4012C129.35 32.0886 128.865 27.7044 128.23 23.1927L126.236 23.4735ZM128.171 36.7688L126.191 37.1342L128.126 47.6207L130.106 47.2553L132.086 46.8899L130.151 36.4035L128.171 36.7688ZM130.106 47.2553L130.053 45.2425L127.681 45.3049L127.734 47.3177L127.787 49.3305L130.159 49.2681L130.106 47.2553ZM127.734 47.3177V45.3042H118.434V47.3177V49.3312H127.734V47.3177ZM112.878 26.8441V28.8577H116.311V26.8441V24.8306H112.878V26.8441ZM116.311 26.8441L118.274 26.3928L116.838 20.1509L114.876 20.6022L112.913 21.0535L114.349 27.2955L116.311 26.8441ZM114.876 20.6022L112.958 19.9885L110.961 26.2305L112.878 26.8441L114.796 27.4578L116.793 21.2159L114.876 20.6022ZM132.668 47.1929L130.657 47.2934L130.752 49.2064H132.668V47.1929ZM132.356 34.2096L134.369 34.1766L134.369 34.1677L132.356 34.2096ZM132.293 25.1588L130.28 25.1872L130.28 25.2008L132.293 25.1588ZM132.043 11.9259L130.03 11.9424L130.03 11.9543L132.043 11.9259ZM131.981 4.31075L131.847 2.30168L129.952 2.42801L129.968 4.32725L131.981 4.31075ZM142.468 4.12349L142.48 6.13698L142.482 6.13697L142.468 4.12349ZM158.072 3.99865H160.086V1.94525L158.033 1.98551L158.072 3.99865ZM158.072 13.1119L158.198 15.1215L160.086 15.0035V13.1119H158.072ZM142.78 13.4864L142.617 11.4795L140.766 11.6295V13.4864H142.78ZM142.78 20.2901H140.766V22.4423L142.914 22.2992L142.78 20.2901ZM150.582 19.978H152.596V17.8849L150.504 17.966L150.582 19.978ZM150.582 22.0379H148.569V22.052L148.569 22.0662L150.582 22.0379ZM150.644 26.4696H152.658V26.4555L152.658 26.4413L150.644 26.4696ZM150.644 27.2187L150.756 29.2291L152.658 29.1234V27.2187H150.644ZM145.027 27.5308L144.915 25.5203L144.805 25.5265L144.696 25.5446L145.027 27.5308ZM143.716 27.6556V25.6421H141.702V27.6556H143.716ZM143.716 33.8351H141.702V35.9355L143.801 35.8469L143.716 33.8351ZM148.148 33.6479L148.233 35.6596L148.233 35.6596L148.148 33.6479ZM158.197 33.4606L160.208 33.3601L160.113 31.4471H158.197V33.4606ZM158.26 34.709L160.272 34.6441L160.272 34.6263L160.271 34.6084L158.26 34.709ZM158.447 47.0056L158.561 49.0159L160.46 48.9084V47.0056H158.447ZM155.139 47.1929L155.025 45.1826L154.991 45.1845L154.956 45.1876L155.139 47.1929ZM132.668 47.1929L134.679 47.0923C134.618 45.8845 134.431 37.9936 134.369 34.1766L132.356 34.2096L130.342 34.2426C130.405 38.0409 130.592 46.0045 130.657 47.2934L132.668 47.1929ZM132.356 34.2096L134.369 34.1677C134.338 32.6941 134.338 31.2016 134.338 29.6842C134.338 28.1742 134.338 26.6395 134.306 25.1169L132.293 25.1588L130.28 25.2008C130.311 26.6743 130.311 28.1669 130.311 29.6842C130.311 31.1942 130.311 32.729 130.342 34.2516L132.356 34.2096ZM132.293 25.1588L134.306 25.1305C134.275 22.9061 134.228 20.6987 134.181 18.4995C134.135 16.2981 134.088 14.105 134.057 11.8976L132.043 11.9259L130.03 11.9543C130.061 14.1786 130.108 16.3861 130.155 18.5852C130.202 20.7867 130.249 22.9797 130.28 25.1872L132.293 25.1588ZM132.043 11.9259L134.057 11.9094L133.995 4.29424L131.981 4.31075L129.968 4.32725L130.03 11.9424L132.043 11.9259ZM131.981 4.31075L132.115 6.31981C132.986 6.26173 132.373 6.19937 142.48 6.13698L142.468 4.12349L142.455 2.11C132.338 2.17245 132.848 2.23493 131.847 2.30168L131.981 4.31075ZM142.468 4.12349L142.482 6.13697C151.2 6.07469 154.912 6.07454 158.112 6.01179L158.072 3.99865L158.033 1.98551C154.866 2.0476 151.212 2.04745 142.453 2.11001L142.468 4.12349ZM158.072 3.99865H156.059V13.1119H158.072H160.086V3.99865H158.072ZM158.072 13.1119L157.947 11.1023C156.51 11.1921 153.332 11.2385 150.139 11.2858C147.029 11.3319 143.858 11.3788 142.617 11.4795L142.78 13.4864L142.942 15.4933C144.011 15.4067 146.988 15.36 150.198 15.3124C153.325 15.2661 156.638 15.219 158.198 15.1215L158.072 13.1119ZM142.78 13.4864H140.766V20.2901H142.78H144.793V13.4864H142.78ZM142.78 20.2901L142.914 22.2992C143.813 22.2392 142.565 22.3038 150.66 21.99L150.582 19.978L150.504 17.966C142.495 18.2764 143.619 18.2161 142.646 18.281L142.78 20.2901ZM150.582 19.978H148.569V22.0379H150.582H152.596V19.978H150.582ZM150.582 22.0379L148.569 22.0662L148.631 26.498L150.644 26.4696L152.658 26.4413L152.595 22.0095L150.582 22.0379ZM150.644 26.4696H148.631V27.2187H150.644H152.658V26.4696H150.644ZM150.644 27.2187L150.533 25.2082L144.915 25.5203L145.027 27.5308L145.138 29.5412L150.756 29.2291L150.644 27.2187ZM145.027 27.5308L144.696 25.5446C144.357 25.6011 144.049 25.6421 143.716 25.6421V27.6556V29.6691C144.382 29.6691 144.947 29.5853 145.358 29.5169L145.027 27.5308ZM143.716 27.6556H141.702V33.8351H143.716H145.729V27.6556H143.716ZM143.716 33.8351L143.801 35.8469L148.233 35.6596L148.148 33.6479L148.063 31.6361L143.631 31.8234L143.716 33.8351ZM148.148 33.6479L148.233 35.6596C151.129 35.5363 155.281 35.4741 158.197 35.4741V33.4606V31.4471C155.246 31.4471 151.033 31.5097 148.062 31.6362L148.148 33.6479ZM158.197 33.4606L156.186 33.5612L156.249 34.8095L158.26 34.709L160.271 34.6084L160.208 33.3601L158.197 33.4606ZM158.26 34.709L156.247 34.7739C156.372 38.636 156.433 41.6071 156.433 43.8222H158.447H160.46C160.46 41.5431 160.397 38.522 160.272 34.6441L158.26 34.709ZM158.447 43.8222H156.433V47.0056H158.447H160.46V43.8222H158.447ZM158.447 47.0056L158.333 44.9953L155.025 45.1826L155.139 47.1929L155.252 49.2032L158.561 49.0159L158.447 47.0056ZM155.139 47.1929L154.956 45.1876C154.374 45.2405 154.094 45.1793 153.141 45.1793V47.1929V49.2064C153.562 49.2064 154.53 49.2701 155.321 49.1981L155.139 47.1929ZM153.141 47.1929V45.1793H132.668V47.1929V49.2064H153.141V47.1929Z" fill="black" mask="url(#path-1-outside-1_15_967)"/>
</g>
<defs>
<filter id="filter0_di_15_967" x="0.911133" y="0.914062" width="161.473" height="52.2146" filterUnits="userSpaceOnUse" color-interpolation-filters="sRGB">
<feFlood flood-opacity="0" result="BackgroundImageFix"/>
<feColorMatrix in="SourceAlpha" type="matrix" values="0 0 0 0 0 0 0 0 0 0 0 0 0 0 0 0 0 0 127 0" result="hardAlpha"/>
<feOffset dx="1.92355" dy="1.92355"/>
<feComposite in2="hardAlpha" operator="out"/>
<feColorMatrix type="matrix" values="0 0 0 0 0 0 0 0 0 0 0 0 0 0 0 0 0 0 1 0"/>
<feBlend mode="normal" in2="BackgroundImageFix" result="effect1_dropShadow_15_967"/>
<feBlend mode="normal" in="SourceGraphic" in2="effect1_dropShadow_15_967" result="shape"/>
<feColorMatrix in="SourceAlpha" type="matrix" values="0 0 0 0 0 0 0 0 0 0 0 0 0 0 0 0 0 0 127 0" result="hardAlpha"/>
<feOffset dx="-5.44828" dy="5.44828"/>
<feComposite in2="hardAlpha" operator="arithmetic" k2="-1" k3="1"/>
<feColorMatrix type="matrix" values="0 0 0 0 1 0 0 0 0 0.619608 0 0 0 0 0.592157 0 0 0 1 0"/>
<feBlend mode="normal" in2="shape" result="effect2_innerShadow_15_967"/>
</filter>
</defs>
</svg>
