<svg width="462" height="343" viewBox="0 0 462 343" fill="none" xmlns="http://www.w3.org/2000/svg">
<path d="M82.7398 253.171C82.9738 254.269 83.242 255.387 83.4511 256.516C84.9192 264.511 88.362 271.556 93.8525 277.526C105.338 290.011 119.607 296.238 136.585 295.656C147.471 295.284 157.329 291.693 165.824 284.723C169.339 281.837 172.296 278.451 174.53 274.465C177.102 269.87 178.159 265 177.22 259.764C177.186 259.58 177.191 259.387 177.152 258.868C177.688 259.398 177.993 259.716 178.318 260.014C180.047 261.614 181.681 263.341 183.533 264.784C190.528 270.233 198.341 271.004 206.611 268.438C208.545 267.838 210.361 266.865 212.41 265.986C212.663 266.45 212.976 267.031 213.292 267.611C215.49 271.633 218.121 275.315 221.36 278.596C224.141 281.417 227.302 283.582 230.961 285.018C237.281 287.5 243.721 289.518 250.603 289.625C257.872 289.736 264.929 288.58 271.671 285.841C278.891 282.907 284.788 278.203 289.356 271.904C295.333 263.659 298.249 254.394 298.194 244.22C298.185 242.722 297.808 241.227 297.599 239.713C300.414 237.659 303.319 235.539 306.332 233.341C306.289 233.325 306.464 233.339 306.568 233.432C308.727 235.393 311.209 236.866 313.833 238.077C321.531 241.631 329.525 243.979 338.102 243.858C343.24 243.786 348.201 242.722 353.051 241.104C358.339 239.338 363.413 237.098 368.111 234.059C373.087 230.841 377.483 226.962 380.987 222.172C391.279 208.102 392.418 193.172 384.464 177.769C379.428 168.017 371.779 160.488 362.52 154.632C360.904 153.609 359.107 152.873 357.216 151.914C358.668 151.796 359.952 151.685 361.239 151.585C372.235 150.737 385.289 141.622 388.879 127.989C391.459 118.194 390.788 108.779 385.984 99.7572C383.68 95.4326 381.046 91.342 377.58 87.8469C372.176 82.395 365.665 79.2158 358.007 78.4363C357.859 78.4204 357.716 78.3522 357.45 78.2704C357.512 77.9705 357.546 77.6773 357.637 77.4023C360.486 68.6235 358.657 60.6719 353.035 53.6112C346.519 45.4255 337.825 41.685 327.403 41.9395C320.578 42.1054 314.177 44.0052 308.009 46.814C307.586 47.0072 307.155 47.1844 306.611 47.4185C306.527 47.0254 306.43 46.7436 306.411 46.455C306.073 41.2373 303.818 37.1081 299.369 34.306C296.171 32.2903 292.656 31.0926 288.877 30.7949C285.547 30.5313 282.523 31.2972 280.045 33.6902C279.83 33.8993 279.566 34.0583 279.216 34.3219C279.018 33.9265 278.832 33.6311 278.714 33.3107C272.58 16.7121 254.391 0.511191 232.306 0.0180521C218.099 -0.300102 205.17 3.57916 193.819 12.2898C188.256 16.5576 184.086 21.9321 181.268 28.3611C178.429 34.831 177.675 41.5668 178.627 48.5275C178.781 49.6615 178.979 50.7887 179.159 51.9204C178.938 51.95 178.816 52.0091 178.743 51.9704C174.08 49.5638 169.003 49.1775 163.905 49.0547C156.495 48.8752 150.05 51.6318 144.316 56.0837C140.437 59.0948 138.437 63.4081 137.106 68.0122C135.958 71.9778 135.676 76.0478 136.115 80.2816C135.728 80.2338 135.376 80.2384 135.051 80.1475C121.909 76.4933 108.838 76.8251 95.8114 80.7657C78.5651 85.9834 64.4095 95.7803 53.1582 109.763C44.6544 120.33 40.1593 132.402 40.1684 146.065C40.1775 159.65 44.6839 171.424 54.1445 181.241C55.1603 182.293 56.1875 183.336 57.3306 184.504C56.9215 184.67 56.6284 184.834 56.3125 184.911C47.7405 187.016 41.1842 191.883 36.446 199.294C34.3166 202.623 32.5168 206.098 31.2737 209.861C29.533 215.131 29.3193 220.454 30.617 225.835C31.5578 229.728 32.9827 233.443 34.9461 236.941C37.4482 241.399 40.9865 244.842 45.4021 247.365C54.0604 252.312 63.446 254.317 73.3474 253.976C76.4698 253.867 79.5878 253.451 82.7398 253.171ZM82.5829 249.71C80.1354 250.097 77.872 250.628 75.5858 250.783C67.6342 251.315 60.0508 249.726 52.7832 246.513C48.6699 244.692 45.1726 242.056 42.466 238.477C35.6438 229.464 33.5713 219.663 37.7709 208.884C39.2412 205.112 41.0229 201.496 43.2386 198.099C44.8067 195.694 46.7588 193.665 49.1177 192.045C52.3129 189.849 55.9103 188.561 59.5849 187.443C60.2781 187.231 60.7894 187.4 61.2825 187.886C62.1029 188.697 62.9483 189.484 63.7891 190.272C66.5821 192.89 69.3659 195.517 72.1816 198.11C72.6724 198.562 73.2656 198.949 73.8746 199.221C74.5586 199.526 75.2336 199.333 75.6835 198.696C76.0926 198.117 76.0562 197.499 75.6267 196.944C75.2745 196.49 74.8905 196.056 74.4882 195.647C71.6544 192.77 68.7319 189.977 65.9935 187.011C62.3324 183.045 58.6941 179.046 55.2581 174.887C50.0881 168.629 47.4087 161.243 46.7429 153.246C45.5112 138.445 49.2563 124.946 58.8668 113.517C72.577 97.2119 89.8391 86.9083 111.192 84.0608C117.625 83.2018 124.059 83.3268 130.433 84.6949C138.069 86.3334 144.521 89.9626 149.552 96.0166C150.554 97.2233 151.684 98.3278 152.8 99.4345C153.354 99.9844 153.97 100.5 154.634 100.907C155.872 101.666 156.992 101.05 156.986 99.5959C156.981 98.88 156.852 98.0959 156.538 97.4619C155.708 95.7757 154.895 94.0463 153.811 92.526C150.988 88.5695 147.266 85.6039 142.96 83.3904C142.016 82.9064 141.707 82.3315 141.732 81.3088C141.782 79.3749 141.746 77.4319 141.651 75.4979C141.235 66.985 144.887 58.6926 154.065 54.3611C157.456 52.7613 161.053 52.2159 164.742 51.9795C169.625 51.6682 174.38 52.0045 178.825 54.3407C179.627 54.7611 180.1 55.2656 180.379 56.1428C181.831 60.6674 183.881 64.8943 186.785 68.6871C187.381 69.4666 187.874 70.3234 188.428 71.1665C188.176 71.4551 188.026 71.6687 187.835 71.8369C182.986 76.132 182.54 85.1494 184.488 89.7331C185.115 91.208 185.913 91.8351 186.999 91.6442C188.092 91.4511 188.672 90.6171 188.633 88.9786C188.587 87.0424 188.442 85.1062 188.292 83.1745C188.124 80.9906 188.356 78.8817 189.292 76.8796C190.126 75.0957 191.428 73.8072 193.271 73.0504C195.687 72.0596 198.134 72.2732 200.518 72.9891C202.161 73.4822 203.704 74.3094 205.291 74.9911C205.963 75.2797 206.606 75.6866 207.306 75.8502C208.611 76.1547 209.492 75.1548 209.083 73.9071C208.954 73.5163 208.731 73.139 208.481 72.8095C207.318 71.2801 205.927 69.9734 204.093 69.3485C199.802 67.885 195.489 67.5714 191.21 69.4644C190.896 69.603 190.56 69.6916 190.115 69.8439C188.042 65.342 185.635 61.1015 184.138 56.436C180.443 44.9256 181.92 34.1947 188.91 24.2774C191.16 21.0845 193.832 18.2801 196.884 15.8485C206.129 8.48551 216.737 4.68587 228.468 4.01093C235.456 3.60869 242.281 4.50403 248.775 7.31515C254.007 9.58086 258.859 12.4738 263.252 16.1076C271.721 23.1116 276.28 32.2449 277.598 43.0371C277.914 45.6233 277.73 48.2707 277.778 50.8887C277.803 52.2317 278.123 52.8794 278.787 52.9453C279.452 53.0112 280.032 52.4613 280.427 51.2841C281.218 48.923 281.636 46.4959 281.357 44.0075C281.152 42.1895 280.811 40.385 280.523 38.5147C280.87 38.0716 281.275 37.5898 281.641 37.083C283.073 35.0832 285.031 34.2015 287.465 34.2742C291.181 34.3833 294.571 35.5196 297.667 37.5376C299.478 38.7193 300.776 40.3419 301.5 42.3894C302.316 44.687 302.319 47.0981 302.571 49.4751C302.121 49.7547 301.76 49.9615 301.419 50.1979C299.612 51.4478 297.764 52.6476 296.021 53.9839C294.851 54.8815 293.949 56.0701 293.426 57.4836C293.21 58.0631 292.931 58.7494 293.606 59.1994C294.224 59.6107 294.681 59.0448 295.131 58.7267C296.969 57.4268 298.735 56.011 300.639 54.8202C304.075 52.6772 307.789 51.0819 311.568 49.6502C317.26 47.4936 323.119 46.2073 329.244 46.4027C337.995 46.6822 345.231 50.082 350.519 57.1313C355.828 64.2103 356.473 71.821 352.526 79.768C350.239 84.3744 346.919 88.1309 342.733 91.067C340.206 92.8396 337.509 94.369 334.873 95.9803C331.298 98.1664 327.7 100.321 324.128 102.512C323.599 102.836 323.069 103.223 322.68 103.695C322.465 103.959 322.362 104.573 322.524 104.829C322.73 105.154 323.237 105.352 323.653 105.454C323.917 105.518 324.267 105.348 324.546 105.216C330.502 102.373 336.559 99.7276 342.142 96.1529C347.858 92.4919 352.591 87.9309 355.734 81.8405C355.828 81.6587 355.973 81.5042 356.173 81.227C358.65 82.2292 361.141 83.1927 363.595 84.2403C368.836 86.4765 373.042 90.0171 376.471 94.5372C379.382 98.3732 381.637 102.562 383.189 107.107C385.734 114.563 385.914 122.021 382.887 129.409C379.662 137.281 373.992 142.76 366.256 146.142C362.17 147.928 357.746 148.217 353.476 148.93C353.369 148.832 353.31 148.805 353.301 148.764C353.178 148.31 353.062 147.853 352.944 147.399C351.735 142.767 349.424 138.781 345.924 135.506C344.213 133.907 342.245 132.698 339.956 132.145C339.172 131.957 338.281 131.952 337.488 132.113C336.536 132.307 336.4 133.073 337.116 133.722C337.461 134.038 337.872 134.284 338.263 134.547C342.624 137.495 345.669 141.497 347.485 146.39C348.078 147.987 348.485 149.746 348.526 151.444C348.671 157.495 345.638 161.702 340.356 164.313C338.113 165.422 335.686 166.163 333.341 167.067C333 167.199 332.602 167.24 332.316 167.445C332.098 167.599 331.852 168.006 331.918 168.194C332.016 168.474 332.352 168.788 332.639 168.851C333.027 168.938 333.47 168.824 333.882 168.753C335.379 168.494 336.882 168.249 338.37 167.944C344.922 166.604 349.801 163.152 352.362 156.795C352.437 156.611 352.56 156.446 352.773 156.077C354.553 157.061 356.33 157.934 357.998 158.984C367.377 164.881 375.028 172.483 379.944 182.48C385.461 193.704 385.075 204.855 378.63 215.688C376.633 219.045 374.221 222.072 371.381 224.751C366.324 229.521 360.507 233.105 354.11 235.768C349.287 237.775 344.31 239.268 339.052 239.404C329.216 239.659 319.94 237.275 311.077 233.137C310.059 232.662 309.159 231.934 308.152 231.291C309.259 229.939 310.277 228.744 311.238 227.505C312.438 225.958 313.404 224.267 313.811 222.335C313.968 221.59 313.945 220.776 313.838 220.017C313.745 219.356 313.249 218.908 312.529 218.858C311.875 218.813 311.445 219.167 311.159 219.726C311.063 219.913 310.97 220.101 310.902 220.299C310.275 222.122 309.186 223.658 307.898 225.055C306.191 226.905 304.477 228.751 302.707 230.539C300.589 232.68 298.128 234.368 295.446 235.734C291.676 237.657 287.663 238.838 283.518 239.602C274.019 241.356 264.935 240.095 256.3 235.764C251.914 233.564 248.207 230.548 245.442 226.437C244.537 225.092 243.549 223.803 242.56 222.519C242.01 221.804 241.278 221.628 240.622 221.976C239.915 222.351 239.742 222.969 239.878 223.71C239.917 223.915 239.958 224.128 240.042 224.317C240.772 225.939 241.397 227.623 242.269 229.164C243.969 232.164 246.269 234.668 249.05 236.723C254.03 240.402 259.627 242.679 265.629 244.024C274.269 245.96 282.72 244.981 291.054 242.311C291.835 242.061 292.608 241.788 293.36 241.531C293.456 241.745 293.494 241.793 293.494 241.84C293.508 242.624 293.542 243.411 293.519 244.195C293.117 257.889 287.745 269.143 276.587 277.219C268.774 282.873 259.743 285.164 250.153 284.832C241.774 284.544 234.022 281.871 226.689 277.878C221.039 274.803 217.13 270.174 214.288 264.438C214.653 264.088 215.019 263.795 215.315 263.443C216.69 261.8 218.262 260.273 219.367 258.459C222.278 253.683 222.991 248.56 220.969 243.233C219.794 240.138 217.933 237.495 215.353 235.395C214.856 234.989 214.353 234.421 213.365 234.843C213.549 235.425 213.638 236.043 213.924 236.552C214.64 237.832 215.515 239.025 216.196 240.32C217.021 241.89 217.967 243.465 218.414 245.154C219.814 250.456 218.246 255.098 214.726 259.137C212.149 262.093 208.906 264.102 205.163 265.227C198.659 267.179 192.392 266.85 186.672 262.834C184.922 261.607 183.272 260.198 181.736 258.709C178.777 255.839 176.559 252.399 174.536 248.826C173.916 247.733 173.271 246.649 172.552 245.617C171.893 244.672 170.962 244.377 170.098 244.683C169.164 245.017 168.582 245.922 168.746 247.088C168.882 248.067 169.162 249.035 169.455 249.983C170.105 252.087 170.796 254.178 171.48 256.271C173.077 261.155 172.646 265.881 170.416 270.483C168.58 274.274 165.98 277.478 162.794 280.192C155.04 286.796 145.977 290.243 135.869 290.584C123.218 291.009 112.071 286.834 102.468 278.612C93.5275 270.956 88.562 261.302 88.0847 249.456C87.553 236.252 91.4095 224.758 101.245 215.568C101.829 215.022 102.288 214.236 102.547 213.472C102.936 212.327 102.156 211.309 100.943 211.37C100.136 211.411 99.2247 211.602 98.5725 212.041C97.0567 213.056 95.5637 214.152 94.2524 215.413C91.9753 217.604 90.1527 220.176 88.5961 222.933C84.7259 229.789 82.783 237.166 82.6171 245.022C82.5898 246.533 82.5966 248.047 82.5829 249.71Z" fill="#02D0E2"/>
<path d="M398.395 247.715C396.386 244.963 393.486 244.006 390.323 243.722C388.139 243.527 385.916 243.359 383.742 243.536C378.433 243.968 374.365 247.54 372.929 252.653C372.029 255.853 372.008 259.064 372.563 262.309C372.597 262.505 372.606 262.705 372.636 263.002C371.159 263.055 369.759 263.068 368.363 263.159C364.127 263.436 360.239 264.709 356.876 267.363C349.247 273.388 345.149 281.296 345.002 290.982C344.806 303.694 354.744 313.762 367.413 314.066C368.604 314.096 369.793 314.121 370.965 314.148C371.034 315.85 371.088 317.405 371.159 318.961C371.274 321.504 371.87 323.929 372.913 326.256C374.447 329.672 376.231 332.926 378.828 335.662C381.812 338.805 385.371 341.109 389.752 341.307C395.931 341.582 400.967 339.148 404.458 333.883C404.747 333.446 404.976 332.971 405.219 332.508C405.46 332.049 405.685 331.581 405.985 330.983C406.41 331.428 406.765 331.79 407.105 332.165C409.671 334.971 412.544 337.378 415.88 339.248C420.718 341.957 425.867 342.407 431.272 341.811C443.221 340.496 457.762 328.531 456.89 311.875C456.449 303.453 452.704 296.631 446.336 291.191C445.913 290.83 445.466 290.495 444.879 290.03C445.664 289.63 446.275 289.355 446.85 289.021C448.886 287.839 450.963 286.714 452.92 285.41C454.086 284.632 455.108 283.614 456.097 282.61C465.639 272.917 460.996 259.364 452.724 254.112C448.318 251.315 443.455 250.017 438.287 249.722C437.778 249.692 437.269 249.656 436.732 249.622C437.01 248.633 437.319 247.792 437.48 246.924C438.205 242.984 437.119 239.543 434.019 237.048C429.715 233.58 424.686 231.853 419.125 232.085C414.78 232.266 411.242 234.437 408.051 237.191C405.506 239.386 403.588 242.059 402.535 245.283C402.301 245.999 401.96 246.417 401.199 246.624C400.302 246.865 399.447 247.295 398.395 247.715ZM395.357 249.906C395.022 250.299 394.729 250.649 394.432 250.994C393.104 252.528 392.198 254.28 391.684 256.244C391.314 257.664 390.905 259.073 390.536 260.494C390.391 261.05 390.243 261.618 390.216 262.187C390.175 263.041 390.684 263.761 391.409 264.05C392.148 264.343 392.959 264.166 393.55 263.5C393.857 263.152 394.1 262.732 394.304 262.312C395.293 260.287 396.259 258.248 397.234 256.217C398.702 253.158 401.17 251.503 404.51 251.228C408.085 250.933 411.035 252.001 412.787 255.394C413.003 255.812 413.219 256.242 413.505 256.612C414.123 257.412 414.934 257.421 415.38 256.517C415.707 255.853 415.887 255.003 415.809 254.271C415.518 251.542 414.182 249.369 411.721 248.12C410.196 247.345 408.499 246.908 406.874 246.333C406.501 246.202 406.112 246.113 405.742 246.008C406.11 244.065 406.56 243.018 407.624 241.625C409.501 239.166 411.846 237.259 414.591 235.855C416.541 234.857 418.616 234.346 420.818 234.516C423.69 234.739 426.399 235.527 428.797 237.15C434.146 240.772 434.005 244.104 432.662 248.358C432.265 249.617 431.612 250.338 430.238 250.651C427.381 251.301 424.895 252.787 422.663 254.662C422.079 255.153 421.584 255.814 421.225 256.489C420.882 257.135 421.229 257.623 421.981 257.644C422.656 257.662 423.34 257.567 424.011 257.46C426.497 257.064 428.969 256.594 431.462 256.242C436.978 255.46 442.221 256.398 447.182 258.914C451.44 261.073 453.945 264.589 455.033 269.179C455.683 271.92 455.217 274.495 453.792 276.899C452.547 278.996 451.034 280.919 448.995 282.248C445.504 284.523 442.1 287 437.773 287.625C435.658 287.93 434.946 290.452 436.432 292.014C436.853 292.454 437.435 292.761 437.982 293.057C438.812 293.502 439.7 293.843 440.525 294.3C450.329 299.72 456.388 313.525 448.252 325.67C443.477 332.796 436.692 336.978 427.738 336.805C424.088 336.735 420.502 336.389 417.232 334.583C413.623 332.59 410.244 330.224 407.66 327.01C404.849 323.515 401.895 320.095 399.756 316.1C399.458 315.543 398.833 315.464 398.518 316C398.297 316.373 398.193 316.891 398.24 317.323C398.297 317.827 398.529 318.332 398.763 318.795C400.177 321.595 401.229 324.59 403.219 327.079C403.624 327.585 403.633 328.09 403.379 328.688C402.71 330.244 401.99 331.799 400.642 332.858C398.627 334.439 396.54 335.939 394.409 337.362C393.223 338.153 391.825 338.469 390.377 338.544C386.728 338.732 383.733 337.266 381.151 334.855C378.624 332.494 376.792 329.628 375.497 326.431C375.145 325.565 374.89 324.64 374.731 323.718C374.181 320.527 374.497 317.364 375.142 314.103C375.926 314.059 376.706 314.052 377.479 313.971C380.031 313.7 382.589 313.471 385.123 313.08C386.021 312.941 386.93 312.5 387.696 311.989C388.782 311.264 388.946 309.826 388.146 308.971C387.932 308.744 387.516 308.589 387.209 308.612C387.03 308.626 386.737 309.062 386.748 309.298C386.784 310.166 386.223 310.373 385.573 310.487C384.541 310.669 383.507 310.921 382.467 310.951C378.644 311.064 374.82 311.162 370.995 311.144C367.495 311.125 364.132 310.269 360.903 308.976C356.546 307.233 353.478 304.14 351.756 299.758C350.113 295.579 349.808 291.291 350.951 286.946C352.456 281.233 355.444 276.34 359.582 272.177C362.473 269.268 366.048 267.786 370.177 267.691C373.388 267.616 376.413 268.393 379.328 269.656C382.742 271.136 385.666 273.331 388.339 275.888C388.868 276.394 389.4 276.903 389.966 277.369C390.43 277.751 391.059 278.058 391.536 277.612C391.902 277.272 392.209 276.608 392.152 276.131C392.045 275.215 391.784 274.272 391.375 273.442C390.091 270.84 388.087 268.856 385.698 267.252C382.596 265.166 379.149 263.982 375.474 263.409C374.924 263.323 374.374 263.232 373.638 263.111C373.74 261.773 373.697 260.557 373.949 259.405C374.57 256.562 375.733 253.928 377.367 251.51C378.419 249.951 379.771 248.654 381.539 248.042C386.391 246.367 391.016 246.797 395.357 249.906Z" fill="#3D3838"/>
<path d="M86.4356 64.2376C90.3444 63.7922 94.4531 63.2968 98.5686 62.8787C99.5481 62.7787 100.555 62.9309 101.548 62.9855C102.098 63.015 102.636 62.9946 102.902 62.431C103.198 61.806 102.893 61.2561 102.412 60.9129C101.693 60.4016 100.934 59.9039 100.123 59.5744C97.8097 58.6313 95.3553 58.3723 92.8805 58.3177C86.3652 58.1745 80.0203 59.3176 73.8208 61.1856C60.0243 65.3375 47.9207 72.4529 37.4671 82.3656C30.5791 88.8969 25.309 96.4894 22.3116 105.568C20.989 109.575 20.2481 113.674 19.9413 117.885C19.6982 121.226 19.1892 124.548 18.8119 127.88C18.6051 129.702 18.4188 131.527 18.2438 133.354C18.1983 133.82 18.1165 134.336 18.2642 134.754C18.3983 135.138 18.7846 135.636 19.1233 135.693C19.4573 135.747 20.0231 135.4 20.2163 135.07C20.5231 134.543 20.6549 133.895 20.7754 133.284C21.5389 129.375 22.1684 125.435 23.0479 121.551C24.9023 113.386 27.3862 105.45 32.0903 98.3847C34.7219 94.435 37.8148 90.8853 41.2781 87.6538C51.1182 78.4682 62.4036 71.6688 75.1502 67.3646C78.7726 66.142 82.5223 65.3102 86.4356 64.2376Z" fill="#02D0E2"/>
<path d="M382.724 70.8185C381.217 71.1616 380.774 72.0229 381.608 73.3364C382.19 74.2523 382.933 75.1113 383.756 75.8181C385.185 77.0429 386.728 78.1406 388.237 79.2701C390.376 80.8722 392.637 82.3311 394.659 84.0674C401.366 89.8237 406.02 97.0389 409.29 105.19C410.501 108.211 411.556 111.288 412.035 114.524C413.278 122.93 411.365 130.52 405.729 136.924C402.413 140.694 398.72 144.133 395.198 147.725C394.789 148.144 393.905 148.462 394.405 149.187C394.896 149.898 395.68 149.43 396.239 149.107C396.959 148.691 397.659 148.196 398.257 147.619C401.877 144.126 405.622 140.744 409.033 137.056C415.326 130.254 418.053 122.048 417.033 112.881C415.269 97.0457 407.879 84.3287 394.959 74.9204C392.705 73.2797 390.23 72.0002 387.537 71.2025C385.962 70.7321 384.363 70.5344 382.724 70.8185Z" fill="#02D0E2"/>
<path d="M149.945 313.772C155.697 312.347 161.778 309.339 166.603 304.125C167.734 302.903 168.648 301.478 169.63 300.121C169.871 299.789 170.093 299.371 170.12 298.98C170.152 298.501 170.105 297.917 169.85 297.537C169.48 296.983 168.809 297.081 168.275 297.353C167.723 297.637 167.187 297.99 166.716 298.394C165.048 299.833 163.41 301.303 161.764 302.766C158.015 306.103 153.715 308.459 148.879 309.741C143.909 311.057 138.821 311.173 133.728 310.741C127.072 310.177 120.943 308.098 115.362 304.355C112.973 302.753 110.396 301.428 107.901 299.983C107.676 299.851 107.433 299.674 107.192 299.664C106.912 299.653 106.51 299.721 106.376 299.91C106.249 300.087 106.337 300.492 106.451 300.744C106.549 300.964 106.799 301.128 107.005 301.287C110.614 304.069 114.103 306.993 118.089 309.28C124.013 312.677 130.401 314.229 137.132 314.665C141.071 314.924 144.993 314.795 149.945 313.772Z" fill="#02D0E2"/>
<path d="M32.2518 55.6539C20.9437 58.2264 12.2854 64.2872 5.72008 73.3978C2.97713 77.2043 1.30453 81.4698 0.88866 86.1944C0.738673 87.9147 0.425069 89.6214 0.184181 91.3349C0.14782 91.5939 0.0773894 91.8553 0.0887521 92.1143C0.11375 92.6847 -0.336203 93.5506 0.579627 93.671C1.34774 93.7733 1.28865 92.9165 1.41137 92.3893C1.58862 91.6235 1.73635 90.8508 1.86361 90.0758C4.00206 76.9179 11.9536 68.3096 23.4913 62.5601C28.8795 59.8763 34.6994 58.8263 40.6512 58.3855C41.592 58.315 42.5351 58.2832 43.4759 58.2014C43.9441 58.1605 44.4122 58.0718 44.8689 57.9605C45.5303 57.7968 46.0348 57.4196 46.0552 56.6833C46.0757 55.9333 45.5462 55.5607 44.9122 55.3675C44.3645 55.1994 43.7895 55.0221 43.2259 55.0198C40.7693 55.0062 38.3105 54.988 35.8561 55.1039C34.5585 55.163 33.2699 55.4925 32.2518 55.6539Z" fill="#02D0E2"/>
<path d="M366.336 54.8565C367.304 54.327 367.445 53.4953 367.47 52.7544C367.522 51.0864 367.515 49.4047 367.365 47.7457C367.092 44.7324 366.047 41.9235 364.67 39.2578C361.073 32.3039 355.671 27.3816 348.21 24.8136C345.224 23.7864 342.195 22.9524 339.009 23.0183C337.763 23.0433 336.511 23.2342 335.284 23.4683C334.275 23.6614 333.818 24.2864 333.889 25.0659C333.959 25.8544 334.473 26.3453 335.541 26.4066C336.738 26.4748 337.943 26.4044 339.145 26.4066C340.499 26.4089 341.876 26.2794 343.208 26.4612C352.246 27.7043 358.691 32.5834 362.954 40.5736C364.94 44.296 365.533 48.2798 365.677 52.3976C365.702 53.2134 365.665 54.0566 366.336 54.8565Z" fill="#02D0E2"/>
<path d="M82.5828 249.71C82.5942 248.047 82.5896 246.533 82.6215 245.022C82.7874 237.166 84.7304 229.789 88.6005 222.933C90.1572 220.176 91.9797 217.604 94.2568 215.413C95.568 214.152 97.0611 213.054 98.5769 212.041C99.2314 211.602 100.14 211.411 100.947 211.37C102.161 211.309 102.94 212.327 102.552 213.472C102.293 214.234 101.833 215.022 101.249 215.567C91.4138 224.758 87.5574 236.25 88.0892 249.456C88.5664 261.304 93.5342 270.956 102.472 278.612C112.073 286.836 123.223 291.009 135.874 290.584C145.982 290.243 155.045 286.795 162.799 280.191C165.985 277.478 168.584 274.276 170.421 270.483C172.65 265.884 173.082 261.157 171.484 256.271C170.8 254.178 170.107 252.087 169.459 249.983C169.166 249.033 168.887 248.067 168.75 247.087C168.589 245.922 169.169 245.017 170.103 244.683C170.966 244.376 171.898 244.672 172.557 245.617C173.275 246.647 173.92 247.731 174.541 248.826C176.566 252.396 178.781 255.839 181.74 258.709C183.276 260.2 184.926 261.607 186.676 262.834C192.396 266.849 198.664 267.181 205.168 265.227C208.913 264.102 212.153 262.093 214.73 259.136C218.251 255.1 219.819 250.455 218.419 245.154C217.973 243.463 217.026 241.89 216.201 240.32C215.521 239.025 214.644 237.832 213.928 236.552C213.644 236.043 213.553 235.427 213.369 234.843C214.356 234.42 214.858 234.991 215.358 235.395C217.937 237.495 219.801 240.138 220.973 243.233C222.996 248.562 222.282 253.682 219.371 258.459C218.267 260.27 216.694 261.8 215.319 263.443C215.024 263.795 214.655 264.088 214.292 264.438C217.135 270.176 221.044 274.803 226.693 277.878C234.027 281.871 241.778 284.543 250.157 284.832C259.747 285.164 268.778 282.873 276.591 277.219C287.749 269.142 293.121 257.889 293.524 244.195C293.546 243.411 293.51 242.627 293.499 241.84C293.499 241.793 293.46 241.745 293.365 241.531C292.612 241.786 291.837 242.061 291.058 242.311C282.725 244.979 274.273 245.96 265.633 244.024C259.631 242.679 254.032 240.402 249.055 236.723C246.275 234.668 243.973 232.166 242.274 229.164C241.401 227.623 240.774 225.939 240.047 224.317C239.962 224.128 239.922 223.917 239.883 223.71C239.744 222.969 239.919 222.351 240.626 221.976C241.283 221.628 242.015 221.803 242.564 222.519C243.551 223.805 244.542 225.094 245.446 226.437C248.212 230.548 251.918 233.564 256.304 235.763C264.938 240.095 274.023 241.356 283.522 239.602C287.667 238.836 291.681 237.656 295.451 235.734C298.13 234.368 300.591 232.68 302.712 230.539C304.482 228.75 306.195 226.905 307.902 225.055C309.191 223.658 310.279 222.121 310.906 220.299C310.974 220.101 311.068 219.913 311.163 219.726C311.447 219.169 311.879 218.815 312.533 218.858C313.254 218.908 313.749 219.356 313.842 220.017C313.949 220.776 313.972 221.59 313.815 222.335C313.408 224.267 312.44 225.958 311.243 227.505C310.284 228.744 309.263 229.937 308.157 231.291C309.161 231.934 310.063 232.662 311.081 233.136C319.942 237.272 329.218 239.659 339.056 239.404C344.315 239.268 349.292 237.777 354.114 235.768C360.511 233.105 366.331 229.521 371.385 224.751C374.226 222.072 376.637 219.044 378.635 215.688C385.079 204.857 385.466 193.703 379.948 182.479C375.033 172.48 367.381 164.881 358.002 158.984C356.334 157.934 354.555 157.061 352.778 156.077C352.564 156.445 352.441 156.611 352.366 156.795C349.805 163.152 344.926 166.604 338.374 167.944C336.886 168.249 335.384 168.497 333.886 168.753C333.475 168.824 333.032 168.937 332.643 168.851C332.357 168.787 332.02 168.472 331.923 168.194C331.857 168.006 332.104 167.599 332.32 167.444C332.607 167.24 333.004 167.199 333.345 167.067C335.691 166.163 338.115 165.422 340.361 164.313C345.64 161.702 348.676 157.493 348.53 151.444C348.489 149.748 348.085 147.989 347.489 146.389C345.671 141.497 342.626 137.492 338.268 134.547C337.877 134.284 337.465 134.036 337.12 133.722C336.404 133.07 336.54 132.307 337.493 132.113C338.283 131.952 339.174 131.957 339.961 132.145C342.249 132.697 344.217 133.906 345.928 135.506C349.428 138.779 351.739 142.765 352.948 147.398C353.066 147.855 353.182 148.31 353.305 148.764C353.316 148.805 353.375 148.832 353.48 148.93C357.748 148.216 362.175 147.928 366.261 146.142C373.996 142.758 379.669 137.281 382.891 129.409C385.916 122.021 385.738 114.563 383.193 107.106C381.641 102.561 379.387 98.3708 376.476 94.537C373.046 90.0192 368.84 86.4764 363.599 84.2402C361.145 83.1925 358.657 82.2313 356.177 81.2268C355.975 81.5041 355.832 81.6586 355.739 81.8404C352.596 87.9308 347.862 92.494 342.147 96.1528C336.563 99.7275 330.507 102.373 324.551 105.216C324.271 105.35 323.921 105.52 323.657 105.454C323.242 105.352 322.735 105.154 322.528 104.829C322.364 104.575 322.467 103.959 322.685 103.695C323.073 103.223 323.603 102.836 324.132 102.511C327.707 100.321 331.302 98.1686 334.877 95.9801C337.513 94.3689 340.211 92.8394 342.738 91.0669C346.924 88.1308 350.244 84.3743 352.53 79.7679C356.475 71.8208 355.83 64.2101 350.523 57.1312C345.237 50.0818 338.002 46.6798 329.248 46.4025C323.123 46.2071 317.265 47.4911 311.572 49.65C307.793 51.0817 304.08 52.677 300.644 54.82C298.737 56.0086 296.973 57.4266 295.135 58.7265C294.685 59.0447 294.228 59.6128 293.61 59.1992C292.937 58.7492 293.217 58.0629 293.431 57.4834C293.953 56.0722 294.855 54.8814 296.026 53.9837C297.767 52.6475 299.614 51.4499 301.423 50.1977C301.764 49.9614 302.125 49.7568 302.575 49.475C302.323 47.1002 302.321 44.6868 301.505 42.3893C300.778 40.344 299.482 38.7191 297.671 37.5374C294.574 35.5194 291.185 34.3831 287.47 34.274C285.036 34.2013 283.079 35.0853 281.645 37.0829C281.279 37.5919 280.875 38.0714 280.527 38.5146C280.816 40.3849 281.157 42.187 281.361 44.0073C281.641 46.4958 281.222 48.9228 280.432 51.284C280.039 52.4611 279.457 53.0111 278.791 52.9452C278.127 52.8793 277.807 52.2316 277.782 50.8885C277.734 48.2706 277.916 45.6231 277.602 43.037C276.284 32.2424 271.723 23.1114 263.256 16.1074C258.863 12.4737 254.011 9.5807 248.78 7.31498C242.285 4.50386 235.46 3.60853 228.472 4.01077C216.742 4.68571 206.131 8.48535 196.889 15.8483C193.837 18.28 191.164 21.0843 188.915 24.2772C181.924 34.1945 180.447 44.9254 184.142 56.4358C185.64 61.1013 188.046 65.3418 190.119 69.8437C190.564 69.6915 190.901 69.6028 191.214 69.4642C195.494 67.5712 199.807 67.8848 204.097 69.3483C205.931 69.9733 207.322 71.2799 208.486 72.8094C208.736 73.1389 208.958 73.5161 209.088 73.907C209.499 75.1569 208.615 76.1545 207.311 75.85C206.611 75.6864 205.968 75.2796 205.295 74.991C203.709 74.3092 202.166 73.482 200.523 72.9889C198.136 72.2731 195.691 72.0595 193.276 73.0503C191.433 73.807 190.13 75.0956 189.296 76.8795C188.362 78.8793 188.128 80.9905 188.296 83.1744C188.446 85.106 188.59 87.0423 188.637 88.9785C188.676 90.6147 188.096 91.4509 187.003 91.6441C185.917 91.835 185.119 91.2078 184.492 89.7329C182.547 85.1492 182.992 76.1318 187.84 71.8368C188.031 71.6686 188.181 71.4549 188.433 71.1663C187.878 70.3232 187.387 69.4665 186.79 68.687C183.885 64.8941 181.836 60.6673 180.383 56.1426C180.102 55.2654 179.629 54.7609 178.829 54.3405C174.384 52.0044 169.63 51.668 164.746 51.9794C161.058 52.2134 157.463 52.7589 154.07 54.361C144.889 58.6947 141.239 66.9849 141.655 75.4978C141.748 77.4317 141.787 79.3725 141.737 81.3087C141.71 82.3313 142.021 82.9062 142.964 83.3903C147.27 85.6037 150.993 88.5671 153.815 92.5258C154.902 94.0484 155.713 95.7755 156.542 97.4618C156.854 98.0958 156.985 98.8799 156.99 99.5957C156.997 101.05 155.876 101.666 154.638 100.907C153.974 100.5 153.359 99.9843 152.804 99.4343C151.688 98.3276 150.559 97.2232 149.557 96.0165C144.523 89.9647 138.071 86.3332 130.438 84.6947C124.063 83.3267 117.63 83.2017 111.196 84.0607C89.8436 86.9082 72.5814 97.2118 58.8713 113.517C49.2607 124.948 45.5156 138.445 46.7473 153.246C47.4132 161.243 50.0924 168.628 55.2625 174.887C58.6985 179.048 62.3368 183.045 65.9979 187.011C68.7363 189.977 71.6588 192.769 74.4926 195.647C74.8971 196.056 75.2789 196.49 75.6312 196.944C76.0607 197.501 76.097 198.119 75.688 198.696C75.238 199.333 74.5608 199.526 73.8791 199.221C73.27 198.948 72.6769 198.562 72.186 198.11C69.3704 195.517 66.5865 192.89 63.7935 190.272C62.9527 189.483 62.1073 188.697 61.2869 187.886C60.7938 187.399 60.2825 187.231 59.5894 187.443C55.9147 188.561 52.3173 189.852 49.1221 192.045C46.7609 193.665 44.8111 195.694 43.243 198.099C41.0273 201.496 39.2456 205.112 37.7753 208.884C33.5757 219.66 35.6482 229.464 42.4704 238.477C45.1792 242.056 48.6744 244.692 52.7877 246.513C60.0552 249.726 67.6387 251.314 75.5903 250.783C77.8742 250.628 80.1353 250.096 82.5828 249.71Z" fill="#86F8FF"/>
<path d="M395.356 249.905C391.018 246.799 386.391 246.367 381.541 248.039C379.773 248.648 378.421 249.948 377.369 251.507C375.735 253.923 374.572 256.559 373.951 259.402C373.699 260.554 373.744 261.77 373.64 263.109C374.376 263.227 374.924 263.32 375.476 263.406C379.151 263.977 382.598 265.163 385.7 267.249C388.089 268.854 390.093 270.837 391.377 273.439C391.786 274.267 392.047 275.21 392.154 276.128C392.209 276.603 391.902 277.269 391.538 277.61C391.061 278.055 390.432 277.748 389.968 277.366C389.402 276.901 388.87 276.391 388.341 275.885C385.668 273.328 382.744 271.133 379.33 269.653C376.415 268.39 373.39 267.613 370.179 267.688C366.05 267.785 362.475 269.267 359.584 272.174C355.444 276.337 352.458 281.23 350.953 286.943C349.81 291.286 350.115 295.574 351.758 299.755C353.48 304.137 356.548 307.23 360.905 308.973C364.134 310.264 367.497 311.12 370.997 311.141C374.819 311.161 378.646 311.061 382.469 310.948C383.507 310.918 384.543 310.666 385.575 310.484C386.225 310.37 386.786 310.161 386.75 309.296C386.741 309.059 387.034 308.623 387.211 308.609C387.518 308.586 387.936 308.739 388.148 308.968C388.948 309.825 388.784 311.261 387.698 311.986C386.932 312.498 386.023 312.938 385.125 313.077C382.591 313.468 380.032 313.697 377.48 313.968C376.708 314.05 375.928 314.059 375.144 314.1C374.497 317.361 374.181 320.524 374.733 323.715C374.892 324.637 375.147 325.562 375.499 326.428C376.794 329.623 378.626 332.491 381.153 334.852C383.734 337.261 386.73 338.729 390.379 338.541C391.827 338.466 393.227 338.15 394.411 337.359C396.542 335.936 398.629 334.439 400.644 332.855C401.99 331.798 402.712 330.241 403.38 328.685C403.635 328.089 403.626 327.583 403.221 327.076C401.231 324.587 400.178 321.592 398.765 318.792C398.531 318.329 398.299 317.824 398.242 317.32C398.195 316.888 398.299 316.37 398.52 315.997C398.835 315.461 399.46 315.54 399.758 316.097C401.896 320.092 404.853 323.51 407.662 327.008C410.246 330.221 413.625 332.587 417.234 334.58C420.504 336.386 424.09 336.732 427.74 336.802C436.691 336.975 443.479 332.793 448.254 325.667C456.392 313.52 450.333 299.717 440.527 294.297C439.702 293.84 438.814 293.501 437.984 293.054C437.437 292.761 436.855 292.451 436.434 292.011C434.948 290.452 435.657 287.929 437.775 287.622C442.102 286.997 445.506 284.523 448.997 282.246C451.035 280.916 452.549 278.994 453.794 276.896C455.221 274.492 455.687 271.919 455.035 269.176C453.947 264.588 451.44 261.07 447.184 258.911C442.223 256.395 436.98 255.457 431.464 256.239C428.974 256.593 426.499 257.061 424.013 257.457C423.342 257.564 422.658 257.659 421.983 257.641C421.231 257.62 420.883 257.132 421.227 256.486C421.586 255.809 422.081 255.15 422.665 254.659C424.897 252.784 427.383 251.301 430.239 250.648C431.614 250.335 432.267 249.614 432.664 248.355C434.01 244.101 434.151 240.767 428.799 237.147C426.401 235.525 423.692 234.736 420.82 234.513C418.616 234.343 416.543 234.854 414.593 235.852C411.846 237.256 409.503 239.163 407.626 241.622C406.562 243.015 406.11 244.062 405.744 246.006C406.112 246.11 406.501 246.199 406.876 246.33C408.5 246.908 410.198 247.344 411.723 248.117C414.184 249.367 415.523 251.537 415.811 254.268C415.888 255 415.709 255.848 415.382 256.514C414.936 257.42 414.125 257.411 413.507 256.609C413.221 256.239 413.005 255.809 412.789 255.391C411.037 251.998 408.085 250.93 404.512 251.226C401.172 251.5 398.704 253.155 397.236 256.214C396.261 258.245 395.295 260.284 394.306 262.309C394.102 262.729 393.859 263.149 393.552 263.497C392.961 264.163 392.15 264.34 391.411 264.047C390.686 263.759 390.175 263.038 390.218 262.184C390.245 261.616 390.393 261.047 390.538 260.491C390.907 259.07 391.316 257.661 391.686 256.241C392.2 254.278 393.106 252.528 394.434 250.991C394.729 250.648 395.02 250.298 395.356 249.905Z" fill="#89F7FF"/>
<path d="M296.935 27.5194C295.942 28.2784 296.376 29.1487 296.549 29.9237C298.467 38.4889 297.847 46.8336 295.84 55.0374C294.086 62.2095 290.497 68.5545 284.62 73.7836C276.13 81.3329 265.374 83.7395 252.75 81.5034C249.439 80.9171 246.124 79.9285 242.988 78.7354C237.868 76.7901 233.741 73.6563 230.764 69.5953C228.646 66.7069 226.691 63.7208 224.941 60.6801C220.387 52.7649 216.251 44.7156 212.706 36.489C212.052 34.9687 211.318 33.4666 210.59 31.9644C210.329 31.4258 210.025 30.8918 209.661 30.3941C209.229 29.7987 208.6 29.3987 207.757 29.5419C206.818 29.7032 206.454 30.3123 206.529 31.0645C206.618 31.9463 206.807 32.8325 207.041 33.7052C207.945 37.0844 208.893 40.4569 209.811 43.8339C211.125 48.6698 211.963 53.533 211.586 58.3826C211.418 60.5529 210.984 62.7414 210.218 64.773C208.382 69.6385 204.386 72.7882 198.648 74.3903C193.296 75.8834 187.658 76.0606 181.941 75.8084C172.873 75.4061 164.01 73.5631 155.261 71.1019C139.712 66.7296 124.986 60.587 110.615 53.6944C109.874 53.3399 109.145 52.9604 108.379 52.6559C107.038 52.1241 105.938 52.2536 105.34 52.9512C104.729 53.6648 104.818 54.6738 105.865 55.5374C107.308 56.7282 108.845 57.8554 110.447 58.8871C115.971 62.4436 121.105 66.3615 125.816 70.6793C129.309 73.879 132.565 77.2355 135.274 80.9239C140.931 88.6277 144.198 96.7679 143.685 105.576C143.239 113.217 140.117 119.834 134.565 125.515C128.825 131.388 121.696 135.876 113.858 139.621C104.327 144.175 94.0187 147.379 83.4946 150.195C82.6742 150.413 81.7606 150.509 80.8766 150.495C76.9951 150.431 73.4091 151.263 69.8617 152.236C69.5185 152.331 69.1777 152.454 68.8754 152.613C67.8164 153.17 67.3755 154.047 67.655 154.977C67.9323 155.901 68.8231 156.64 70.1276 156.785C71.082 156.89 72.1001 156.897 73.0046 156.717C75.2862 156.27 77.6269 155.87 79.754 155.124C83.1469 153.933 86.5511 154.254 90.0372 155.27C97.1002 157.324 102.468 161.265 106.597 166.516C109.374 170.048 111.181 173.907 112.628 177.87C115.737 186.381 117.089 195.009 117.462 203.697C117.908 214.067 117.385 224.35 116.533 234.606C115.878 242.48 115.374 250.373 114.835 258.261C114.771 259.193 114.835 260.156 114.992 261.097C115.219 262.474 116.058 263.306 117.255 263.542C118.473 263.783 119.519 263.354 120.153 262.076C121.357 259.649 122.45 257.175 123.562 254.709C126.38 248.459 129.022 242.14 132.056 235.976C133.579 232.884 135.711 230.029 137.738 227.159C138.726 225.759 140.019 224.505 141.333 223.309C147.889 217.342 156.282 215.564 166.124 217.358C173.105 218.628 179.359 221.405 185.029 225.264C191.981 229.995 197.417 235.79 202.007 242.162C206.418 248.284 209.809 254.759 212.77 261.383C216.465 269.644 219.108 278.105 221.876 286.542C222.649 288.899 223.464 291.251 224.378 293.581C224.732 294.48 225.273 295.403 225.985 296.151C227.314 297.548 229.384 297.437 230.161 295.898C230.63 294.969 230.859 293.865 230.834 292.819C230.702 287.647 230.48 282.47 230.232 277.293C229.868 269.703 229.78 262.138 231.252 254.738C234.793 236.963 246.687 225.457 267.224 220.878C282.989 217.364 299.135 218.442 315.343 222.659C328.808 226.164 341.422 231.504 353.742 237.474C369.49 245.107 384.248 254.073 398.97 263.101C405.001 266.801 411.28 270.198 417.457 273.719C418.027 274.044 418.659 274.321 419.295 274.523C420.084 274.771 420.929 274.664 421.202 274.028C421.418 273.523 421.34 272.819 421.104 272.273C420.913 271.837 420.309 271.489 419.854 271.132C412.666 265.49 405.446 259.874 398.283 254.207C388.182 246.214 378.908 237.631 371.447 227.777C367.67 222.789 364.439 217.603 362.209 212.051C361.048 209.158 360.337 206.227 360.109 203.229C359.659 197.332 362.048 192.616 367.166 189.01C371.136 186.212 375.76 184.349 380.742 183.024C387.1 181.333 393.702 180.37 400.41 179.752C412.055 178.679 423.842 178.604 435.637 178.568C439.889 178.554 444.125 178.395 448.365 178.275C449.104 178.254 449.906 178.227 450.524 177.968C451.024 177.759 451.517 177.238 451.602 176.775C451.724 176.091 451.074 175.536 450.263 175.398C449.304 175.234 448.315 175.166 447.354 175.177C444.429 175.213 441.541 174.886 438.621 174.391C434.98 173.775 431.306 173.327 427.64 172.961C421.956 172.391 416.693 170.675 411.873 167.9C408.546 165.985 405.421 163.803 402.224 161.719C401.674 161.36 401.194 160.915 400.706 160.492C394.897 155.463 393.361 149.884 396.324 143.83C397.372 141.689 398.702 139.642 400.133 137.68C405.358 130.526 411.432 123.904 417.325 117.166C422.618 111.114 427.735 104.949 432.919 98.8268C433.335 98.336 433.733 97.8133 433.998 97.252C434.389 96.4293 434.126 95.634 433.246 95.0113C432.408 94.4182 431.253 94.4568 430.396 95.1295C429.981 95.4544 429.69 95.8908 429.326 96.2634C427.544 98.0837 425.908 100.024 423.947 101.697C417.47 107.217 410.653 112.417 402.615 116.382C397.795 118.759 392.695 120.652 387.157 121.763C383.771 122.443 380.326 122.698 376.753 122.129C370.159 121.079 365.443 117.948 362.632 112.703C360.325 108.399 359.644 103.94 359.707 99.4245C359.814 91.8593 361.502 84.6031 364.459 77.7014C368.118 69.1567 372.204 60.7665 376.138 52.3218C381.137 41.5886 385.794 30.7327 389.893 19.6791C390.395 18.327 390.95 16.993 391.448 15.6408C391.618 15.1749 391.775 14.6841 391.786 14.1932C391.809 13.2115 391.134 12.3956 390.127 12.0457C389.152 11.7048 388.039 11.9253 387.359 12.6798C387.018 13.0593 386.764 13.516 386.571 13.9728C381.212 26.5422 374.397 38.473 366.954 50.1288C363.598 55.3874 360.398 60.7278 356.144 65.5002C352.185 69.943 347.819 74.0085 341.972 76.7765C338.745 78.3036 335.355 79.5263 331.732 80.3557C327.001 81.442 322.497 80.7898 318.09 78.4309C310.902 74.5812 306.191 69.3089 303.923 62.505C302.483 58.1872 302.153 53.8307 301.764 49.4698C301.376 45.1133 301.117 40.7523 300.549 36.4004C300.246 34.0824 299.469 31.7713 298.785 29.4737C298.556 28.7102 298.178 27.8557 296.935 27.5194ZM418.879 175.293C417.427 175.37 416.482 175.404 415.545 175.47C408.232 175.991 400.892 176.388 393.62 177.086C387.289 177.693 381.112 178.843 375.283 180.84C370.39 182.517 365.945 184.742 362.361 187.994C358.596 191.408 356.689 195.553 356.523 200.384C356.389 204.268 357.223 208.081 358.657 211.86C360.987 218.001 364.514 223.716 368.638 229.218C374.565 237.124 381.737 244.212 389.489 250.916C390.057 251.407 390.6 251.918 391.154 252.42C390.041 252.15 389.148 251.661 388.286 251.136C373.79 242.267 358.88 234.017 342.943 227.266C328.014 220.941 312.618 216.435 296.299 215.353C285.045 214.608 273.955 215.012 263.49 217.864C244.658 223 232.757 233.697 228.537 250.293C227.048 256.145 226.594 262.147 226.741 268.217C226.896 274.525 227.223 280.843 227.462 287.156C227.484 287.738 227.419 288.317 227.394 288.899C226.785 288.229 226.566 287.565 226.378 286.897C225.085 282.341 223.976 277.75 222.469 273.23C218.737 262.029 213.845 251.136 206.766 240.89C202.241 234.342 196.778 228.395 189.929 223.373C183.52 218.671 176.35 215.262 168.262 213.603C155.12 210.91 144.267 213.519 136.226 222.016C134.133 224.23 132.388 226.716 130.765 229.22C127.427 234.367 125.193 239.976 122.828 245.526C122.296 246.771 121.725 248.005 121.171 249.241C120.81 248.784 120.819 248.434 120.837 248.087C121.337 237.799 122.053 227.527 122.275 217.217C122.489 207.393 121.687 197.525 119.396 187.685C117.826 180.936 115.594 174.311 111.715 168.066C107.477 161.246 101.436 155.945 93.0302 152.729C92.5711 152.554 92.1188 152.359 91.2803 152.018C92.3779 151.713 93.1097 151.491 93.8573 151.304C104.375 148.684 114.128 144.848 123.071 139.73C128.938 136.374 134.283 132.524 138.633 127.781C143.617 122.348 146.81 116.173 147.637 109.099C148.884 98.4041 145.58 88.3414 138.533 78.874C134.633 73.6358 129.877 68.9385 124.737 64.5048C124.287 64.1162 123.871 63.7003 123.439 63.2958C125.843 64.0207 128.05 64.932 130.272 65.8138C140.412 69.8339 150.687 73.4745 161.422 75.8924C170.103 77.8468 178.816 78.8786 187.597 78.6309C192.535 78.4923 197.355 77.9537 201.834 76.3515C206.764 74.5881 210.345 71.6678 212.638 67.5863C215.226 62.9822 215.733 57.9781 215.431 52.8036C215.397 52.2036 215.374 51.6059 215.347 51.0083C216.092 51.5832 216.438 52.2127 216.794 52.8399C219.903 58.2963 222.819 63.8299 226.18 69.1885C229.707 74.8085 235.193 78.8217 242.006 81.5147C246.024 83.1009 250.169 84.1463 254.469 84.6826C266.436 86.1757 276.785 83.8577 285.277 77.2515C291.765 72.2064 295.999 65.9138 298.36 58.619C298.562 57.9963 298.787 57.3805 299.003 56.7601C299.151 56.7805 299.299 56.8032 299.444 56.8236C299.512 57.5486 299.592 58.2758 299.642 59.0008C299.874 62.2482 300.562 65.4547 302.037 68.5499C305.116 75.0175 310.32 79.9285 317.979 82.6555C323.383 84.5804 328.932 84.6735 334.302 83.3623C343.193 81.192 350.858 77.4287 356.746 71.5133C359.005 69.243 361.002 66.7819 363.116 64.4048C363.532 63.9367 363.939 63.464 364.352 62.9936C364.486 63.4753 364.391 63.8299 364.234 64.1639C361.571 69.8089 359.198 75.5516 357.444 81.5034C355.612 87.7142 354.569 94.0613 354.778 100.606C354.962 106.319 356.376 111.844 360.264 116.923C363.723 121.443 368.484 124.4 374.531 125.768C379.199 126.824 383.782 126.715 388.302 125.918C396.27 124.511 403.235 121.461 409.782 117.725C410.421 117.359 411.057 116.989 411.694 116.621C411.6 117.325 411.232 117.818 410.816 118.282C407.348 122.154 403.808 125.979 400.417 129.899C397.324 133.478 394.318 137.121 392.2 141.246C388.321 148.798 389.95 155.872 396.856 162.474C397.011 162.621 397.165 162.769 397.327 162.912C402.163 167.187 407.601 170.757 413.823 173.391C415.314 174.014 416.857 174.532 418.879 175.293Z" fill="#02D0E2"/>
<path d="M418.455 175.293C416.43 174.532 414.89 174.014 413.404 173.384C407.181 170.751 401.743 167.18 396.907 162.906C396.746 162.763 396.591 162.615 396.437 162.467C389.531 155.865 387.901 148.791 391.78 141.239C393.901 137.115 396.905 133.47 399.998 129.893C403.388 125.97 406.929 122.146 410.397 118.276C410.811 117.812 411.181 117.319 411.274 116.614C410.638 116.982 410.001 117.353 409.363 117.719C402.818 121.457 395.853 124.504 387.883 125.911C383.361 126.709 378.779 126.818 374.111 125.761C368.062 124.393 363.303 121.437 359.845 116.916C355.958 111.837 354.543 106.313 354.359 100.6C354.15 94.0548 355.193 87.7076 357.024 81.4968C358.779 75.5451 361.151 69.8024 363.815 64.1574C363.971 63.8256 364.069 63.4689 363.933 62.9871C363.521 63.4575 363.112 63.9302 362.696 64.3983C360.583 66.7731 358.586 69.2365 356.327 71.5068C350.438 77.4222 342.773 81.1855 333.883 83.3558C328.513 84.6671 322.964 84.5739 317.559 82.649C309.901 79.922 304.697 75.0111 301.618 68.5434C300.143 65.446 299.454 62.2394 299.222 58.9943C299.17 58.2693 299.091 57.5421 299.025 56.8172C298.877 56.7967 298.729 56.774 298.584 56.7535C298.37 57.3716 298.143 57.9875 297.941 58.6125C295.58 65.9096 291.344 72.1999 284.858 77.2449C276.363 83.8512 266.016 86.1692 254.049 84.6761C249.749 84.1398 245.604 83.0944 241.586 81.5082C234.773 78.8175 229.288 74.8019 225.761 69.182C222.397 63.8256 219.484 58.292 216.375 52.8334C216.018 52.2084 215.673 51.5767 214.927 51.0017C214.955 51.6017 214.977 52.1994 215.011 52.797C215.314 57.9716 214.807 62.9757 212.219 67.5799C209.926 71.6613 206.344 74.5792 201.415 76.345C196.936 77.9471 192.116 78.4858 187.178 78.6244C178.396 78.8721 169.684 77.8403 161.003 75.886C150.265 73.468 139.991 69.8274 129.853 65.8073C127.63 64.9255 125.424 64.0143 123.019 63.2893C123.451 63.6938 123.867 64.1097 124.317 64.4983C129.458 68.932 134.212 73.6271 138.114 78.8675C145.163 88.3349 148.467 98.3999 147.217 109.092C146.39 116.167 143.197 122.343 138.214 127.775C133.864 132.52 128.519 136.367 122.651 139.724C113.709 144.841 103.955 148.677 93.4379 151.298C92.6903 151.484 91.9585 151.707 90.8609 152.011C91.6994 152.352 92.1516 152.545 92.6107 152.723C101.017 155.938 107.059 161.24 111.295 168.06C115.175 174.305 117.406 180.929 118.977 187.679C121.267 197.521 122.07 207.388 121.856 217.21C121.633 227.523 120.917 237.792 120.417 248.08C120.401 248.428 120.39 248.778 120.751 249.235C121.304 247.996 121.876 246.764 122.408 245.519C124.774 239.97 127.008 234.361 130.346 229.214C131.969 226.709 133.714 224.221 135.807 222.01C143.847 213.513 154.701 210.902 167.843 213.597C175.931 215.253 183.098 218.665 189.509 223.366C196.356 228.389 201.822 234.336 206.346 240.883C213.428 251.13 218.32 262.022 222.05 273.223C223.556 277.744 224.663 282.334 225.958 286.89C226.147 287.559 226.365 288.222 226.974 288.893C226.999 288.311 227.063 287.734 227.042 287.15C226.804 280.836 226.476 274.519 226.322 268.21C226.172 262.138 226.629 256.139 228.117 250.287C232.34 233.691 244.241 222.994 263.071 217.858C273.536 215.003 284.626 214.599 295.88 215.347C312.199 216.428 327.595 220.935 342.523 227.259C358.461 234.011 373.371 242.258 387.867 251.13C388.728 251.657 389.619 252.144 390.735 252.414C390.18 251.912 389.637 251.4 389.069 250.909C381.318 244.203 374.146 237.117 368.219 229.211C364.094 223.71 360.569 217.994 358.238 211.854C356.804 208.075 355.97 204.261 356.104 200.378C356.272 195.546 358.176 191.401 361.942 187.988C365.528 184.738 369.971 182.511 374.864 180.834C380.693 178.836 386.869 177.686 393.201 177.079C400.473 176.382 407.813 175.986 415.126 175.464C416.06 175.405 417.003 175.371 418.455 175.293Z" fill="#00FFFF"/>
<path d="M166.609 138.639C162.321 138.285 160.318 135.574 158.353 134.049L162.945 127.974C163.716 128.538 164.827 129.402 166.542 129.544C168.257 129.686 171.702 128.697 171.881 126.531C171.922 126.034 171.939 123.627 167.413 122.844C163.651 122.17 162.123 120.317 162.541 116.352C162.941 112.613 164.59 109.705 168.087 108.085C172.948 105.896 178.223 107.513 181.184 109.075L180.707 109.899C179.265 112.507 177.931 114.896 177.248 116.022C176.728 115.706 176.171 115.296 175.133 115.211C172.199 114.968 172.189 116.195 172.17 116.42C172.129 116.917 172.22 118.015 174.154 118.811C178.948 120.752 180.914 124.459 180.578 128.522C179.71 139.039 169.453 138.873 166.609 138.639ZM180.984 140.007C181.084 138.789 181.305 137.216 181.406 135.998L182.024 128.505L182.591 121.098L182.65 120.376C182.963 116.584 183.366 112.255 183.725 108.467L192.165 109.164L191.236 118.767L190.897 122.875L196.336 123.597L196.508 121.52C196.788 119.226 197.11 116.98 197.39 114.685C197.57 113.61 197.794 111.992 197.888 110.864C198.523 110.871 202.236 111.041 205.625 111.275L205.207 116.331C204.973 119.175 204.779 122.067 204.541 124.956L204.193 128.608C203.719 133.25 202.992 137.099 202.544 141.424C197.037 140.97 197.76 141.029 195.586 140.941L195.67 138.266C196.002 129.841 196.003 130.386 196.032 129.48L190.657 129.081C190.605 129.713 189.779 137.507 189.675 138.226L189.484 140.528L181.164 140.022L180.984 140.007ZM214.115 143.016C203.101 142.107 205.645 128.91 205.738 127.782C206.375 120.063 206.245 117.235 208.244 113.946C209.878 111.218 213.503 109.699 216.753 109.967C224.607 110.616 226.067 116.599 226.074 121.462C226.06 122.734 225.304 131.897 224.869 134.406C223.704 140.809 221.066 143.59 214.115 143.016ZM213.141 128.938C213.085 129.615 212.956 132.831 214.671 132.973L214.761 132.98C216.477 133.122 217.017 130.985 217.394 127.517L217.577 125.851C218.257 119.817 217.271 118.554 216.097 118.457C213.66 118.256 213.812 121.359 213.675 123.029C212.989 131.334 213.313 126.862 213.141 128.938ZM243.381 146.205C242.928 144.532 241.769 138.756 240.968 134.145L240.628 132.208C235.859 142.085 235.528 142.239 234.755 144.448L225.618 143.921C226.185 137.605 226.775 131.019 227.296 124.699L228.366 111.745C230.036 111.882 232.88 112.117 234.599 112.214C233.801 125.736 233.957 123.84 233.77 125.007C234.506 123.795 237.77 117.838 239.197 114.866L240.298 112.548L244.593 112.812L244.771 114.508C245.813 124.456 245.888 124.099 246.47 127.51C247.411 123.27 249.371 114.388 249.701 113.143L257.371 113.822C256.918 116.556 255.771 122.188 254.88 128.022C254.54 129.948 254.285 131.927 254.035 133.86L253.421 137.991C252.964 140.771 252.425 143.998 251.923 146.775L246.759 146.575L243.381 146.205ZM272.969 147.285L265.126 146.501L265.134 146.411C265.29 144.515 266.835 127.464 267.319 122.142C267.577 119.027 267.794 117.5 267.973 115.333L279.182 116.623C279.827 119.266 279.197 116.442 281.391 127.303C281.617 128.412 281.889 129.526 282.194 130.778C282.919 129.702 281.559 131.862 287.735 121.464C287.784 121.423 288.997 119.387 290.087 117.75L297.095 118.193C297.084 118.873 297.144 118.151 296.697 124.113L294.92 147.28L294.815 148.544L288.304 148.143C288.308 147.552 288.52 144.979 288.748 142.226L289.366 134.733C289.314 134.82 285.215 141.525 282.305 147.602L277.407 147.47C277.306 147.053 276.981 146.026 276.762 144.827L274.429 132.909C274.268 133.759 274.484 131.686 273.246 145.036L272.969 147.285ZM296.6 149.237C296.629 148.33 296.967 142.587 297.15 139.83C297.283 137.659 297.511 135.451 297.645 133.281C297.864 130.072 298.035 126.905 298.255 123.697L298.664 118.186C299.345 118.197 298.942 118.118 306.259 118.677C312.582 119.153 315.245 119.373 317.551 119.518L317.006 126.109C314.829 126.065 307.606 125.469 305.925 125.466L305.519 130.386C306.2 130.397 305.338 130.371 311.18 130.626L311.057 132.116L310.837 135.325L310.793 135.866L306.711 135.756C306.437 135.779 306.117 135.798 305.756 135.768L305.387 140.237L308.603 140.366C310.732 140.451 313.76 140.656 315.881 140.831L315.852 141.738C315.711 144.544 315.577 146.714 315.443 148.339L315.253 150.641L312.85 150.579C312.349 150.583 311.902 150.501 311.405 150.46L296.6 149.237ZM156.778 182.844C156.01 182.78 155.337 182.679 154.66 182.623L154.921 179.464L155.717 167.077L156.923 151.362C156.969 151.365 159.004 151.488 161.26 151.674C162.66 151.79 164.146 151.958 165.27 152.096C171.022 152.889 172.025 156.699 172.165 157.21C173.254 160.527 173.318 165.804 173.289 167.256C173.279 168.482 173.272 169.663 173.179 170.791C172.635 177.382 170.321 181.19 163.168 182.508C160.675 182.984 158.583 182.993 156.778 182.844ZM161.138 174.614C163.895 174.251 164.89 171.561 165.025 171.027C165.46 169.609 165.715 168.175 165.83 166.776C165.916 165.738 165.912 164.692 165.903 163.692C165.75 160.043 163.196 159.605 162.564 159.553L162.383 159.538L161.519 170.556L161.493 170.872L161.138 174.614ZM185.751 185.327L185.361 181.796L184.986 177.538C180.596 177.312 181.322 177.326 180.686 177.319L179.17 181.921L178.375 184.4L178.284 184.392C177.336 184.314 172.465 183.866 171.209 183.672L172.643 179.518C173.416 177.31 174.144 175.098 174.958 172.938C176.595 168.529 178.19 164.07 180.049 159.725L182.583 153.799L191.904 154.296C192.006 155.258 192.295 158.918 192.455 161.385C192.622 163.762 192.695 166.177 192.817 168.55C193.004 171.792 193.097 175.072 193.423 178.28L194.196 185.979L192.477 185.883L185.751 185.327ZM182.957 170.19L185.439 170.395L184.774 165.795L182.957 170.19ZM213.273 188.872C212.821 187.199 211.662 181.422 210.861 176.812L210.521 174.875C205.751 184.752 205.42 184.906 204.647 187.115L195.511 186.588C196.078 180.272 196.667 173.685 197.189 167.366L198.259 154.411C199.929 154.549 202.773 154.784 204.491 154.881C203.693 168.403 203.849 166.507 203.662 167.673C204.399 166.462 207.663 160.505 209.09 157.533L210.19 155.215L214.486 155.479L214.664 157.175C215.706 167.123 215.78 166.765 216.362 170.176C217.303 165.937 219.264 157.055 219.594 155.81L227.264 156.488C226.81 159.223 225.664 164.855 224.773 170.689C224.432 172.615 224.178 174.594 223.927 176.527L223.313 180.658C222.857 183.438 222.317 186.665 221.816 189.441L216.651 189.242L213.273 188.872ZM237.854 189.63L237.464 186.098L237.089 181.841C232.699 181.615 233.425 181.629 232.789 181.622L231.273 186.223L230.478 188.702L230.387 188.695C229.439 188.617 224.568 188.169 223.312 187.974L224.745 183.821C225.519 181.612 226.247 179.4 227.061 177.241C228.698 172.831 230.293 168.373 232.152 164.027L234.686 158.101L244.007 158.598C244.109 159.561 244.398 163.221 244.558 165.688C244.725 168.065 244.798 170.48 244.92 172.853C245.107 176.095 245.2 179.375 245.526 182.583L246.299 190.282L244.58 190.185L237.854 189.63ZM235.059 174.493L237.542 174.698L236.877 170.098L235.059 174.493ZM248.155 190.39C248.184 189.483 248.522 183.739 248.705 180.982C248.838 178.812 249.066 176.604 249.2 174.433C249.419 171.225 249.59 168.058 249.81 164.849L250.219 159.339C250.9 159.349 250.497 159.271 257.814 159.829C264.137 160.306 266.8 160.526 269.106 160.671L268.561 167.261C266.384 167.218 259.161 166.621 257.48 166.619L257.074 171.539C257.755 171.55 256.893 171.524 262.735 171.779L262.612 173.269L262.392 176.477L262.347 177.019L258.266 176.909C257.992 176.932 257.672 176.951 257.311 176.921L256.942 181.39L260.158 181.519C262.287 181.604 265.315 181.808 267.436 181.984L267.407 182.89C267.266 185.696 267.132 187.867 266.998 189.492L266.808 191.794L264.405 191.731C263.904 191.736 263.457 191.653 262.96 191.612L248.155 190.39ZM269.964 181.147C270.046 180.154 269.879 182.731 270.779 163.581L270.946 161.005L278.769 160.924C275.363 182.911 275.719 180.804 275.607 181.613L269.964 181.147ZM268.428 188.746C268.723 185.726 270.437 184.231 272.784 184.425C276.079 184.697 276.6 187.739 276.462 189.41C276.377 190.448 276.02 191.464 275.374 192.137C274.427 193.15 272.889 193.614 271.534 193.502C268.239 193.23 268.421 189.927 268.428 188.746Z" fill="black"/>
</svg>
